<svg width="26" height="36" viewBox="0 0 26 36" fill="none" xmlns="http://www.w3.org/2000/svg">
<path id="Vector" d="M18.7851 36C18.2661 35.6592 17.6551 35.6928 17.0279 35.5921C15.4815 35.3425 14.0811 34.8434 12.7456 34.0755C11.6209 33.4132 8.14428 31.2487 8.79312 29.6985C9.78799 27.2172 16.206 32.5157 18.4823 34.9058C17.7849 32.5829 16.9522 30.3032 16.033 28.0427C15.4545 27.9371 14.8975 27.7164 14.3298 27.5964C13.1295 27.3132 11.9075 27.1692 10.7396 26.7085C9.38788 26.1902 5.38134 24.5104 5.19209 22.9842C5.00285 21.1653 10.1881 23.3778 10.9451 23.7377C12.3455 24.3376 14.1838 25.0767 15.276 26.219C14.1406 23.5793 12.8862 20.9733 11.5561 18.3913C10.8964 18.3193 10.2422 18.2905 9.60416 18.2425C8.25783 18.2041 6.99801 18.1561 5.7436 17.5994C4.69466 17.1434 1.69381 15.5357 1.89927 14.2495C2.30479 11.7874 9.60956 15.8044 11.1235 17.5706C9.85288 15.1373 8.52818 12.7185 7.17644 10.314C6.09505 9.6613 5.10018 8.87421 4.12152 8.13031C2.14258 6.64252 0.0609104 4.60281 0.00143403 2.16475C-0.07967 -1.0124 3.29967 -0.196516 5.00285 1.46405C7.62522 4.03169 7.00342 6.90169 7.51708 9.91566C8.83637 12.2001 10.1232 14.4846 11.3506 16.7883C11.2208 16.3132 11.1019 15.838 11.0208 15.3485C10.7991 14.1055 10.6531 7.61199 13.216 8.88861C15.2166 9.83887 14.2163 13.3184 13.6161 14.6622C13.1241 15.7516 12.14 16.8507 12.0265 18.0745C13.562 21.0117 14.9949 23.9729 16.2655 26.9869C16.2439 26.3678 16.0763 25.763 16.0222 25.1247C15.8762 23.6849 15.8384 16.7499 18.2661 17.3642C20.7424 17.9593 19.58 22.6291 19.0284 23.9537C18.4337 25.3839 17.4496 26.5357 16.6007 27.8219C17.5145 30.0536 18.3418 32.3141 19.0501 34.613C19.2393 34.1619 19.4556 33.7203 19.6394 33.274C20.2126 31.9974 23.0242 24.1649 25.4357 26.4973C27.128 28.0811 24.5814 31.527 23.4567 32.7365C22.3321 33.9843 20.9641 35.0209 19.4123 35.8512" fill="#365930"/>
</svg>
