<svg width="19" height="41" viewBox="0 0 19 41" fill="none" xmlns="http://www.w3.org/2000/svg">
<path id="Vector" d="M10.8053 40.0729C11.144 39.5829 11.7135 39.4166 12.245 39.1181C13.5549 38.3812 14.6339 37.4561 15.5481 36.2982C16.3119 35.3085 18.6269 32.1382 17.427 30.8852C15.5461 28.8655 11.7844 35.9477 10.651 38.9418C10.3733 36.5229 10.2357 34.101 10.1843 31.6692C10.6696 31.382 11.0899 30.993 11.5597 30.6957C12.5414 30.0393 13.5974 29.5073 14.4798 28.6937C15.5068 27.7662 18.4948 24.8817 18.0674 23.3797C17.5249 21.6013 13.6731 25.3708 13.1253 25.956C12.086 26.9763 10.7025 28.2699 10.1569 29.7022C10.1535 26.8424 10.2716 23.9757 10.4681 21.1071C11.0404 20.8253 11.6248 20.5861 12.1869 20.3339C13.3976 19.8612 14.5259 19.4075 15.4493 18.4753C16.2252 17.7049 18.3257 15.2144 17.6332 14.0668C16.2965 11.8742 11.2239 18.0342 10.5395 20.1922C10.7402 17.4834 10.9959 14.7706 11.2818 12.0626C12.01 11.0959 12.6065 10.0304 13.2053 9.01093C14.4225 6.96496 15.5164 4.36468 14.6125 2.04393C13.4379 -0.981508 10.6816 0.884186 9.78332 3.00386C8.40457 6.27777 10.0985 8.78539 10.8152 11.797C10.5116 14.3812 10.2376 16.9549 10.0253 19.5274C9.95674 19.0368 9.87834 18.5497 9.75982 18.0613C9.47322 16.8161 7.05452 10.6391 5.22263 12.675C3.77449 14.2206 6.05254 17.1809 7.12706 18.2548C8.00316 19.1237 9.33103 19.8422 9.91532 20.9606C9.67133 24.2311 9.53031 27.4908 9.55773 30.7479C9.33414 30.1564 9.24914 29.5313 9.04754 28.9112C8.6147 27.5047 5.92403 20.946 3.95496 22.3129C1.93404 23.6775 4.82748 27.7087 5.85015 28.7803C6.95368 29.9376 8.3023 30.7059 9.58065 31.6449C9.62559 34.0477 9.76062 36.4498 10.019 38.8495C9.66945 38.4849 9.29903 38.1383 8.95625 37.7765C7.93276 36.7572 2.29496 30.275 1.01581 33.2586C0.0972251 35.3023 3.77008 37.7295 5.26933 38.5066C6.78367 39.3199 8.43656 39.855 10.1757 40.1357" fill="#365930"/>
</svg>
