<?xml version="1.0" encoding="UTF-8"?>
<svg id="Capa_2" data-name="Capa 2" xmlns="http://www.w3.org/2000/svg" viewBox="0 0 317.55 292.77">
  <defs>
    <style>
      .cls-1, .cls-2, .cls-3, .cls-4, .cls-5, .cls-6, .cls-7, .cls-8, .cls-9 {
        stroke-width: 0px;
      }

      .cls-1, .cls-5 {
        fill: #30110f;
      }

      .cls-1, .cls-10 {
        opacity: .25;
      }

      .cls-11 {
        opacity: .6;
      }

      .cls-2 {
        fill: none;
      }

      .cls-3 {
        opacity: .58;
      }

      .cls-3, .cls-4, .cls-9 {
        fill: #fff;
      }

      .cls-12 {
        opacity: .3;
      }

      .cls-6 {
        fill: #742118;
      }

      .cls-7 {
        fill: #df482a;
      }

      .cls-8 {
        fill: #f2ebe3;
      }

      .cls-9 {
        opacity: .6;
      }
    </style>
  </defs>
  <g id="Capa_1-2" data-name="Capa 1">
    <g>
      <g class="cls-12">
        <ellipse class="cls-5" cx="158.82" cy="276.89" rx="158.73" ry="15.88"/>
      </g>
      <path class="cls-6" d="m305.32,264.66c-.43,1.86-1.34,3.55-2.86,4.72-2.53,1.95-6,1.96-9.2,1.86-25.15-.79-50.27-2.66-75.23-5.42-3.85-11.06-5.38-22.92-2.55-34.59,18.2,1.21,36.45,2.42,54.38,5.67,1.99.37,3.97.75,5.94,1.16,6.28,1.31,12.61,2.95,18.11,6.26,5.5,3.31,10.14,8.53,11.42,14.82.37,1.8.39,3.74-.02,5.53Z"/>
      <g class="cls-10">
        <path class="cls-5" d="m305.32,264.66c-.43,1.86-1.34,3.55-2.86,4.72-2.53,1.95-6,1.96-9.2,1.86-25.15-.79-50.27-2.66-75.23-5.42-3.85-11.06-5.38-22.92-2.55-34.59,18.2,1.21,36.45,2.42,54.38,5.67-1.18.97-2.33,1.97-3.39,2.94-1.81,1.66-.95,4.67,1.46,5.13,4.35.83,10.42,2.32,14.68,4.76,5.67,3.23,14.12,16.11,22.7,14.94Z"/>
      </g>
      <path class="cls-7" d="m283.14,256.24c-4.2-2.69-9.24-3.69-14.14-4.63l-53.21-10.19c-31.33-6-49.89-38.72-65.88-65.72-.56-.93-1.1-1.86-1.65-2.77-3.23-5.42-6.21-11.02-9.17-16.61-3.84-7.23-7.66-14.45-12.02-21.34-1.89-3-3.89-5.93-6.04-8.77-2.02-2.67-4.21-5.26-6.55-7.72-10.14-10.65-23.15-18.73-37.61-19.5-.18-.01-.37-.03-.56-.03l-9.34-.35s-26.81-23.61-7.65-44.59c17.05-18.66,34.4,1.03,60.22,22.37,21.23,17.54,48.29,27.78,73.78,24,28.03-4.15,41.28-18.28,42.49-30.43,1.87-18.67-12.07-37.07-33.86-37.07s-38.66,14.2-55.19,9.65c-28.84-7.93-29.9-24.37-52.15-36.24C59.94-12.21,16.4,11.53,9.13,58.5c-5.01,32.34,29.64,45.99,29.64,45.99-7.34,4.94-6.86,4.55-13.98,10.94-.32.28-.61.61-.9.91-8.8,9.03-15.48,20.25-19.37,32.27C1.87,156.79.45,165.29.09,173.86c-.34,8.18.3,16.43,1.8,24.52,1.05,5.68,2.52,11.29,4.37,16.74,5.53,16.38,14.52,31.78,27.14,43.58,12.63,11.81,29.04,19.86,46.29,21.13,5.83.43,12.17-.08,16.65-3.84,4.47-3.76,5.63-11.71,2.37-15.95,17.74,16.11,43.96,17.57,67.93,18.17,4.18.11,8.35.22,12.53.32,16.75.42,33.49.84,50.24,1.26,11.31.28,22.61.56,33.93.85,5.38.13,10.89.25,15.96-1.55,3.72-1.32,7.2-3.92,9.11-6.95.69-1.09,1.18-2.23,1.4-3.4.74-4.94-2.47-9.79-6.67-12.5Z"/>
      <g>
        <path class="cls-8" d="m55.28,82.74c-3.04-6.67-4.42-14.74-.18-22.79-9.11-11.28-25.11-18.2-39.76-22.39-2.9,6.31-5.03,13.32-6.21,20.93-.74,4.76-.61,9.12.14,13.08,22.69-1,39,6.91,46.02,11.16Z"/>
        <path class="cls-8" d="m39.68,9.02c6.63,9.35,13.59,23.51,19.73,44.9,5.91-6.43,11.86-8.25,18.19-7,2.54-14.61,4.9-33.01,3.6-45.64-14.27-3.23-29.03-.25-41.53,7.74Z"/>
        <path class="cls-8" d="m139.05,89.49c13.52,7.23,28.23,11.52,42.79,11.66.4-17.54.5-45.13-2.04-64.04-9.29,2.96-17.99,6.38-26.33,6.32-2.33,14.81-6.6,32.26-14.42,46.06Z"/>
        <path class="cls-5" d="m212.97,95.01c14.7-6.33,21.97-16.22,22.85-25.06,1.87-18.67-12.07-37.07-33.86-37.07-1.33,0-2.64.06-3.94.16,5.72,13.42,12.37,34.18,14.94,61.96Z"/>
        <path class="cls-8" d="m90.01,101.72c-4.21-1.53-8.6-2.5-13.14-2.74-.18-.01-.37-.03-.56-.03l-2.4-.09c4.31,2.83,11.23,3.1,16.09,2.86Z"/>
        <path class="cls-8" d="m116.36,73.72c7.18-10.85,14.39-23.6,18.24-35.72-10.84-5.34-16.44-12.37-23.5-19.31-4.21,9.55-10.43,22.06-18.94,35.27,7.28,5.07,15.22,12.21,24.2,19.76Z"/>
      </g>
      <path class="cls-9" d="m201.97,32.89c-20.88,0-38.66,14.2-55.19,9.65-28.84-7.93-29.9-24.37-52.15-36.24C67.96-7.93,36.06,2.81,19.43,29.89c0,0,24.66-27.17,55.81-20.94,37.52,7.5,34.34,49.41,79.91,46.62,33.92-2.08,49.68-24.24,70.39,0,5.08,5.94,7.52,14.05,9.28,18.92,1.16-3.01,1.14-6.23,1.16-8.38-.25-17.27-13.73-33.21-34.01-33.21Z"/>
      <path class="cls-1" d="m233.82,70.53c-5.91,10.52-20.23,25.62-53.28,23.22-30.99-2.25-48.17-18.52-73.5-42.12-26.07-24.29-44.43-14.54-53.77-.81-12.7,18.66,6.84,40.03,6.85,40.03-6.36-8.68-13.14-23.31-.78-36.85,17.05-18.66,34.4,1.03,60.22,22.37,21.23,17.54,48.29,27.78,73.78,24,24.92-3.69,38.15-15.27,41.63-26.33.43-1.38.73-2.75.86-4.09.13-1.29.18-2.57.16-3.85-.55,1.32-1.26,2.82-2.16,4.43Z"/>
      <path class="cls-6" d="m161.39,219.73c-27.8-10.66-55-17.96-79.63-21.9.05-.96.09-1.93.09-2.91,0-26.62-20.47-48.2-45.73-48.2-14.13,0-26.76,6.76-35.15,17.37-.46,3.24-.75,6.5-.88,9.77-.34,8.18.3,16.42,1.8,24.52,1.05,5.68,2.52,11.29,4.37,16.74,5.53,16.38,14.52,31.78,27.14,43.58,12.63,11.81,29.04,19.86,46.29,21.13,5.83.43,12.17-.08,16.65-3.84,4.47-3.76,5.63-11.71,2.37-15.95,17.74,16.11,43.96,17.57,67.93,18.17,4.18.11,8.35.22,12.53.32,16.75.42,33.49.84,50.24,1.26,11.31.28,22.61.56,33.93.85,5.38.13,10.89.25,15.96-1.55,3.72-1.32,7.2-3.92,9.11-6.95.69-1.09,1.18-2.23,1.4-3.4.74-4.94-2.47-9.79-6.67-12.5-4.2-2.69-9.24-3.69-14.14-4.63-16.77-3.21-33.55-6.43-50.32-9.64-2.68.07-5.34.16-7.97.27-15.1-8.12-31.67-15.74-49.32-22.51Z"/>
      <g class="cls-11">
        <path class="cls-4" d="m38.77,104.48c-.67.61-27.44,29.02-38.68,69.61.35-8.57,1.78-17.07,4.42-25.25,3.89-12.01,10.34-23.24,19.14-32.27.29-.31.71-.75,1.02-1.04,6.99-6.38,6.52-5.85,14.1-11.05Z"/>
      </g>
      <g class="cls-11">
        <path class="cls-4" d="m149.9,175.93l-.32,11.21s-13.88-19.17-28.65-48.26c-13.92-27.42-53.95-40.27-53.95-40.27,24.02-1.13,37.23,9.33,47.5,20.11,2.34,2.46,4.53,5.05,6.55,7.72,7.07,9.36,12.54,19.74,18.05,30.11,2.97,5.59,5.94,11.19,9.17,16.61.54.91,1.09,1.84,1.65,2.77Z"/>
      </g>
      <path class="cls-5" d="m100.29,258.49c-2.23-3.19-5.19-5.9-8.79-8.03-3.03-1.8-9.97-3.84-10.04-3.86-.22-.06-.38-.23-.45-.45-.16-.52-3.81-12.73-4.45-19.26-.34-3.46-.46-6.99-.34-10.51.1-3.22.87-9.45.9-9.71.02-.14.08-.27.18-.38.09-.09,8.59-9.05,11.66-14.28,3.31-5.65,5.6-11.66,6.82-17.88,1.26-6.4,1.36-12.82.29-19.08-1.09-6.43-3.36-12.56-6.57-17.72-.05-.07-.13-.12-.22-.12-.03,0-.07,0-.1.02-.13.06-.19.21-.13.34,2.54,5.81,4.19,11.79,4.9,17.79.74,6.32.51,12.47-.69,18.27-2.47,11.9-9.01,22.88-18.44,30.93-.26.22-.43.52-.48.85-.58,3.46-.95,7.11-1.08,10.87-.12,3.65,0,7.31.35,10.9.36,3.63.97,7.25,1.82,10.76.84,3.52,1.95,7.01,3.31,10.4,0,0,.01.03.01.03.18.46.61.8,1.11.87,3.5.51,7.03,1.76,10.21,3.6,3.28,1.92,6.07,4.39,8.07,7.15.25.34.64.54,1.06.54.27,0,.52-.08.74-.23.59-.41.73-1.22.32-1.81Z"/>
      <path class="cls-5" d="m134.15,225.19c.06,0,.09.06.09.1v.04c-.15,7.26,2.05,14.85,6.35,21.93,1.95,3.2,4.28,6.28,6.93,9.16,2.58,2.81,5.43,5.42,8.5,7.74,1.7,1.26,3.26,2.28,4.76,3.14,1.5.89,3.17,1.75,5.1,2.63,3.32,1.53,6.96,2.84,10.82,3.92,3.48.96,7.18,1.73,11.32,2.37,1.91.29,3.84.52,5.76.69,1.77.15,3.83.3,5.73.33h.06c.71.01,1.29.6,1.28,1.32-.01.7-.57,1.26-1.27,1.28-.4,0-.79.01-1.18.01-1.55,0-3.14-.06-4.83-.18-1.97-.14-3.97-.34-5.94-.6-3.76-.47-7.59-1.24-11.7-2.35-4.18-1.16-7.87-2.49-11.28-4.07-2.01-.94-3.75-1.87-5.34-2.82-1.64-.96-3.28-2.07-5-3.38-3.19-2.52-6.04-5.23-8.72-8.27-2.76-3.16-5.08-6.47-6.9-9.81-2-3.68-3.42-7.44-4.24-11.23-.11-.41-.18-.84-.25-1.29l-.02-.14-.24-1.49c-.09-.63-.13-1.29-.17-1.94-.02-.35-.04-.7-.07-1.04-.02-.65,0-1.31,0-1.96,0-.34.01-.68.01-1.01.05-.65.12-1.31.19-1.95.04-.34.08-.67.11-1.01,0-.06.06-.09.1-.09h.01Z"/>
      <path class="cls-5" d="m277.88,264.17c4.07,3.82,6.3,9.66,5.66,15.55v.03c-.12,1.08-1.09,1.86-2.17,1.74-1.08-.12-1.86-1.09-1.74-2.17,0-.09.03-.18.05-.26,1.13-4.5,0-9.77-3.15-13.61h0c-.33-.4-.27-.99.13-1.32.37-.3.89-.28,1.23.04Z"/>
      <path class="cls-5" d="m295.05,256.13c4.38,3.47,7.1,9.1,6.96,15.02v.03c-.03,1.09-.93,1.94-2.01,1.92-1.09-.03-1.94-.93-1.92-2.01,0-.09.01-.18.02-.27.74-4.58-.82-9.74-4.29-13.3h0c-.36-.37-.35-.96.02-1.32.34-.33.87-.35,1.23-.06Z"/>
      <path class="cls-5" d="m283.86,259.74c3.83,3.46,6.21,9.01,6.05,14.78v.03c-.03,1.06-.82,1.88-1.78,1.83-.95-.05-1.71-.94-1.68-2,0-.08.01-.18.02-.26.67-4.45-.68-9.51-3.72-13.05h0c-.31-.37-.31-.95.02-1.29.3-.32.76-.32,1.08-.04Z"/>
      <path class="cls-5" d="m300.28,252.57c4.11,3.15,6.95,8.5,7.29,14.29v.03c.06,1.06-.66,1.95-1.62,1.98-.96.03-1.78-.8-1.84-1.86,0-.09,0-.18,0-.26.29-4.51-1.48-9.47-4.81-12.76h0c-.34-.35-.38-.92-.09-1.29.27-.34.73-.39,1.07-.13Z"/>
      <path class="cls-5" d="m66.09,252.28c3.77-1.58,7.9-2.46,11.94-2.53.07,0,.15,0,.21-.02.43-.07.81-.29,1.07-.65.26-.35.37-.78.3-1.21-.07-.43-.29-.81-.65-1.07-.28-.21-.62-.32-.97-.32-.08,0-.16,0-.25.02-4.41.67-8.57,2.13-12.38,4.35-.35.2-.49.63-.33,1,.17.41.64.6,1.05.43Z"/>
      <path class="cls-5" d="m79.27,266.68c1.17.68,2.21,1.59,3.1,2.64.89,1.05,1.63,2.24,2.2,3.51.57,1.27.96,2.63,1.14,4.03.18,1.4.16,2.83-.15,4.22-.24,1.06-1.29,1.73-2.35,1.49-.92-.2-1.54-1.02-1.54-1.93v-.06c0-1.08-.02-2.15-.13-3.22-.11-1.07-.31-2.14-.6-3.2-.29-1.06-.68-2.1-1.16-3.13-.48-1.02-1.07-2.02-1.73-3.02v-.02c-.3-.43-.18-1,.24-1.28.3-.2.68-.2.98-.03Z"/>
      <path class="cls-5" d="m89.37,261.99c1.35.59,2.6,1.43,3.68,2.47,1.09,1.03,2.02,2.24,2.76,3.56.74,1.33,1.29,2.77,1.6,4.28.32,1.5.39,3.08.18,4.62-.15,1.07-1.14,1.82-2.21,1.67-1.01-.14-1.74-1.03-1.69-2.04v-.04c.12-2.31-.23-4.68-1.13-6.91-.89-2.23-2.31-4.29-4.21-6l-.02-.02c-.39-.36-.42-.97-.07-1.36.28-.31.73-.39,1.1-.24Z"/>
      <path class="cls-6" d="m237.14,153.28c-6.64-.22-13.27-.82-19.85-1.77-11.54-1.66-22.94-4.36-34.02-7.84,3.16-5.39,6.94-10.41,11.23-14.95,6.09-6.44,13.21-11.92,21.03-16.09,2.56-1.37,5.52-2.63,8.29-1.73.77.25,1.45.64,2.06,1.14,1.87,1.51,3.02,4.01,3.9,6.33.75,1.99,1.45,3.99,2.09,6.03,2.95,9.33,4.72,19.03,5.26,28.89Z"/>
      <path class="cls-4" d="m237.14,153.28c-1.69-.05-3.38-.14-5.07-.24-4.94-.31-9.88-.82-14.78-1.53-1.52-10.29-.78-20.56,2.01-30.25.57-2,1.26-4.03,2.39-5.75.42-.63.89-1.23,1.45-1.76.77-.75,1.73-1.34,2.75-1.71,1.87,1.51,3.02,4.01,3.9,6.33,4.21,11.13,6.68,22.92,7.36,34.91Z"/>
      <g class="cls-12">
        <path class="cls-5" d="m229.88,152.88c-4.94-.31-7.69-.67-12.59-1.38-1.52-10.29-.78-20.56,2.01-30.25.57-2,1.26-4.03,2.39-5.75,5.23,9.35,8.04,24.26,8.2,37.38Z"/>
      </g>
      <g class="cls-10">
        <path class="cls-5" d="m234.82,151.65c-6.24-.21-12.47-.77-18.66-1.67-10.85-1.56-21.57-4.1-31.99-7.37,2.97-5.07,6.52-9.79,10.56-14.06,10.61.95,25.8,1.11,35.14-4.07,2.77,8.77,4.43,17.89,4.95,27.16Z"/>
      </g>
      <path class="cls-7" d="m261.93,225.29c-41.14,32.18-76.58,22.03-92.24,6.67-4.71-4.63-8.81-9.78-12.05-15.28-3.64-6.19-6.21-12.84-7.38-19.75-1.06-6.25-.98-12.72.48-19.24,2.03-9.04,6.41-17.5,12.45-24.59,3.58-4.2,7.74-7.93,12.34-11.03,4.9-3.29,10.31-5.86,16.04-7.48,20.14-5.74,43.41.48,57.53,15.7,4.16,4.48,7.57,12.7,11.56,17.33,2.58,3,6.16,2.89,10.14,5.43,3.6,2.29,6.29,5.72,7.55,9.68.34,1.08.58,2.2.7,3.35.03.25.05.5.07.75,1.2,14.31-5.63,29.43-17.19,38.48Z"/>
      <g>
        <path class="cls-2" d="m243.99,236.96c-.66.34-1.31.67-1.96.99.65-.32,1.3-.65,1.96-.99Z"/>
        <path class="cls-2" d="m241.7,238.12c-1.55.76-3.08,1.46-4.61,2.1,1.52-.64,3.06-1.34,4.61-2.1Z"/>
        <path class="cls-2" d="m236.82,240.33c-.72.3-1.44.59-2.15.87.71-.28,1.43-.57,2.15-.87Z"/>
        <path class="cls-2" d="m234.56,241.25c-1.55.6-3.09,1.15-4.62,1.64,1.52-.49,3.06-1.04,4.62-1.64Z"/>
        <path class="cls-2" d="m258.93,227.56c-.58.43-1.15.84-1.73,1.25.57-.41,1.15-.83,1.73-1.25Z"/>
        <path class="cls-2" d="m256.56,229.28c-.77.54-1.54,1.07-2.3,1.58.76-.51,1.53-1.04,2.3-1.58Z"/>
        <path class="cls-2" d="m198.37,245.73c-.53-.08-1.06-.17-1.59-.27.52.1,1.05.19,1.59.27Z"/>
        <path class="cls-2" d="m249.03,234.15c-1.54.91-3.07,1.77-4.59,2.57,1.52-.8,3.05-1.66,4.59-2.57Z"/>
        <path class="cls-2" d="m251.36,232.73c-.6.38-1.2.75-1.8,1.11.6-.36,1.2-.73,1.8-1.11Z"/>
        <path class="cls-2" d="m254.23,230.88c-.76.51-1.51.99-2.26,1.47.75-.48,1.51-.97,2.26-1.47Z"/>
        <path class="cls-2" d="m265.07,222.58c.83-.79,1.63-1.62,2.4-2.48-.77.86-1.57,1.69-2.4,2.48Z"/>
        <path class="cls-2" d="m259.61,227.06c.77-.58,1.54-1.16,2.32-1.77.67-.52,1.31-1.06,1.95-1.62-.63.56-1.28,1.1-1.95,1.62-.78.61-1.55,1.19-2.32,1.77Z"/>
        <path class="cls-2" d="m217.01,222.91c0-24.12,45.58-56.39,43.71-58.46-4.09-4.55-7.46-9.69-11.62-14.17-14.12-15.22-37.39-21.44-57.53-15.7-5.73,1.63-11.13,4.19-16.04,7.48-4.6,3.09-8.76,6.82-12.34,11.03-6.04,7.1-10.42,15.56-12.45,24.59-1.46,6.52-1.55,12.99-.48,19.24,1.17,6.91,3.74,13.56,7.38,19.75,3.24,5.51,7.33,10.65,12.05,15.28,5.01,4.92,12.06,9.3,20.67,11.93-.56-.18-1.02-.59-1.24-1.13-2.62-6.28-4.04-12.94-4.04-19.85,0-17.38,8.94-33.24,23.64-45.23,2.6-2.12,6.5-.28,6.5,3.08h0c2.11,1.85,2.31,5.1.39,7.15-9.33,9.96-14.79,22.02-14.79,35.01,0,7.2,1.68,14.12,4.77,20.55.66,1.39-.43,2.97-1.97,2.86-1.76-.12-3.49-.32-5.16-.58,9.25,1.44,19.86.87,31.4-2.83-2.3.74-4.57,1.35-6.8,1.85-3.89-6.72-6.04-14.1-6.04-21.86Z"/>
        <path class="cls-2" d="m269.66,217.48c-.43.56-.88,1.11-1.34,1.65.46-.54.91-1.09,1.34-1.65Z"/>
        <path class="cls-2" d="m268.67,171.59c.1.07.19.14.29.21-.1-.07-.19-.14-.29-.21Z"/>
        <path class="cls-2" d="m191.85,244.33c-.47-.13-.93-.26-1.39-.4.46.14.92.27,1.39.4Z"/>
        <path class="cls-2" d="m273.88,175.51c-.93-.92-1.96-1.76-3.08-2.48h-.01s0,0,.01,0c1.12.72,2.15,1.56,3.08,2.48Z"/>
        <path class="cls-2" d="m196.72,245.45c-1.64-.3-3.23-.67-4.77-1.09,1.54.42,3.13.79,4.77,1.09Z"/>
        <path class="cls-4" d="m279.12,186.81c-.02-.25-.04-.5-.07-.75-.11-1.15-.35-2.27-.7-3.35-.86-2.72-2.42-5.18-4.47-7.2-.93-.92-1.96-1.76-3.08-2.48,0,0,0,0-.01,0-.63-.4-1.38-.81-2.04-1.11-.8-.36-3.06-1.24-3.06-1.24-28.56,8.99-48.69,28.11-48.69,52.23,0,7.75,2.15,15.14,6.04,21.86,2.23-.5,4.49-1.11,6.8-1.85.03-.01.07-.02.1-.03,1.52-.49,3.06-1.04,4.62-1.64.04-.01.07-.03.11-.04.71-.28,1.43-.57,2.15-.87.09-.04.18-.08.27-.11,1.52-.64,3.06-1.34,4.61-2.1.11-.05.22-.11.33-.16.65-.32,1.3-.65,1.96-.99.15-.08.3-.16.45-.24,1.52-.8,3.05-1.66,4.59-2.57.18-.1.35-.21.53-.32.6-.36,1.2-.73,1.8-1.11.2-.13.4-.25.6-.38.75-.48,1.51-.97,2.26-1.47.01,0,.02-.01.03-.02.76-.51,1.53-1.04,2.3-1.58.22-.15.43-.31.65-.46.57-.41,1.15-.83,1.73-1.25.23-.17.45-.33.68-.5.77-.58,1.54-1.16,2.32-1.77.67-.52,1.31-1.06,1.95-1.62.4-.36.8-.72,1.19-1.09.83-.79,1.63-1.62,2.4-2.48.29-.32.57-.64.84-.97.46-.54.91-1.09,1.34-1.65.28-.36.56-.73.83-1.1.54-.74,1.06-1.51,1.55-2.28.25-.39.49-.78.72-1.17.47-.79.92-1.59,1.34-2.41s.82-1.64,1.2-2.48c1.13-2.51,2.03-5.12,2.68-7.77.11-.44.21-.89.31-1.33.86-4,1.16-8.09.82-12.12Z"/>
        <path class="cls-4" d="m205.58,243.46c-3.09-6.43-4.77-13.35-4.77-20.55,0-12.99,5.46-25.05,14.79-35.01,1.92-2.05,1.72-5.3-.39-7.15h0c-2.92-2.56-7.31-2.53-10.16.1-12.5,11.55-19.97,26.16-19.97,42.05,0,6.91,1.42,13.57,4.04,19.85.23.54.68.96,1.24,1.13.03.01.07.02.1.03.46.14.92.27,1.39.4.03,0,.06.02.1.03,1.54.42,3.13.79,4.77,1.09.02,0,.05,0,.07.01.52.1,1.05.19,1.59.27.02,0,.05,0,.07.01,1.68.26,3.4.46,5.16.58,1.54.11,2.64-1.47,1.97-2.86Z"/>
      </g>
      <g class="cls-11">
        <path class="cls-4" d="m279.12,186.81c-2.25-2.24-5.35-6.33-10.65-7.76-13.32-3.59-18.86-12.41-21.67-18.78-3.08-7-30.92-32.43-71.28-18.22,4.9-3.29,10.31-5.86,16.04-7.48,20.14-5.74,43.41.48,57.53,15.7,4.16,4.48,7.5,12.32,11.33,17.09,2.55,3.18,6.39,3.13,10.37,5.67,3.6,2.29,6.29,5.72,7.55,9.68.34,1.08.58,2.2.7,3.35.03.25.05.5.07.75Z"/>
      </g>
      <path class="cls-4" d="m228.93,168.53h6.54c1.08,0,1.95.87,1.95,1.95v2.37c0,1.08-.87,1.95-1.95,1.95h-8.91c-1.08,0-1.95-.87-1.95-1.95h0c0-2.39,1.94-4.32,4.32-4.32Z" transform="translate(21.35 -25.51) rotate(6.63)"/>
      <path class="cls-6" d="m201.41,144.19c-.1-.15-.2-.3-.3-.45-4.58-6.76-10.23-12.7-16.72-17.52-.57-.42-1.15-.84-1.76-1.22-2.19-1.4-4.62-2.45-7.13-2.05-3.81.61-6.3,4.25-8.01,7.71-7.39,15-8.59,32.33-7.49,49.01"/>
      <path class="cls-4" d="m199.85,144.5c-2.51,1.91-4.48,3.81-6.68,5.87-3.85,3.58-7.72,7.31-11.5,12.12-2.96-9.16-3.56-18.32-4.42-27.89-.02-.23-.04-.47-.06-.7-.23-2.75-.1-6.05,2.23-7.51.61-.38,1.27-.57,1.96-.62.61.38,1.19.8,1.76,1.22,6.48,4.82,12.13,10.76,16.71,17.52Z"/>
      <g class="cls-12">
        <path class="cls-5" d="m192.78,150.67c-3.85,3.58-8.5,7.53-11.1,12.52-2.96-9.16-3.56-18.32-4.42-27.89,6.6,3.3,12.11,8.81,15.52,15.37Z"/>
      </g>
      <path class="cls-5" d="m273.12,174.81c-2.87-.61-5.69-.37-8.23,1.1-1.41.82-2.7,2-3.03,3.69-.1.51-.08,1.05.08,1.55.58,1.82,2.35,2.21,3.96,2.35,3.68.32,8.35.06,12.39-1.12-.72-2.78-2.25-5.42-5.18-7.57"/>
      <g class="cls-10">
        <path class="cls-5" d="m288.41,272.08c-1.91,3.03-5.39,5.63-9.11,6.95-5.07,1.8-10.58,1.68-15.96,1.55-11.32-.29-22.62-.57-33.93-.85-16.75-.42-33.49-.84-50.24-1.26-4.18-.1-8.35-.21-12.53-.32-23.97-.6-50.19-2.06-67.93-18.17,3.25,4.25,2.1,12.2-2.37,15.95-4.48,3.76-10.82,4.27-16.65,3.84-17.25-1.27-33.66-9.32-46.29-21.13-12.62-11.81-21.61-27.21-27.14-43.58-1.85-5.45-3.32-11.05-4.37-16.74-3.06-16.57-2.55-33.78,2.63-49.77,3.89-12.01,10.57-23.24,19.37-32.27-15.3,37.74-9.95,95.36,15.02,115.44,35.67,28.69,22.6-28.9,22.6-28.9,0,0,25.64-8.55,33.29-47.05,0,0,17.14,30.41,3.91,59.72-2.2,4.88-1.07,10.61,2.82,14.29,8.01,7.58,22.3,18.49,38.01,18.26,0,0,39.35,22.75,98.84,21.52,21.66-.45,38,.78,50.03,2.52Z"/>
      </g>
      <g class="cls-10">
        <path class="cls-5" d="m261.93,225.29c-41.14,32.18-76.58,22.03-92.24,6.67-4.71-4.63-8.81-9.78-12.05-15.28-3.64-6.19-6.21-12.84-7.38-19.75-1.06-6.25-.98-12.72.48-19.24,2.03-9.04,6.41-17.5,12.45-24.59-4.93,35.39,4.43,78.6,47.2,78.6,45.25,0,61.94-27.39,67.96-48.97.34,1.08.58,2.2.7,3.35,1.51,14.54-5.36,30.03-17.12,39.23Z"/>
      </g>
      <g>
        <path class="cls-5" d="m234.87,178.77c-1.19-.25-2.3-.35-3.38-.28-1.08.07-2.11.3-3.04.69-.94.39-1.83.97-2.63,1.69-.81.73-1.52,1.59-2.18,2.62l-.02.03c-.22.35-.69.46-1.04.23-.22-.14-.34-.38-.35-.63-.02-1.47.52-2.93,1.39-4.16.88-1.23,2.11-2.24,3.54-2.85,1.44-.61,3.02-.8,4.51-.57,1.49.23,2.92.86,3.97,1.89.31.31.31.81,0,1.11-.19.2-.46.27-.72.22h-.05Z"/>
        <circle class="cls-5" cx="229.95" cy="181.95" r="5.32"/>
        <ellipse class="cls-4" cx="231.79" cy="180.58" rx="1.14" ry="1.37"/>
        <ellipse class="cls-3" cx="228.82" cy="184.44" rx="1.39" ry="1.09"/>
      </g>
      <ellipse class="cls-4" cx="271.92" cy="177.6" rx="2.44" ry=".77" transform="translate(-9.66 15.75) rotate(-3.26)"/>
    </g>
  </g>
</svg>