<svg xmlns="http://www.w3.org/2000/svg" viewBox="0 0 217.5 32.02"><g id="Capa_2" data-name="Capa 2"><g id="Capa_1-2" data-name="Capa 1"><path d="M113.67,32h-5.86V4.92H97.48V0H124V4.92H113.67Z"/><path d="M207.19,32h-5.86V4.92H191V0h26.5v4.9H207.19Z"/><path d="M26.63,28A16,16,0,1,1,16,0,15.91,15.91,0,0,1,26.62,4L23.74,6.2,22.23,7.33A10.67,10.67,0,1,0,16,26.66a10.58,10.58,0,0,0,6.23-2l1.5,1.13Z"/><path d="M187,28A16,16,0,1,1,176.37,0a15.91,15.91,0,0,1,10.62,4l-2.88,2.16L182.6,7.35a10.67,10.67,0,1,0-6.23,19.33,10.58,10.58,0,0,0,6.23-2l1.5,1.13Z"/><path d="M154.14,10A11.92,11.92,0,0,0,153.4,7a10.62,10.62,0,0,0-1.7-2.95,9.8,9.8,0,0,0-2.6-2.21A13.06,13.06,0,0,0,145.56.5,19.06,19.06,0,0,0,141.1,0a18.73,18.73,0,0,0-4.43.48,12.4,12.4,0,0,0-3.48,1.38,9.94,9.94,0,0,0-2.56,2.21,10.85,10.85,0,0,0-1.69,3A12.9,12.9,0,0,0,128.2,10a25.69,25.69,0,0,0-.22,3.57V32h5.75V23.59h14.89V32h5.75V13.52A25.6,25.6,0,0,0,154.14,10Zm-20.41,7.89V14a13.71,13.71,0,0,1,.8-5.21,5.92,5.92,0,0,1,2.6-3,9.33,9.33,0,0,1,8.08,0,6,6,0,0,1,2.61,3,13.71,13.71,0,0,1,.8,5.21v3.81Z"/><path d="M46.63,0a16,16,0,1,0,16,16A16,16,0,0,0,46.63,0Zm0,26.66A10.67,10.67,0,1,1,57.29,16,10.67,10.67,0,0,1,46.63,26.67Z"/><path d="M91.48,0V32H85.75a.78.78,0,0,1,0-.09c-.18-1.51-2.46-19.51-12.37-24.7V32H67.63V0a18,18,0,0,1,5.74.89C79.08,2.77,83,7.29,85.74,12.31V0Z"/></g></g></svg>