<svg xmlns="http://www.w3.org/2000/svg" viewBox="0 0 137.12 32.05"><g id="Capa_2" data-name="Capa 2"><g id="Capa_1-2" data-name="Capa 1"><path d="M5.86,13.18H20.69V0h5.86V32H20.69V18.08H5.86V32H0V0H5.86Z"/><path d="M103.08,32V14.07a14.87,14.87,0,0,0-.64-4.88,5.18,5.18,0,0,0-2-2.68,6.36,6.36,0,0,0-6.25,0,5.13,5.13,0,0,0-2,2.68,14.33,14.33,0,0,0-.63,4.64V32H85.81V13.84a14.63,14.63,0,0,0-.63-4.65,5.14,5.14,0,0,0-2-2.68,6.35,6.35,0,0,0-6.24,0,5.13,5.13,0,0,0-2,2.68,14.87,14.87,0,0,0-.64,4.88V32H68.55V13.57a28.8,28.8,0,0,1,.19-3.51,14.28,14.28,0,0,1,.64-2.92,11.5,11.5,0,0,1,1.47-3A9.37,9.37,0,0,1,73.12,1.9a10.19,10.19,0,0,1,3-1.41A14.26,14.26,0,0,1,80,0a14.49,14.49,0,0,1,3.87.48A10.47,10.47,0,0,1,87,1.9,9,9,0,0,1,88.7,3.44,9,9,0,0,1,90.43,1.9,10.47,10.47,0,0,1,93.53.49,14.46,14.46,0,0,1,97.39,0a14.28,14.28,0,0,1,3.85.48,10.42,10.42,0,0,1,3.05,1.41,9.33,9.33,0,0,1,2.26,2.26,11.52,11.52,0,0,1,1.48,3,14.43,14.43,0,0,1,.64,2.92,28.69,28.69,0,0,1,.19,3.51V32Z"/><path d="M47.55.05a16,16,0,1,0,16,16A16,16,0,0,0,47.55.05Zm0,26.66A10.67,10.67,0,1,1,58.21,16,10.67,10.67,0,0,1,47.54,26.71Z"/><path d="M137.12,26.14H126.21a10.58,10.58,0,0,1-3.45-.43,3.2,3.2,0,0,1-1.66-1.21,4,4,0,0,1,0-4,3.2,3.2,0,0,1,1.66-1.21A10.16,10.16,0,0,1,126,18.9h11.09V13.1H126a10.45,10.45,0,0,1-3.27-.43,3.2,3.2,0,0,1-1.66-1.21,3.7,3.7,0,0,1-.52-2,3.67,3.67,0,0,1,.52-2,3.2,3.2,0,0,1,1.66-1.21,10.62,10.62,0,0,1,3.45-.44h10.91V0H125.83a22.73,22.73,0,0,0-2.74.15,11.59,11.59,0,0,0-2.35.51,9.59,9.59,0,0,0-2.44,1.21,7.67,7.67,0,0,0-1.88,1.89,8.46,8.46,0,0,0-1.17,2.52,12.6,12.6,0,0,0,0,6.22,8.88,8.88,0,0,0,1.16,2.55,7,7,0,0,0,.73.9,7.86,7.86,0,0,0-.73.91,8.88,8.88,0,0,0-1.16,2.55,11.61,11.61,0,0,0-.39,3.11,11.43,11.43,0,0,0,.39,3.1,8.4,8.4,0,0,0,1.17,2.53,7.63,7.63,0,0,0,1.88,1.88,9.59,9.59,0,0,0,2.44,1.21,12,12,0,0,0,2.35.52,22.85,22.85,0,0,0,2.74.15h11.29Z"/></g></g></svg>