<svg xmlns="http://www.w3.org/2000/svg" viewBox="0 0 87.26 83.51"><defs><style>.cls-1{fill:#fff;}.cls-2{fill:#df482a;}.cls-3{fill:#742118;}</style></defs><g id="Capa_2" data-name="Capa 2"><g id="Capa_1-2" data-name="Capa 1"><path class="cls-1" d="M20.12,10.2C17.17,7,12.05,2.72,7.56,2.72A6.43,6.43,0,0,0,5.75,3C2,4.1,2.13,15.86,4.2,27.68A44.44,44.44,0,0,1,20.12,10.2Z"/><path class="cls-1" d="M81.52,3c-4.85-1.45-11,3.57-14.38,7.23A44.39,44.39,0,0,1,83.07,27.68C85.13,15.86,85.28,4.1,81.52,3Z"/><path class="cls-2" d="M85.23,49.8a36.84,36.84,0,0,0,.43-5.58c0-.44,0-.86,0-1.29,0-.12,0-.24,0-.36a37.55,37.55,0,0,0-.4-4c0-.11,0-.23,0-.34a33.75,33.75,0,0,0-.73-3.49l.49-2.28c1-4.61,3.16-16.25,2-24.22-.55-4-1.91-7-4.66-7.86L81.65.21C73.51-1.57,65,8.48,64,9.66l-.1.13a44.64,44.64,0,0,0-40.55,0l-.11-.13C22.28,8.48,13.76-1.57,5.62.21L5,.37C2.23,1.19.86,4.26.31,8.23c-1.11,8,1.06,19.61,2.05,24.22l.48,2.28a37.1,37.1,0,0,0-.78,3.83c0,.13-.05.26-.07.39-.15,1.06-.26,2.14-.32,3.22,0,.14,0,.27,0,.41,0,.54,0,1.09,0,1.64a37.35,37.35,0,0,0,.67,7v0a21.07,21.07,0,0,0-1.4,3.86,20.48,20.48,0,0,0-.58,3.3,20.67,20.67,0,0,0,.94,7.83,3.69,3.69,0,0,0,1.38,1.89A62.45,62.45,0,0,0,9,72l.18.1c1.61.86,3.27,1.68,4.91,2.42l.2.09c1.4.59,2.38.92,2.76,1l.19.11h.13a2.16,2.16,0,0,0,.66.1,2,2,0,0,0,.55-.08,44.39,44.39,0,0,0,50.06,0l.22,0a2.28,2.28,0,0,0,.63-.09h.14l.18-.11c.43-.14,1.46-.5,2.8-1.06l.13-.06c1.68-.76,3.34-1.58,5-2.44l.19-.1h0a62.48,62.48,0,0,0,6.37-3.87,3.64,3.64,0,0,0,1.35-1.83V66.2a20.47,20.47,0,0,0,.94-7.83,18.37,18.37,0,0,0-.45-2.8,20.54,20.54,0,0,0-1.23-3.72C85,51.17,85.13,50.49,85.23,49.8ZM81.52,3c3.76,1.13,3.61,12.89,1.55,24.71A44.39,44.39,0,0,0,67.14,10.2C70.5,6.54,76.67,1.52,81.52,3ZM49.05,33.91a8.42,8.42,0,0,1,7.08-2,.75.75,0,0,1,.06,1.46,8.84,8.84,0,0,0-4.77,3.26.7.7,0,0,1-.83.21l-1.18-.54A1.43,1.43,0,0,1,49.05,33.91Zm-18.34-2a8.44,8.44,0,0,1,7.09,2,1.43,1.43,0,0,1-.36,2.35l-1.18.54a.7.7,0,0,1-.83-.21,8.84,8.84,0,0,0-4.77-3.26A.75.75,0,0,1,30.71,31.87ZM5.75,3a6.43,6.43,0,0,1,1.81-.25c4.49,0,9.61,4.26,12.56,7.48A44.44,44.44,0,0,0,4.2,27.68C2.13,15.86,2,4.1,5.75,3ZM15.24,72h0c-1.56-.71-3.11-1.47-4.61-2.27l-.18-.09a63.28,63.28,0,0,1-6.26-3.8.92.92,0,0,1-.33-.47h0A17.92,17.92,0,0,1,3,58.59v-.05c.53-6.31,4.65-11.3,8-14.37a9.59,9.59,0,0,1,7.2-2.44l5.23.42s.06,0,.08.07,0,.08,0,.1c-3.4,2.83-9.2,8.82-9.87,17.12A22.42,22.42,0,0,0,16.5,71.93l.41.78C16.47,72.54,15.91,72.32,15.24,72Zm26.53,8c-13-.66-23.19-9-23.19-19.11,0-6.54,4.25-12.31,10.73-15.77A4.17,4.17,0,1,1,34.09,42a20.25,20.25,0,0,1,18.67,0,4.14,4.14,0,1,1,4.78,3.2C64,48.66,68.27,54.43,68.27,61c0,10.23-10.41,18.59-23.5,19.13H43.42C42.87,80.13,42.32,80.11,41.77,80.08ZM83,65.34l0,.06a.92.92,0,0,1-.33.47,64,64,0,0,1-6.26,3.8l-.18.09Q74,70.94,71.65,72l0,0c-.67.28-1.24.5-1.68.67.08-.13.14-.26.21-.38a22.61,22.61,0,0,0,3.07-12.89c-.67-8.3-6.47-14.29-9.87-17.12a.09.09,0,0,1,0-.11c0-.06,0-.06.08-.06l5.22-.42.78,0a9.59,9.59,0,0,1,6.43,2.47c3.38,3.08,7.51,8.08,8,14.42,0,.17,0,.34,0,.51A17.9,17.9,0,0,1,83,65.34Z"/><path class="cls-1" d="M75.82,44.17a9.59,9.59,0,0,0-6.43-2.47l-.78,0-5.22.42s-.06,0-.08.06a.09.09,0,0,0,0,.11c3.4,2.83,9.2,8.82,9.87,17.12a22.72,22.72,0,0,1-3.28,13.27c.44-.17,1-.39,1.68-.67l0,0q2.37-1.08,4.59-2.26l.18-.09a64,64,0,0,0,6.26-3.8A.92.92,0,0,0,83,65.4l0-.06a17.83,17.83,0,0,0,.81-6.75C83.33,52.25,79.2,47.25,75.82,44.17Z"/><path class="cls-1" d="M23.51,42.32s0,0,0-.1-.05-.07-.08-.07l-5.23-.42A9.59,9.59,0,0,0,11,44.17c-3.38,3.08-7.51,8.08-8,14.42a17.92,17.92,0,0,0,.82,6.8h0a.92.92,0,0,0,.33.47,63.28,63.28,0,0,0,6.26,3.8l.18.09c1.5.8,3.05,1.56,4.61,2.27h0c.67.28,1.23.5,1.67.67a22.78,22.78,0,0,1-3.27-13.27C14.31,51.14,20.11,45.15,23.51,42.32Z"/><path class="cls-1" d="M57.54,45.2l-.23,0a4.19,4.19,0,0,1-.5,0,4.14,4.14,0,0,1-3.47-1.87,4,4,0,0,1-.58-1.4,20.25,20.25,0,0,0-18.67,0h0a4,4,0,0,1-.58,1.4A4.14,4.14,0,0,1,30,45.27a4.19,4.19,0,0,1-.5,0l-.23,0C22.83,48.66,18.58,54.43,18.58,61c0,10.15,10.24,18.45,23.19,19.11.59,0,1.18,0,1.77,0h1.23c13.09-.54,23.5-8.9,23.5-19.13C68.27,54.43,64,48.66,57.54,45.2Z"/><path class="cls-3" d="M51.67,62.31c-3,3-6.65.79-7.62.12V59.92h.23a3.44,3.44,0,0,0,.86-.1.6.6,0,0,0,.42-.32,1,1,0,0,1,.93-.6h.11a.55.55,0,0,0,.46-.19,3.82,3.82,0,0,0,.47-4.66l-.87-1.4a3.79,3.79,0,0,0-6.48,0l-.87,1.4a3.83,3.83,0,0,0,.48,4.66.55.55,0,0,0,.46.19h.11a1,1,0,0,1,.93.6.6.6,0,0,0,.41.32,3.57,3.57,0,0,0,.87.1h.23v2.51c-1,.67-4.66,2.84-7.62-.12a.62.62,0,1,0-.88.88,6.06,6.06,0,0,0,4.41,1.87,8.7,8.7,0,0,0,4.71-1.54c2,1.37,6,2.78,9.13-.33a.62.62,0,0,0-.88-.88Z"/><path class="cls-3" d="M56.81,45.27a4.19,4.19,0,0,0,.5,0l.23,0A4.17,4.17,0,1,0,52.76,42a4,4,0,0,0,.58,1.4A4.14,4.14,0,0,0,56.81,45.27Z"/><path class="cls-3" d="M25.9,41.13a4.14,4.14,0,0,0,3.41,4.07l.23,0a4.19,4.19,0,0,0,.5,0,4.14,4.14,0,0,0,3.47-1.87,4,4,0,0,0,.58-1.4h0a3.21,3.21,0,0,0,.07-.43,3.25,3.25,0,0,0,0-.44A4.15,4.15,0,0,0,30,37h0a4.12,4.12,0,0,0-2,.5l-.34.21A4.12,4.12,0,0,0,25.9,41.13Z"/><path class="cls-1" d="M49.41,36.26l1.18.54a.7.7,0,0,0,.83-.21,8.84,8.84,0,0,1,4.77-3.26.75.75,0,0,0-.06-1.46,8.42,8.42,0,0,0-7.08,2A1.43,1.43,0,0,0,49.41,36.26Z"/><path class="cls-1" d="M30.66,33.33a8.84,8.84,0,0,1,4.77,3.26.7.7,0,0,0,.83.21l1.18-.54a1.43,1.43,0,0,0,.36-2.35,8.44,8.44,0,0,0-7.09-2A.75.75,0,0,0,30.66,33.33Z"/></g></g></svg>