<svg xmlns="http://www.w3.org/2000/svg" viewBox="0 0 287.31 53.75"><defs><style>.cls-1{fill:#742118;}.cls-2{fill:#fff;}.cls-3{fill:#df482a;}</style></defs><g id="Capa_2" data-name="Capa 2"><g id="Capa_1-2" data-name="Capa 1"><path class="cls-1" d="M10.5,5.41V31.2a8.52,8.52,0,0,0,1.9,5.95A7.19,7.19,0,0,0,18,39.24a7.39,7.39,0,0,0,5.65-2.09,8.36,8.36,0,0,0,2-5.95V5.41H36.1V31.13a18.38,18.38,0,0,1-2.45,9.77,15.74,15.74,0,0,1-6.6,6,20.81,20.81,0,0,1-9.24,2,20.24,20.24,0,0,1-9.12-2,14.91,14.91,0,0,1-6.36-6A19.29,19.29,0,0,1,0,31.13V5.41Z"/><path class="cls-1" d="M69.87,48.51l-8.78-13.2-7.74,13.2H41.44L55.26,26.59,41.14,5.41H53.35l8.66,13,7.61-13H81.54L67.84,27.14,82.09,48.51Z"/><path class="cls-1" d="M149.19,5.41v43.1h-10.5V22.66l-9.63,25.85h-8.48l-9.7-25.91V48.51h-10.5V5.41h12.41l12.09,29.84,12-29.84Z"/><path class="cls-1" d="M206,15.51a19.72,19.72,0,0,1,7.7-7.8A22.41,22.41,0,0,1,224.9,4.92,21.48,21.48,0,0,1,238,9a19.45,19.45,0,0,1,7.3,11H233.8a9.34,9.34,0,0,0-3.65-4.11,10.31,10.31,0,0,0-5.38-1.41,10,10,0,0,0-7.85,3.37q-3,3.38-3,9t3,9a10,10,0,0,0,7.85,3.38,10.31,10.31,0,0,0,5.38-1.41,9.31,9.31,0,0,0,3.65-4.12h11.54a19.32,19.32,0,0,1-7.3,11,21.53,21.53,0,0,1-13.14,4A22.31,22.31,0,0,1,213.69,46a19.81,19.81,0,0,1-7.7-7.76,22.92,22.92,0,0,1-2.77-11.36A23.09,23.09,0,0,1,206,15.51Z"/><path class="cls-1" d="M273.62,40.9H257.53L255,48.51H244l15.6-43.1h12.16l15.59,43.1H276.2Zm-2.7-8.11L265.58,17,260.3,32.79Z"/><circle class="cls-1" cx="176.21" cy="26.88" r="26.88"/><path class="cls-2" d="M151.1,21a1.53,1.53,0,0,1,.3,0h.06a1.51,1.51,0,0,1,.3,0h0a1.34,1.34,0,0,1,.27.07h0l.28.13h0a2.54,2.54,0,0,1,.52.41h0a2.49,2.49,0,0,1,.41.59h0a2.32,2.32,0,0,1,.93-.54l.08,0,.17,0,.15,0h.44a1.53,1.53,0,0,1,.29.07,2,2,0,0,1,1.16,1.11,1.55,1.55,0,0,1,.08.23,1.37,1.37,0,0,1,.07.34.77.77,0,0,1,0,.15.92.92,0,0,1,0,.16,3.62,3.62,0,0,1,0,.46h0a1.91,1.91,0,0,1,.75.12h0a1.68,1.68,0,0,1,.3.15l0,0a2.35,2.35,0,0,1,.29.26,1.83,1.83,0,0,1,.28.46c.09-.55.2-1.1.34-1.64l-.21-1c-.63-2.95-2.41-12.67,1.12-13.72s7.39,3.45,7.82,4l0,.06a19,19,0,0,1,17.34,0l.05-.06c.42-.52,4.26-5,7.82-4s1.75,10.77,1.12,13.72l-.21,1a14.76,14.76,0,0,1,.31,1.5c0,.05,0,.09,0,.14a1.83,1.83,0,0,1,.28-.46,1.87,1.87,0,0,1,.3-.26l.05,0a1.59,1.59,0,0,1,.29-.15h0a1.88,1.88,0,0,1,.75-.12,2.36,2.36,0,0,1,0-.46v-.16c0-.05,0-.1,0-.15s0-.23.07-.34a1.55,1.55,0,0,1,.08-.23,2,2,0,0,1,.94-1,1,1,0,0,1,.22-.09h0a1.63,1.63,0,0,1,.3-.07h.44l.14,0,.17,0,.09,0a2.35,2.35,0,0,1,.92.54h0a2.85,2.85,0,0,1,.42-.59h0a2.29,2.29,0,0,1,.52-.41h0l.28-.13h0a1.34,1.34,0,0,1,.27-.07h0l.29,0H201a1.55,1.55,0,0,1,.31,0h0a25.8,25.8,0,0,0-50.26,0h0Z"/><path class="cls-2" d="M166.15,13.09c-1.26-1.38-3.45-3.2-5.37-3.2A2.54,2.54,0,0,0,160,10c-1.61.48-1.55,5.51-.66,10.57A19,19,0,0,1,166.15,13.09Z"/><path class="cls-2" d="M192.42,10c-2.08-.62-4.72,1.52-6.15,3.09a19,19,0,0,1,6.81,7.48C194,15.51,194,10.48,192.42,10Z"/><path class="cls-2" d="M194.41,29.06a3.59,3.59,0,0,1,.34-1.45h0l-.08-.06-.17-.17a3.19,3.19,0,0,1-.32-.43s0,.1,0,.15,0,.37,0,.55A15.73,15.73,0,0,1,194,30c0,.3-.1.59-.16.88a9,9,0,0,1,.52,1.59c.25-.43.49-.86.7-1.31a3.59,3.59,0,0,1-.65-1.92C194.42,29.2,194.41,29.13,194.41,29.06Z"/><path class="cls-2" d="M178.68,24.24l.51.23a.28.28,0,0,0,.35-.09,3.82,3.82,0,0,1,2-1.4.32.32,0,0,0,0-.62,3.59,3.59,0,0,0-3,.88A.6.6,0,0,0,178.68,24.24Z"/><path class="cls-2" d="M170.66,23a3.82,3.82,0,0,1,2,1.4.28.28,0,0,0,.35.09l.51-.23a.6.6,0,0,0,.15-1,3.58,3.58,0,0,0-3-.88A.32.32,0,0,0,170.66,23Z"/><path class="cls-2" d="M158.52,30.62a15.37,15.37,0,0,1-.29-3c0-.23,0-.47,0-.7a2.35,2.35,0,0,1-.36.47,1.59,1.59,0,0,1-.13.13l0,0-.08.05a3.59,3.59,0,0,1,.34,1.45c0,.08,0,.15,0,.22a3.59,3.59,0,0,1-.65,1.91c.18.37.38.74.58,1.09a8.9,8.9,0,0,1,.6-1.64Z"/><path class="cls-3" d="M206.47,27.18a1.73,1.73,0,0,0-.8-.93l-.08-.05h0l-.26-.1h0a2.74,2.74,0,0,0,.3-.74h0a2.51,2.51,0,0,0,0-.27.77.77,0,0,0,0-.15,1.77,1.77,0,0,0,0-.23,1.1,1.1,0,0,0,0-.18l0-.2-.06-.2-.06-.16a1.59,1.59,0,0,0-.13-.22.75.75,0,0,0-.07-.12,1.88,1.88,0,0,0-.27-.3l-.2-.15-.06,0-.17-.09-.06,0-.22-.07h0l-.26-.05h0l-.25,0h0a2.39,2.39,0,0,0-.82.16h0a3.1,3.1,0,0,0-.08-.42h0a2.67,2.67,0,0,0-.13-.4s0,0,0,0a1.14,1.14,0,0,0-.1-.19l-.08-.12a.56.56,0,0,0-.05-.08l-.12-.15,0,0a1.1,1.1,0,0,0-.16-.15h0a1.82,1.82,0,0,0-.81-.4h0a1.55,1.55,0,0,0-.31,0H201a1.37,1.37,0,0,0-.29,0h0a1.34,1.34,0,0,0-.27.07h0l-.28.13h0a2.29,2.29,0,0,0-.52.41h0a2.85,2.85,0,0,0-.42.59h0a2.35,2.35,0,0,0-.92-.54l-.09,0-.17,0-.14,0h-.44a.7.7,0,0,0-.14,0l-.16,0h0a1,1,0,0,0-.22.09,2,2,0,0,0-.94,1,1.55,1.55,0,0,0-.08.23c0,.11,0,.23-.07.34s0,.1,0,.15v.16a2.36,2.36,0,0,0,0,.46,1.88,1.88,0,0,0-.75.12h0a1.59,1.59,0,0,0-.29.15l-.05,0a1.87,1.87,0,0,0-.3.26,1.83,1.83,0,0,0-.28.46s0-.09,0-.14a14.76,14.76,0,0,0-.31-1.5l.21-1c.42-2,1.35-6.95.87-10.36-.23-1.7-.82-3-2-3.36l-.28-.07c-3.48-.77-7.13,3.54-7.54,4l-.05.06a19,19,0,0,0-17.34,0l0-.06c-.41-.5-4.06-4.8-7.54-4l-.28.07c-1.17.35-1.76,1.66-2,3.36-.47,3.41.46,8.39.88,10.36l.21,1c-.14.54-.25,1.09-.34,1.64a1.83,1.83,0,0,0-.28-.46,2.35,2.35,0,0,0-.29-.26l0,0a1.68,1.68,0,0,0-.3-.15h0a1.91,1.91,0,0,0-.75-.12h0a3.62,3.62,0,0,0,0-.46.92.92,0,0,0,0-.16.77.77,0,0,0,0-.15,1.37,1.37,0,0,0-.07-.34,1.55,1.55,0,0,0-.08-.23,2,2,0,0,0-1.16-1.11l-.16,0-.13,0h-.44l-.15,0-.17,0-.08,0a2.32,2.32,0,0,0-.93.54h0a2.49,2.49,0,0,0-.41-.59h0a2.54,2.54,0,0,0-.52-.41h0l-.28-.13h0a1.34,1.34,0,0,0-.27-.07h0a1.51,1.51,0,0,0-.3,0h-.06a1.53,1.53,0,0,0-.3,0h0a1.82,1.82,0,0,0-.81.4h0c-.05.05-.1.09-.15.15s0,0,0,0a.76.76,0,0,0-.11.14l-.07.09-.07.11c0,.06-.07.13-.1.2v0a2.7,2.7,0,0,0-.14.4h0a2,2,0,0,0-.07.42h0a2.4,2.4,0,0,0-.83-.16h0l-.24,0h0l-.26.05h0l-.21.08-.07,0-.16.09-.07,0-.2.15h0a2.44,2.44,0,0,0-.27.29.75.75,0,0,0-.07.12.94.94,0,0,0-.12.22.52.52,0,0,0-.06.16,1.59,1.59,0,0,0-.07.2l0,.2c0,.06,0,.12,0,.19v.22s0,.1,0,.15a2,2,0,0,0,0,.26v0a2.5,2.5,0,0,0,.28.71h0l-.26.1h0l0,0a1.72,1.72,0,0,0-.84,1h0a1.6,1.6,0,0,0,0,.21l0,.12v.19c0,.05,0,.09,0,.14a2,2,0,0,0,0,.24.28.28,0,0,0,0,.09,1.75,1.75,0,0,0,.12.32,2.16,2.16,0,0,0,.53.67,2.44,2.44,0,0,0,.79.44h0l.17,0a3.59,3.59,0,0,0,3.54,3.71h.16a2.67,2.67,0,0,0,.56-.06l.2-.06c.52-.2,1.21-.44,1.43-.49a14.75,14.75,0,0,1,1.5-.09l.21,0a3.52,3.52,0,0,0,1.42-.63,3.2,3.2,0,0,0,.79-.81,3.59,3.59,0,0,0,.65-1.91c0-.07,0-.14,0-.22a3.59,3.59,0,0,0-.34-1.45l.08-.05,0,0a1.59,1.59,0,0,0,.13-.13,2.35,2.35,0,0,0,.36-.47c0,.23,0,.47,0,.7a15.37,15.37,0,0,0,.29,3v0a8.9,8.9,0,0,0-.6,1.64,8.27,8.27,0,0,0-.25,1.42,8.67,8.67,0,0,0,.41,3.35,1.57,1.57,0,0,0,.58.81,29.25,29.25,0,0,0,2.73,1.66l.07,0c.69.36,1.41.72,2.11,1l.08,0c.6.25,1,.4,1.18.45l.09.05H165a.9.9,0,0,0,.28,0,1,1,0,0,0,.24,0,19,19,0,0,0,21.41,0h.1a1.26,1.26,0,0,0,.27,0h.06l.08-.05c.18-.06.62-.21,1.19-.45l.06,0c.71-.32,1.43-.68,2.12-1l.08-.05h0a27,27,0,0,0,2.72-1.66,1.57,1.57,0,0,0,.58-.78v0a8.67,8.67,0,0,0,.41-3.35,9.39,9.39,0,0,0-.2-1.2,9,9,0,0,0-.52-1.59c.06-.29.11-.58.16-.88a15.73,15.73,0,0,0,.18-2.39c0-.18,0-.37,0-.55s0-.1,0-.15a3.19,3.19,0,0,0,.32.43l.17.17.08.06h0a3.59,3.59,0,0,0-.34,1.45c0,.07,0,.14,0,.21a3.59,3.59,0,0,0,.65,1.92,3.38,3.38,0,0,0,.79.81,3.62,3.62,0,0,0,1.43.63l.2,0a14.79,14.79,0,0,1,1.51.09c.22,0,.91.29,1.42.49l.2.06a2.76,2.76,0,0,0,.57.06h.15a3.49,3.49,0,0,0,2.93-1.57,3.55,3.55,0,0,0,.61-2.14l.06,0a.53.53,0,0,0,.12,0h0a2.27,2.27,0,0,0,1.31-1.11,1.78,1.78,0,0,0,.1-1.31Zm-27.94-3.94a3.59,3.59,0,0,1,3-.88.32.32,0,0,1,0,.62,3.82,3.82,0,0,0-2,1.4.28.28,0,0,1-.35.09l-.51-.23A.6.6,0,0,1,178.53,23.24Zm-7.85-.88a3.58,3.58,0,0,1,3,.88.6.6,0,0,1-.15,1l-.51.23a.28.28,0,0,1-.35-.09,3.82,3.82,0,0,0-2-1.4A.32.32,0,0,1,170.68,22.36ZM160,10a2.54,2.54,0,0,1,.78-.11c1.92,0,4.11,1.82,5.37,3.2a19,19,0,0,0-6.81,7.48C158.45,15.51,158.39,10.48,160,10Zm3.38,24.16a9.6,9.6,0,0,0,1.22,5.34l.18.33-.72-.28h0c-.66-.3-1.33-.63-2-1l-.07,0a27,27,0,0,1-2.68-1.62.35.35,0,0,1-.14-.2h0a7.58,7.58,0,0,1-.35-2.91v0a9.85,9.85,0,0,1,3.43-6.15,4.12,4.12,0,0,1,3.08-1l2.24.18s0,0,0,0,0,0,0,0C166.15,28,163.67,30.6,163.38,34.16ZM176.69,43h-.57c-.24,0-.47,0-.71,0-5.54-.28-9.92-3.83-9.92-8.17,0-2.8,1.82-5.27,4.59-6.75a1.77,1.77,0,1,1,2.09-1.74,2.21,2.21,0,0,1,0,.37,8.69,8.69,0,0,1,8,0,2.21,2.21,0,0,1,0-.37,1.78,1.78,0,1,1,2.09,1.74c2.77,1.48,4.59,3.95,4.59,6.75C186.75,39.19,182.3,42.76,176.69,43Zm16.37-6.31v0a.36.36,0,0,1-.15.19,25.2,25.2,0,0,1-2.68,1.63l-.07,0c-.63.34-1.29.66-2,1h0l-.72.28.09-.16a9.67,9.67,0,0,0,1.31-5.51c-.29-3.56-2.77-6.12-4.22-7.33,0,0,0,0,0,0s0,0,0,0l2.24-.18h.33A4.1,4.1,0,0,1,190,27.62a9.83,9.83,0,0,1,3.43,6.17c0,.07,0,.15,0,.22A7.58,7.58,0,0,1,193.06,36.68Zm0-16.11a19,19,0,0,0-6.81-7.48c1.43-1.57,4.07-3.71,6.15-3.09C194,10.48,194,15.51,193.08,20.57Z"/><path class="cls-2" d="M190,27.62a4.1,4.1,0,0,0-2.75-1.05h-.33l-2.24.18s0,0,0,0,0,0,0,0c1.45,1.21,3.93,3.77,4.22,7.33a9.71,9.71,0,0,1-1.4,5.67l.72-.28h0c.68-.31,1.34-.63,2-1l.07,0a25.2,25.2,0,0,0,2.68-1.63.36.36,0,0,0,.15-.19v0a7.46,7.46,0,0,0,.35-2.89A9.83,9.83,0,0,0,190,27.62Z"/><path class="cls-2" d="M167.6,26.83s0,0,0,0,0,0,0,0l-2.24-.18a4.12,4.12,0,0,0-3.08,1,9.83,9.83,0,0,0-3.43,6.17,7.58,7.58,0,0,0,.35,2.91h0a.35.35,0,0,0,.14.2A27,27,0,0,0,162,38.53l.07,0c.64.34,1.31.67,2,1h0l.72.28a9.71,9.71,0,0,1-1.4-5.67C163.67,30.6,166.15,28,167.6,26.83Z"/><path class="cls-2" d="M182.16,28.06l-.1,0h-.21a1.77,1.77,0,0,1-1.74-1.4,8.69,8.69,0,0,0-8,0h0a1.78,1.78,0,0,1-.25.6,1.75,1.75,0,0,1-1.48.8h-.22s-.93-.16-.1,0c-2.77,1.48-4.59,3.95-4.59,6.75,0,4.34,4.38,7.89,9.92,8.17l.76,0h.52c5.61-.23,10.06-3.8,10.06-8.18C186.75,32,184.93,29.54,182.16,28.06Z"/><path class="cls-1" d="M179.65,35.38a2.52,2.52,0,0,1-3.26.06V34.36h.09a1.58,1.58,0,0,0,.38,0,.26.26,0,0,0,.17-.14.44.44,0,0,1,.4-.26h0a.26.26,0,0,0,.2-.08,1.65,1.65,0,0,0,.2-2l-.37-.6a1.64,1.64,0,0,0-2.78,0l-.37.6a1.65,1.65,0,0,0,.2,2,.27.27,0,0,0,.2.08h.05a.44.44,0,0,1,.4.26.26.26,0,0,0,.17.14,1.58,1.58,0,0,0,.38,0h.09v1.08a2.52,2.52,0,0,1-3.26-.06.27.27,0,0,0-.37,0,.26.26,0,0,0,0,.38,2.58,2.58,0,0,0,1.88.8,3.7,3.7,0,0,0,2-.66,3,3,0,0,0,3.9-.14.26.26,0,0,0,0-.38A.27.27,0,0,0,179.65,35.38Z"/><path class="cls-1" d="M181.85,28.09h.21l.1,0a1.77,1.77,0,1,0-2.09-1.74,2.21,2.21,0,0,0,0,.37,1.77,1.77,0,0,0,1.74,1.4Z"/><path class="cls-1" d="M168.62,26.32a1.76,1.76,0,0,0,1.46,1.74l.1,0h.22a1.75,1.75,0,0,0,1.48-.8,1.78,1.78,0,0,0,.25-.6h0l0-.18c0-.06,0-.13,0-.19a1.77,1.77,0,0,0-1.77-1.77h0a1.84,1.84,0,0,0-.85.21l-.15.09A1.78,1.78,0,0,0,168.62,26.32Z"/><path class="cls-2" d="M198.22,25.33h0a1.17,1.17,0,0,0,.45-1.54,1.65,1.65,0,0,0-.22-.44,1,1,0,0,0-1.08-.5c-.49.16-.7.86-.47,1.54S197.73,25.49,198.22,25.33Z"/><path class="cls-2" d="M200.58,24.76c.51.1,1-.4,1.18-1.11s-.16-1.37-.67-1.47-1,.39-1.17,1.11S200.08,24.66,200.58,24.76Z"/><path class="cls-2" d="M204.12,25.81a1.16,1.16,0,0,0,.16-1.6,1.39,1.39,0,0,0-1.73,2C202.94,26.53,203.64,26.36,204.12,25.81Z"/><path class="cls-2" d="M205.37,27.56c-.12-.36-.62-.51-1.12-.34s-.81.6-.69,1,.62.51,1.12.34S205.49,27.91,205.37,27.56Z"/><path class="cls-2" d="M196.58,26.79a1,1,0,0,0-1.43-1.26c-.25.28-.13.79.27,1.14S196.34,27.07,196.58,26.79Z"/><path class="cls-2" d="M203.34,28.48,202,26.43a2.41,2.41,0,0,0-3.4-.67l-.52.36-1.49,1a2.41,2.41,0,0,0-.06,3.92,2.37,2.37,0,0,0,1,.42,13.66,13.66,0,0,1,1.7.12,15.92,15.92,0,0,1,1.63.54A2.41,2.41,0,0,0,203.34,28.48Z"/><path class="cls-2" d="M154.18,25.32h0c.48.16,1.07-.26,1.3-.95s0-1.38-.46-1.54a1,1,0,0,0-1.08.5,2,2,0,0,0-.23.44A1.18,1.18,0,0,0,154.18,25.32Z"/><path class="cls-2" d="M151.83,24.76c.51-.1.81-.76.67-1.47s-.67-1.21-1.18-1.11-.8.76-.66,1.47S151.33,24.86,151.83,24.76Z"/><path class="cls-2" d="M149.87,26.19a1.39,1.39,0,0,0-1.73-2,1.16,1.16,0,0,0,.16,1.6C148.78,26.36,149.48,26.53,149.87,26.19Z"/><path class="cls-2" d="M148.86,28.17c.12-.35-.19-.78-.69-1s-1,0-1.12.34.19.78.68,1S148.74,28.53,148.86,28.17Z"/><path class="cls-2" d="M156.1,25.65a.86.86,0,0,0-.27,1.14,1,1,0,0,0,1.44-1.26A.86.86,0,0,0,156.1,25.65Z"/><path class="cls-2" d="M155.8,27.15l-1.48-1-.52-.36a2.41,2.41,0,0,0-3.4.67l-1.32,2.05a2.41,2.41,0,0,0,2.49,3.67,15.52,15.52,0,0,1,1.62-.54,13.91,13.91,0,0,1,1.71-.12,2.37,2.37,0,0,0,1-.42A2.41,2.41,0,0,0,155.8,27.15Z"/></g></g></svg>