<svg xmlns="http://www.w3.org/2000/svg" viewBox="0 0 287.31 53.88"><defs><style>.cls-1{fill:#742118;}.cls-2{fill:none;}.cls-3,.cls-4{fill:#fff;}.cls-3{stroke:#fff;stroke-miterlimit:10;}.cls-5{fill:#df482a;}</style></defs><g id="Capa_2" data-name="Capa 2"><g id="Capa_1-2" data-name="Capa 1"><path class="cls-1" d="M10.5,5.47V31.26a8.51,8.51,0,0,0,1.9,5.95A7.16,7.16,0,0,0,18,39.3a7.35,7.35,0,0,0,5.65-2.09,8.34,8.34,0,0,0,2-5.95V5.47H36.1V31.2A18.36,18.36,0,0,1,33.65,41a15.83,15.83,0,0,1-6.6,6,20.81,20.81,0,0,1-9.24,2,20.24,20.24,0,0,1-9.12-2,14.93,14.93,0,0,1-6.36-6A19.28,19.28,0,0,1,0,31.2V5.47Z"/><path class="cls-1" d="M69.87,48.57l-8.78-13.2-7.74,13.2H41.44L55.26,26.65,41.14,5.47H53.35l8.66,13,7.61-13H81.54L67.84,27.21,82.09,48.57Z"/><path class="cls-1" d="M149.19,5.47v43.1h-10.5V22.72l-9.63,25.85h-8.48l-9.7-25.91V48.57h-10.5V5.47h12.41l12.09,29.84,12-29.84Z"/><path class="cls-1" d="M206,15.57a19.78,19.78,0,0,1,7.7-7.8A22.41,22.41,0,0,1,224.9,5,21.48,21.48,0,0,1,238,9a19.49,19.49,0,0,1,7.3,11H233.8A9.34,9.34,0,0,0,230.15,16a10.31,10.31,0,0,0-5.38-1.41,10,10,0,0,0-7.85,3.37c-2,2.26-3,5.26-3,9s1,6.77,3,9a10,10,0,0,0,7.85,3.37A10.31,10.31,0,0,0,230.15,38a9.34,9.34,0,0,0,3.65-4.11h11.54a19.35,19.35,0,0,1-7.3,11,21.59,21.59,0,0,1-13.14,4,22.31,22.31,0,0,1-11.21-2.8,19.81,19.81,0,0,1-7.7-7.76A22.92,22.92,0,0,1,203.22,27,23.09,23.09,0,0,1,206,15.57Z"/><path class="cls-1" d="M273.62,41H257.53L255,48.57H244l15.6-43.1h12.16l15.59,43.1H276.2Zm-2.7-8.11-5.34-15.78L260.3,32.85Z"/><path class="cls-2" d="M148.79,28.24c.12-.36-.18-.79-.68-1s-1,0-1.13.34.19.78.69.95A.85.85,0,0,0,148.79,28.24Z"/><path class="cls-2" d="M149.81,26.25a1.18,1.18,0,0,0-.17-1.61,1.17,1.17,0,0,0-1.57-.38,1.18,1.18,0,0,0,.17,1.61C148.72,26.42,149.42,26.59,149.81,26.25Z"/><path class="cls-2" d="M151.78,24.82c.51-.1.8-.76.66-1.48s-.67-1.21-1.17-1.11-.81.76-.67,1.48S151.27,24.92,151.78,24.82Z"/><path class="cls-3" d="M204.18,25.87a1.18,1.18,0,0,0,.17-1.61.92.92,0,0,0-1,0c-.08.71-.12,1.44-.13,2.18A1.49,1.49,0,0,0,204.18,25.87Z"/><path class="cls-3" d="M203.4,28.55l-.14-.22c0,.9.14,1.77.26,2.62A2.36,2.36,0,0,0,203.4,28.55Z"/><path class="cls-4" d="M204.75,28.57c.5-.17.81-.59.69-.95s-.63-.51-1.13-.34-.81.6-.68,1A.85.85,0,0,0,204.75,28.57Z"/><path class="cls-2" d="M151.27,22.23c-.51.1-.81.76-.67,1.48s.67,1.21,1.18,1.11.8-.76.66-1.48S151.77,22.13,151.27,22.23Z"/><path class="cls-2" d="M149.81,26.25a1.18,1.18,0,0,0-.17-1.61,1.52,1.52,0,0,0-.45-.36V26.4A.81.81,0,0,0,149.81,26.25Z"/><path class="cls-3" d="M148.07,24.26a1.18,1.18,0,0,0,.17,1.61,1.54,1.54,0,0,0,.95.53V24.28A1,1,0,0,0,148.07,24.26Z"/><path class="cls-3" d="M149.19,31.4V28.27l-.17.28A2.39,2.39,0,0,0,149.19,31.4Z"/><path class="cls-1" d="M176.21,0a27,27,0,0,0-26.5,22.09l0-.05.07-.11.07-.09a1.34,1.34,0,0,1,.11-.14s0,0,0,0l.15-.15h0a1.8,1.8,0,0,1,.82-.4h0a25.86,25.86,0,0,1,50.38,0h0a1.82,1.82,0,0,1,.81.4h0a1.1,1.1,0,0,1,.16.15l0,0,.12.15a.56.56,0,0,1,.05.08.83.83,0,0,1,.08.12l0,.07A27,27,0,0,0,176.21,0Z"/><path class="cls-1" d="M175.85,35.52c-.42.28-2,1.21-3.26-.05a.26.26,0,0,0-.38,0,.25.25,0,0,0,0,.37,2.59,2.59,0,0,0,1.89.8,3.81,3.81,0,0,0,2-.65,3,3,0,0,0,3.91-.15.25.25,0,0,0,0-.37.26.26,0,0,0-.38,0c-1.26,1.26-2.84.33-3.26.05V34.44h.09a1.58,1.58,0,0,0,.38,0,.26.26,0,0,0,.17-.14.45.45,0,0,1,.4-.26h0a.28.28,0,0,0,.2-.08,1.63,1.63,0,0,0,.2-2l-.37-.6a1.63,1.63,0,0,0-2.78,0l-.37.6a1.63,1.63,0,0,0,.2,2,.28.28,0,0,0,.2.08h.05a.45.45,0,0,1,.4.26.26.26,0,0,0,.17.14,1.58,1.58,0,0,0,.38,0h.09Z"/><path class="cls-1" d="M170.38,24.61a1.77,1.77,0,0,0-.33,3.51l.12,0,.21,0a1.79,1.79,0,0,0,1.49-.8,1.86,1.86,0,0,0,.25-.6h0a2.33,2.33,0,0,0,0-.38A1.78,1.78,0,0,0,170.38,24.61Z"/><path class="cls-1" d="M180.12,26.76a1.86,1.86,0,0,0,.25.6,1.79,1.79,0,0,0,1.49.8l.21,0h.1a1.77,1.77,0,1,0-2.09-1.75,2.33,2.33,0,0,0,0,.38Z"/><path class="cls-1" d="M201.25,33.43a3.68,3.68,0,0,1-.57-.06l-.2-.06a13.7,13.7,0,0,0-1.43-.49,14.79,14.79,0,0,0-1.51-.09l-.2,0a3.66,3.66,0,0,1-1.44-.63,3.52,3.52,0,0,1-.78-.81c-.22.44-.46.88-.7,1.31a7.52,7.52,0,0,1,.19,1.2,8.93,8.93,0,0,1-.4,3.36v0a1.55,1.55,0,0,1-.58.78,28,28,0,0,1-2.73,1.67h0l-.08,0c-.69.37-1.41.72-2.13,1.05l-.05,0c-.58.24-1,.4-1.2.46l-.08,0h-.06a.84.84,0,0,1-.27,0h-.09a19,19,0,0,1-21.47,0,.85.85,0,0,1-.23,0,1,1,0,0,1-.29-.05h-.05l-.08,0c-.17-.06-.59-.2-1.19-.45l-.08,0c-.7-.32-1.42-.67-2.11-1l-.08,0a26.53,26.53,0,0,1-2.73-1.67,1.51,1.51,0,0,1-.59-.81,8.86,8.86,0,0,1-.4-3.35,7.94,7.94,0,0,1,.25-1.42c-.2-.36-.4-.73-.58-1.1a3.5,3.5,0,0,1-2.22,1.45l-.21,0a14.75,14.75,0,0,0-1.5.09,12.27,12.27,0,0,0-1.43.49l-.2.06a3.68,3.68,0,0,1-.57.06H151a3.31,3.31,0,0,1-1-.16,26.94,26.94,0,0,0,52.36,0,3.31,3.31,0,0,1-1,.16Z"/><path class="cls-5" d="M206.54,27.25a1.72,1.72,0,0,0-.8-.94l-.09,0h0l-.26-.1h0a2.74,2.74,0,0,0,.3-.74h0a2.34,2.34,0,0,0,0-.26.77.77,0,0,0,0-.15v-.23c0-.06,0-.12,0-.19l0-.19-.06-.21-.06-.15-.13-.23a.41.41,0,0,0-.07-.11,1.93,1.93,0,0,0-.27-.3,1.66,1.66,0,0,0-.21-.16l-.06,0a.65.65,0,0,0-.16-.09l-.07,0L204.4,23h0a1.1,1.1,0,0,0-.26-.06h0l-.24,0h0a2.4,2.4,0,0,0-.82.17h0a2.63,2.63,0,0,0-.07-.42h0c0-.14-.09-.27-.14-.4l0,0-.06-.12,0-.07a.83.83,0,0,0-.08-.12.56.56,0,0,0-.05-.08l-.12-.15,0,0a1.1,1.1,0,0,0-.16-.15h0a1.82,1.82,0,0,0-.81-.4h0l-.31,0H201a1.51,1.51,0,0,0-.3,0h0a1.34,1.34,0,0,0-.27.07h0l-.28.13h0a2.54,2.54,0,0,0-.52.41h0a2.85,2.85,0,0,0-.42.59h0a2.28,2.28,0,0,0-.92-.54l-.09,0-.17,0-.14,0h-.44a.7.7,0,0,0-.14,0l-.16,0h0a.85.85,0,0,0-.22.09,1.92,1.92,0,0,0-.94,1l-.09.24a3.4,3.4,0,0,0-.07.34c0,.05,0,.1,0,.15a.81.81,0,0,0,0,.16,3.62,3.62,0,0,0,0,.46,1.74,1.74,0,0,0-.75.12h0a1.64,1.64,0,0,0-.29.16l0,0a1.2,1.2,0,0,0-.29.26,1.49,1.49,0,0,0-.29.46c0-.05,0-.1,0-.14a14.76,14.76,0,0,0-.31-1.5l.21-1c0-.16.07-.35.11-.54l0-.17c0-.2.08-.41.13-.63v-.1c0-.22.09-.45.13-.7,0-.09,0-.18,0-.27s.08-.45.11-.68a2.89,2.89,0,0,0,0-.29c0-.24.07-.48.1-.72s0-.24,0-.36.05-.45.08-.68,0-.29,0-.43l.06-.7,0-.41,0-.65c0-.16,0-.31,0-.47s0-.45,0-.68V13.8c0-.21,0-.42,0-.63l0-.39c0-.17,0-.34-.05-.51l0-.13a2.87,2.87,0,0,0,0-.31c0-.21-.09-.42-.14-.61s0-.14,0-.21-.14-.4-.22-.59l-.09-.19a3.8,3.8,0,0,0-.32-.52s0,0,0,0a2.7,2.7,0,0,0-.42-.41l-.13-.09a2,2,0,0,0-.53-.26l-.28-.07-.18,0a2.33,2.33,0,0,0-.37,0h-.66l-.29,0-.37.07-.27.07-.38.11-.26.1-.37.16-.25.12-.36.19-.23.14c-.12.07-.24.14-.35.22s-.15.1-.22.14l-.34.24-.2.16-.31.24-.18.16-.29.24-.17.16-.26.24-.15.15-.23.22-.12.13a1.75,1.75,0,0,0-.19.2l-.13.13-.13.14-.13.16-.06.06-.11.14,0,.06a19.11,19.11,0,0,0-17.38,0l-.05-.06-.12-.14,0-.06-.14-.16-.11-.12-.14-.16-.16-.16-.16-.17-.21-.21-.16-.15-.25-.24-.18-.16-.28-.24-.19-.16-.31-.24-.21-.16a3.88,3.88,0,0,0-.33-.23l-.22-.15c-.11-.08-.23-.15-.35-.22l-.23-.14-.36-.19-.25-.12-.37-.16-.26-.1-.38-.11-.27-.07-.38-.07-.28,0h-.66l-.37,0-.18,0-.28.07a2.07,2.07,0,0,0-.54.26l-.12.09a2.7,2.7,0,0,0-.42.41l0,0a3.76,3.76,0,0,0-.31.52l-.09.19c-.08.19-.15.38-.22.59a1.6,1.6,0,0,0-.05.21,5.45,5.45,0,0,0-.14.61c0,.1,0,.2-.05.3l0,.15c0,.16,0,.33,0,.51s0,.25,0,.38l0,.63c0,.13,0,.26,0,.38s0,.45,0,.68,0,.31,0,.47l0,.65,0,.41.06.69c0,.15,0,.3,0,.45s0,.44.08.66,0,.25,0,.37.07.47.1.7,0,.22,0,.33.07.44.1.65a2.93,2.93,0,0,1,0,.29c0,.23.08.46.12.67l0,.13c0,.22.07.42.11.61s0,.12,0,.18.08.38.11.54l.21,1c-.14.54-.25,1.08-.34,1.64a1.67,1.67,0,0,0-.28-.46,1.48,1.48,0,0,0-.3-.26l-.05,0a1.64,1.64,0,0,0-.29-.16h0a1.87,1.87,0,0,0-.75-.11h0a2.26,2.26,0,0,0,0-.45v-.16c0-.05,0-.1,0-.15a3.4,3.4,0,0,0-.07-.34,2.34,2.34,0,0,0-.09-.24,1.9,1.9,0,0,0-1.16-1.11l-.15,0-.14,0h-.44l-.15,0-.17,0-.08,0a2.32,2.32,0,0,0-.93.54h0a2.52,2.52,0,0,0-.42-.59h0a2.29,2.29,0,0,0-.52-.41h0l-.29-.13h0a1.28,1.28,0,0,0-.28-.07h0a1.42,1.42,0,0,0-.29,0h-.07a1.53,1.53,0,0,0-.3,0h0a1.8,1.8,0,0,0-.82.4h0l-.15.15s0,0,0,0l-.12.14-.06.09-.07.11,0,.05-.07.15v0a1.9,1.9,0,0,0-.14.4h0a2,2,0,0,0-.07.43h0a2.4,2.4,0,0,0-.82-.17h0l-.25,0h0A1.22,1.22,0,0,0,148,23h0l-.22.08-.06,0a.56.56,0,0,0-.17.09l-.06,0-.21.16h0a1.93,1.93,0,0,0-.27.3l-.07.11c0,.08-.09.15-.12.22a1.15,1.15,0,0,0-.06.17.66.66,0,0,0-.06.2,1.24,1.24,0,0,0-.05.38,1.77,1.77,0,0,0,0,.23.77.77,0,0,1,0,.15,2.34,2.34,0,0,0,0,.26v0a2.76,2.76,0,0,0,.28.72h0l-.26.1h0l0,0a1.75,1.75,0,0,0-.84,1h0a.65.65,0,0,0,0,.2l0,.12v.19s0,.1,0,.14a1.84,1.84,0,0,0,.05.25.28.28,0,0,0,0,.09,2.08,2.08,0,0,0,.12.32,2.16,2.16,0,0,0,.54.67,2.39,2.39,0,0,0,.78.44h0l.18,0A3.54,3.54,0,0,0,150,33.28a3.31,3.31,0,0,0,1,.16h.15a3.68,3.68,0,0,0,.57-.06l.2-.06a12.27,12.27,0,0,1,1.43-.49,14.75,14.75,0,0,1,1.5-.09l.21,0A3.58,3.58,0,0,0,158,29.35c0-.07,0-.15,0-.22a3.55,3.55,0,0,0-.34-1.45l.07-.06,0,0,.13-.13a2.35,2.35,0,0,0,.36-.47c0,.24,0,.47,0,.71a16.38,16.38,0,0,0,.28,3h0a9,9,0,0,0-.6,1.65,7.94,7.94,0,0,0-.25,1.42,8.86,8.86,0,0,0,.4,3.35,1.51,1.51,0,0,0,.59.81,26.53,26.53,0,0,0,2.73,1.67l.08,0c.69.37,1.41.72,2.11,1l.08,0c.6.25,1,.39,1.19.45l.08,0h.05a1,1,0,0,0,.29.05.85.85,0,0,0,.23,0,19,19,0,0,0,21.47,0H187a.84.84,0,0,0,.27,0h.06l.08,0c.19-.06.62-.22,1.2-.46l.05,0c.72-.33,1.44-.68,2.13-1.05l.08,0h0a28,28,0,0,0,2.73-1.67,1.55,1.55,0,0,0,.58-.78v0a8.93,8.93,0,0,0,.4-3.36,7.52,7.52,0,0,0-.19-1.2,9.1,9.1,0,0,0-.53-1.6c.06-.29.11-.58.16-.88a15.73,15.73,0,0,0,.18-2.39c0-.19,0-.37,0-.56a.76.76,0,0,0,0-.15,2.67,2.67,0,0,0,.32.43,1.45,1.45,0,0,0,.18.17s.05,0,.07.06l0,0a3.35,3.35,0,0,0-.33,1.45.74.74,0,0,0,0,.21,3.66,3.66,0,0,0,.65,1.93,3.52,3.52,0,0,0,.78.81,3.66,3.66,0,0,0,1.44.63l.2,0a14.79,14.79,0,0,1,1.51.09,13.7,13.7,0,0,1,1.43.49l.2.06a3.68,3.68,0,0,0,.57.06h.15a3.31,3.31,0,0,0,1-.16,3.49,3.49,0,0,0,1.94-1.41,3.54,3.54,0,0,0,.62-2.15l.05,0a.53.53,0,0,0,.12,0h0a2.47,2.47,0,0,0,.61-.3,2.2,2.2,0,0,0,.71-.81,2.08,2.08,0,0,0,.12-.32A1.75,1.75,0,0,0,206.54,27.25Zm-52.86-3.41a1.9,1.9,0,0,1,.23-.45,1,1,0,0,1,1.08-.5,1.17,1.17,0,0,1,.46,1.55c-.23.69-.82,1.11-1.31.95h0A1.18,1.18,0,0,1,153.68,23.84Zm-2.41-1.61c.5-.1,1,.4,1.17,1.11s-.15,1.38-.66,1.48-1-.4-1.18-1.11S150.76,22.33,151.27,22.23Zm-3.2,2a1.17,1.17,0,0,1,1.57.38,1.18,1.18,0,0,1,.17,1.61c-.39.34-1.09.17-1.57-.38A1.18,1.18,0,0,1,148.07,24.26Zm-.4,4.31c-.5-.17-.81-.59-.69-.95s.63-.51,1.13-.34.8.6.68,1A.85.85,0,0,1,147.67,28.57Zm8.15,2.57a2.37,2.37,0,0,1-1,.42,16.32,16.32,0,0,0-1.71.12,15.32,15.32,0,0,0-1.63.55A2.41,2.41,0,0,1,149,28.55l1.32-2.06a2.42,2.42,0,0,1,3.41-.67l.52.36,1.49,1A2.42,2.42,0,0,1,155.82,31.14ZM157,26.73a.85.85,0,0,1-1.16.12c-.25-.28-.13-.79.27-1.14a.85.85,0,0,1,1.16-.12C157.47,25.87,157.35,26.38,157,26.73Zm21.58-3.44a3.62,3.62,0,0,1,3-.88.32.32,0,0,1,0,.63,3.77,3.77,0,0,0-2,1.4.31.31,0,0,1-.36.09l-.5-.24A.61.61,0,0,1,178.53,23.29Zm-7.86-.88a3.62,3.62,0,0,1,3,.88.61.61,0,0,1-.16,1l-.5.24a.31.31,0,0,1-.36-.09,3.77,3.77,0,0,0-2-1.4A.32.32,0,0,1,170.67,22.41ZM160,10a3,3,0,0,1,.78-.11c1.93,0,4.12,1.83,5.39,3.21a19,19,0,0,0-6.83,7.5C158.41,15.55,158.35,10.51,160,10Zm3.39,24.22a9.26,9.26,0,0,0,0,1.29v.06a8.22,8.22,0,0,0,.2,1.29.07.07,0,0,0,0,0,9,9,0,0,0,.4,1.31v0a13.09,13.09,0,0,0,.61,1.33h0l.18.33-.71-.28h0c-.67-.3-1.34-.63-2-1l-.08,0A27,27,0,0,1,159.29,37a.35.35,0,0,1-.14-.2h0a7.61,7.61,0,0,1-.35-2.92v0c0-.09,0-.18,0-.27a6,6,0,0,1,.12-.72c0-.06,0-.13.05-.2.07-.24.13-.49.22-.73l.07-.15a5.78,5.78,0,0,1,.31-.72l.06-.11a10.48,10.48,0,0,1,.91-1.45l0,0c.17-.23.34-.45.52-.65l.21-.23.36-.38c.18-.19.37-.37.55-.53a4.09,4.09,0,0,1,3.09-1.05l2.24.18s0,0,0,0a0,0,0,0,1,0,0C166.12,28.11,163.64,30.67,163.35,34.24Zm20.49,6.31A10.74,10.74,0,0,1,181.52,42a12.94,12.94,0,0,1-1.81.66,13.33,13.33,0,0,1-3,.46h-.58c-.24,0-.48,0-.71,0a12.86,12.86,0,0,1-4.77-1.14,10.63,10.63,0,0,1-2.92-2c-.2-.2-.39-.41-.57-.62a7.18,7.18,0,0,1-1.48-2.84,6.54,6.54,0,0,1-.2-1.59,7.56,7.56,0,0,1,3.6-6.16,11,11,0,0,1,1-.6h0a1.77,1.77,0,1,1,2.11-1.74,2.33,2.33,0,0,1,0,.38h0c.23-.12.47-.22.71-.32a8.55,8.55,0,0,1,3.29-.66h0a9.46,9.46,0,0,1,1.07.06c.35.05.69.11,1,.19a8.47,8.47,0,0,1,1.91.73h0a2.33,2.33,0,0,1,0-.38,1.78,1.78,0,1,1,2.09,1.75h0a9.83,9.83,0,0,1,1.89,1.29,8.11,8.11,0,0,1,2,2.49,6.52,6.52,0,0,1,.72,3A7.32,7.32,0,0,1,183.84,40.55Zm9.56-5.15a.5.5,0,0,1,0,.12,5.25,5.25,0,0,1-.09.55c-.06.23-.11.46-.19.7v0a.35.35,0,0,1-.14.2,27,27,0,0,1-2.68,1.63l-.08,0c-.63.34-1.29.66-2,1h0l-.71.28c0-.05,0-.1.08-.16s.11-.22.17-.33.24-.46.34-.68.28-.7.4-1v0c.07-.22.13-.45.19-.67,0,0,0,0,0-.07,0-.21.09-.41.12-.62l0-.16.06-.53c0-.11,0-.21,0-.31s0-.26,0-.39,0-.46,0-.69c-.29-3.56-2.77-6.13-4.23-7.34a0,0,0,0,1,0,0s0,0,0,0l2.24-.18h.33A4.07,4.07,0,0,1,190,27.69a9.79,9.79,0,0,1,3.44,6.18A7.17,7.17,0,0,1,193.4,35.4Zm-.28-14.78a19,19,0,0,0-6.83-7.5c1.44-1.57,4.08-3.72,6.16-3.1C194.07,10.51,194,15.55,193.12,20.62Zm9.65,4a1.19,1.19,0,0,1,1.58-.38,1.18,1.18,0,0,1-.17,1.61c-.48.55-1.18.72-1.57.38A1.18,1.18,0,0,1,202.77,24.64ZM200,23.34c.14-.71.67-1.21,1.17-1.11s.81.76.67,1.48-.67,1.21-1.18,1.11S199.84,24.06,200,23.34Zm-2.55-.45a1,1,0,0,1,1.08.5,1.9,1.9,0,0,1,.23.45,1.18,1.18,0,0,1-.45,1.54h0c-.49.16-1.07-.26-1.31-.95A1.18,1.18,0,0,1,197.43,22.89Zm-2,3.84a.87.87,0,0,1-.27-1.14.86.86,0,0,1,1.17.12c.4.35.52.86.27,1.14A.86.86,0,0,1,195.46,26.73Zm5.44,5.5a14.94,14.94,0,0,0-1.62-.55,16.32,16.32,0,0,0-1.71-.12,2.31,2.31,0,0,1-1-.42,2.42,2.42,0,0,1,.06-3.93l1.49-1,.52-.36a2.42,2.42,0,0,1,3.41.67l1.32,2.06A2.42,2.42,0,0,1,200.9,32.23Zm3.85-3.66a.85.85,0,0,1-1.12-.33c-.13-.36.18-.79.68-1s1,0,1.13.34S205.25,28.4,204.75,28.57Z"/><path class="cls-2" d="M156.06,25.71c-.4.35-.52.86-.27,1.14a.85.85,0,0,0,1.16-.12c.4-.35.52-.86.27-1.14A.85.85,0,0,0,156.06,25.71Z"/><path class="cls-2" d="M155.76,27.21l-1.49-1-.52-.36a2.42,2.42,0,0,0-3.41.67L149,28.55a2.41,2.41,0,0,0,2.49,3.68,15.32,15.32,0,0,1,1.63-.55,16.32,16.32,0,0,1,1.71-.12,2.37,2.37,0,0,0,1-.42A2.42,2.42,0,0,0,155.76,27.21Z"/><path class="cls-2" d="M154.13,25.38h0c.49.16,1.08-.26,1.31-.95a1.17,1.17,0,0,0-.46-1.55,1,1,0,0,0-1.08.5,1.9,1.9,0,0,0-.23.45A1.18,1.18,0,0,0,154.13,25.38Z"/><path class="cls-2" d="M198.67,25.82l-.52.36-1.49,1a2.42,2.42,0,0,0-.06,3.93,2.31,2.31,0,0,0,1,.42,16.32,16.32,0,0,1,1.71.12,14.94,14.94,0,0,1,1.62.55A2.38,2.38,0,0,0,203.52,31c-.12-.85-.22-1.72-.26-2.62l-1.18-1.84A2.42,2.42,0,0,0,198.67,25.82Z"/><path class="cls-2" d="M200.64,24.82c.51.1,1-.4,1.18-1.11s-.16-1.38-.67-1.48-1,.4-1.17,1.11S200.13,24.72,200.64,24.82Z"/><path class="cls-2" d="M178.69,24.29l.5.24a.31.31,0,0,0,.36-.09,3.77,3.77,0,0,1,2-1.4.32.32,0,0,0,0-.63,3.62,3.62,0,0,0-3,.88A.61.61,0,0,0,178.69,24.29Z"/><path class="cls-2" d="M198.27,25.39h0a1.18,1.18,0,0,0,.45-1.54,1.9,1.9,0,0,0-.23-.45,1,1,0,0,0-1.08-.5,1.18,1.18,0,0,0-.47,1.55C197.2,25.13,197.78,25.55,198.27,25.39Z"/><path class="cls-2" d="M190,27.69a4.07,4.07,0,0,0-2.76-1.06h-.33l-2.24.18s0,0,0,0a0,0,0,0,0,0,0c1.46,1.21,3.94,3.78,4.23,7.34q0,.34,0,.69c0,.13,0,.26,0,.39s0,.2,0,.31l-.06.53,0,.16c0,.21-.07.41-.12.62,0,0,0,0,0,.07-.06.22-.12.45-.19.67v0c-.12.35-.25.7-.4,1s-.22.45-.34.68-.1.22-.17.33,0,.11-.08.16l.71-.28h0c.68-.31,1.34-.63,2-1l.08,0A27,27,0,0,0,193,37a.35.35,0,0,0,.14-.2v0c.07-.24.13-.47.19-.7a5.25,5.25,0,0,0,.09-.55.5.5,0,0,0,0-.12,7.17,7.17,0,0,0,0-1.53A9.79,9.79,0,0,0,190,27.69Z"/><path class="cls-2" d="M196.63,26.85c.25-.28.13-.79-.27-1.14a.86.86,0,0,0-1.17-.12.87.87,0,0,0,.27,1.14A.86.86,0,0,0,196.63,26.85Z"/><path class="cls-2" d="M170.65,23a3.77,3.77,0,0,1,2,1.4.31.31,0,0,0,.36.09l.5-.24a.61.61,0,0,0,.16-1,3.62,3.62,0,0,0-3-.88A.32.32,0,0,0,170.65,23Z"/><path class="cls-2" d="M192.45,10c-2.08-.62-4.72,1.53-6.16,3.1a19,19,0,0,1,6.83,7.5C194,15.55,194.07,10.51,192.45,10Z"/><path class="cls-2" d="M184.06,29.42a9.83,9.83,0,0,0-1.89-1.29,1.77,1.77,0,1,0-2.09-1.75,2.33,2.33,0,0,0,0,.38,8.47,8.47,0,0,0-1.91-.73c-.33-.08-.67-.14-1-.19a9.46,9.46,0,0,0-1.07-.06h0a8.55,8.55,0,0,0-3.29.66c-.24.1-.48.2-.71.32h0a2.33,2.33,0,0,0,0-.38,1.78,1.78,0,1,0-2.11,1.74h0a11,11,0,0,0-1,.6,7.56,7.56,0,0,0-3.6,6.16,6.54,6.54,0,0,0,.2,1.59,7.18,7.18,0,0,0,1.48,2.84c.18.21.37.42.57.62a10.63,10.63,0,0,0,2.92,2,12.86,12.86,0,0,0,4.77,1.14c.23,0,.47,0,.71,0h.58a13.33,13.33,0,0,0,3-.46,12.94,12.94,0,0,0,1.81-.66,10.74,10.74,0,0,0,2.32-1.42,7.32,7.32,0,0,0,2.93-5.66,6.52,6.52,0,0,0-.72-3A8.11,8.11,0,0,0,184.06,29.42Z"/><path class="cls-2" d="M167.58,26.9a0,0,0,0,0,0,0s0,0,0,0l-2.24-.18a4.09,4.09,0,0,0-3.09,1.05c-.18.16-.37.34-.55.53l-.36.38-.21.23c-.18.2-.35.42-.52.65l0,0a10.48,10.48,0,0,0-.91,1.45l-.06.11a5.78,5.78,0,0,0-.31.72l-.07.15c-.09.24-.15.49-.22.73,0,.07,0,.14-.05.2a6,6,0,0,0-.12.72c0,.09,0,.18,0,.27v0a7.61,7.61,0,0,0,.35,2.92h0a.35.35,0,0,0,.14.2A27,27,0,0,0,162,38.62l.08,0c.64.34,1.31.67,2,1h0l.71.28-.18-.33h0a13.09,13.09,0,0,1-.61-1.33v0a9,9,0,0,1-.4-1.31.07.07,0,0,1,0,0,8.22,8.22,0,0,1-.2-1.29v-.06a9.26,9.26,0,0,1,0-1.29C163.64,30.67,166.12,28.11,167.58,26.9Z"/><path class="cls-2" d="M166.13,13.12c-1.27-1.38-3.46-3.21-5.39-3.21A3,3,0,0,0,160,10c-1.61.49-1.55,5.53-.66,10.6A19,19,0,0,1,166.13,13.12Z"/><path class="cls-2" d="M155,22.89a1,1,0,0,0-1.08.5,1.9,1.9,0,0,0-.23.45,1.18,1.18,0,0,0,.45,1.54h0c.49.16,1.08-.26,1.31-.95A1.17,1.17,0,0,0,155,22.89Z"/><path class="cls-2" d="M156.06,25.71c-.4.35-.52.86-.27,1.14a.85.85,0,0,0,1.16-.12c.4-.35.52-.86.27-1.14A.85.85,0,0,0,156.06,25.71Z"/><path class="cls-2" d="M178.69,24.29l.5.24a.31.31,0,0,0,.36-.09,3.77,3.77,0,0,1,2-1.4.32.32,0,0,0,0-.63,3.62,3.62,0,0,0-3,.88A.61.61,0,0,0,178.69,24.29Z"/><path class="cls-2" d="M170.65,23a3.77,3.77,0,0,1,2,1.4.31.31,0,0,0,.36.09l.5-.24a.61.61,0,0,0,.16-1,3.62,3.62,0,0,0-3-.88A.32.32,0,0,0,170.65,23Z"/><path class="cls-2" d="M200.64,24.82c.51.1,1-.4,1.18-1.11s-.16-1.38-.67-1.48-1,.4-1.17,1.11S200.13,24.72,200.64,24.82Z"/><path class="cls-2" d="M151.51,32.23a15.32,15.32,0,0,1,1.63-.55,16.32,16.32,0,0,1,1.71-.12,2.37,2.37,0,0,0,1-.42,2.42,2.42,0,0,0-.06-3.93l-1.49-1-.52-.36a2.42,2.42,0,0,0-3.41.67l-1.15,1.78V31.4A2.38,2.38,0,0,0,151.51,32.23Z"/><path class="cls-2" d="M198.27,25.39h0a1.18,1.18,0,0,0,.45-1.54,1.9,1.9,0,0,0-.23-.45,1,1,0,0,0-1.08-.5,1.18,1.18,0,0,0-.47,1.55C197.2,25.13,197.78,25.55,198.27,25.39Z"/><path class="cls-2" d="M196.63,26.85c.25-.28.13-.79-.27-1.14a.86.86,0,0,0-1.17-.12.87.87,0,0,0,.27,1.14A.86.86,0,0,0,196.63,26.85Z"/><path class="cls-2" d="M192.45,10c-2.08-.62-4.72,1.53-6.16,3.1a19,19,0,0,1,6.83,7.5C194,15.55,194.07,10.51,192.45,10Z"/><path class="cls-2" d="M166.13,13.12c-1.27-1.38-3.46-3.21-5.39-3.21A3,3,0,0,0,160,10c-1.61.49-1.55,5.53-.66,10.6A19,19,0,0,1,166.13,13.12Z"/><path class="cls-2" d="M167.58,26.9a0,0,0,0,0,0,0s0,0,0,0l-2.24-.18a4.09,4.09,0,0,0-3.09,1.05c-.18.16-.37.34-.55.53l-.36.38-.21.23c-.18.2-.35.42-.52.65l0,0a10.48,10.48,0,0,0-.91,1.45l-.06.11a5.78,5.78,0,0,0-.31.72l-.07.15c-.09.24-.15.49-.22.73,0,.07,0,.14-.05.2a6,6,0,0,0-.12.72c0,.09,0,.18,0,.27v0a7.61,7.61,0,0,0,.35,2.92h0a.35.35,0,0,0,.14.2A27,27,0,0,0,162,38.62l.08,0c.64.34,1.31.67,2,1h0l.71.28-.18-.33h0a13.09,13.09,0,0,1-.61-1.33v0a9,9,0,0,1-.4-1.31.07.07,0,0,1,0,0,8.22,8.22,0,0,1-.2-1.29v-.06a9.26,9.26,0,0,1,0-1.29C163.64,30.67,166.12,28.11,167.58,26.9Z"/><path class="cls-2" d="M190,27.69a4.07,4.07,0,0,0-2.76-1.06h-.33l-2.24.18s0,0,0,0a0,0,0,0,0,0,0c1.46,1.21,3.94,3.78,4.23,7.34q0,.34,0,.69c0,.13,0,.26,0,.39s0,.2,0,.31l-.06.53,0,.16c0,.21-.07.41-.12.62,0,0,0,0,0,.07-.06.22-.12.45-.19.67v0c-.12.35-.25.7-.4,1s-.22.45-.34.68-.1.22-.17.33,0,.11-.08.16l.71-.28h0c.68-.31,1.34-.63,2-1l.08,0A27,27,0,0,0,193,37a.35.35,0,0,0,.14-.2v0c.07-.24.13-.47.19-.7a5.25,5.25,0,0,0,.09-.55.5.5,0,0,0,0-.12,7.17,7.17,0,0,0,0-1.53A9.79,9.79,0,0,0,190,27.69Z"/><path class="cls-2" d="M184.06,29.42a9.83,9.83,0,0,0-1.89-1.29,1.77,1.77,0,1,0-2.09-1.75,2.33,2.33,0,0,0,0,.38,8.47,8.47,0,0,0-1.91-.73c-.33-.08-.67-.14-1-.19a9.46,9.46,0,0,0-1.07-.06h0a8.55,8.55,0,0,0-3.29.66c-.24.1-.48.2-.71.32h0a2.33,2.33,0,0,0,0-.38,1.78,1.78,0,1,0-2.11,1.74h0a11,11,0,0,0-1,.6,7.56,7.56,0,0,0-3.6,6.16,6.54,6.54,0,0,0,.2,1.59,7.18,7.18,0,0,0,1.48,2.84c.18.21.37.42.57.62a10.63,10.63,0,0,0,2.92,2,12.86,12.86,0,0,0,4.77,1.14c.23,0,.47,0,.71,0h.58a13.33,13.33,0,0,0,3-.46,12.94,12.94,0,0,0,1.81-.66,10.74,10.74,0,0,0,2.32-1.42,7.32,7.32,0,0,0,2.93-5.66,6.52,6.52,0,0,0-.72-3A8.11,8.11,0,0,0,184.06,29.42Z"/><path class="cls-4" d="M148.79,28.24c.12-.36-.18-.79-.68-1s-1,0-1.13.34.19.78.69.95A.85.85,0,0,0,148.79,28.24Z"/></g></g></svg>