<svg xmlns="http://www.w3.org/2000/svg" viewBox="0 0 64.79 57.38"><defs><style>.cls-1{fill:#742118;}.cls-2{fill:#fff;}.cls-3{fill:#df482a;}</style></defs><g id="Capa_2" data-name="Capa 2"><g id="Capa_1-2" data-name="Capa 1"><circle class="cls-1" cx="32.39" cy="28.69" r="28.69"/><path class="cls-2" d="M5.58,22.46a1.84,1.84,0,0,1,.33,0H6a1.62,1.62,0,0,1,.31,0h0l.29.07,0,0a1.94,1.94,0,0,1,.3.13l0,0a2.13,2.13,0,0,1,.56.44h0a3,3,0,0,1,.45.63H8a2.45,2.45,0,0,1,1-.57l.09,0,.19,0h.62a1.77,1.77,0,0,1,.31.08,2.06,2.06,0,0,1,1.24,1.18l.09.25a2.29,2.29,0,0,1,.07.36,1,1,0,0,1,0,.16,1.09,1.09,0,0,1,0,.18,3.85,3.85,0,0,1,0,.48h0a1.82,1.82,0,0,1,.8.12s0,0,0,0a1.91,1.91,0,0,1,.32.16s0,0,0,0a1.64,1.64,0,0,1,.31.28,1.77,1.77,0,0,1,.31.49,14.27,14.27,0,0,1,.36-1.75l-.23-1.05C12.87,21,11,10.61,14.74,9.49s7.89,3.69,8.35,4.24l.05.06a20.32,20.32,0,0,1,18.51,0l.05-.06c.46-.55,4.55-5.38,8.35-4.24S51.92,21,51.25,24.13L51,25.18c.14.52.25,1.05.34,1.59,0,.05,0,.1,0,.16a1.54,1.54,0,0,1,.3-.49,1.64,1.64,0,0,1,.31-.28s0,0,.06,0a1.34,1.34,0,0,1,.31-.17h0a1.79,1.79,0,0,1,.8-.12,4.19,4.19,0,0,1,0-.5.86.86,0,0,0,0-.16c0-.06,0-.11,0-.17a2.33,2.33,0,0,1,.08-.36,1.25,1.25,0,0,1,.09-.25,2.06,2.06,0,0,1,1-1.09,1.57,1.57,0,0,1,.23-.09h0a1.67,1.67,0,0,1,.32-.08h.62l.18,0,.09,0a2.4,2.4,0,0,1,1,.58h0a2.78,2.78,0,0,1,.44-.62h0a2.31,2.31,0,0,1,.56-.44l0,0,.3-.13,0,0,.29-.07h0a1.72,1.72,0,0,1,.32,0h.07l.32,0h0a27.54,27.54,0,0,0-53.65,0h0Z"/><path class="cls-2" d="M21.66,14c-1.35-1.47-3.69-3.41-5.74-3.41a2.91,2.91,0,0,0-.83.11c-1.72.52-1.65,5.89-.71,11.29A20.36,20.36,0,0,1,21.66,14Z"/><path class="cls-2" d="M49.7,10.67c-2.22-.66-5,1.63-6.57,3.3a20.27,20.27,0,0,1,7.27,8C51.35,16.56,51.42,11.19,49.7,10.67Z"/><path class="cls-2" d="M51.83,31a3.67,3.67,0,0,1,.36-1.55l0,0-.09-.06-.18-.19a3,3,0,0,1-.34-.45s0,.11,0,.16,0,.39,0,.59a16.45,16.45,0,0,1-.2,2.55c0,.31-.1.63-.17.94a9.17,9.17,0,0,1,.57,1.7c.26-.46.51-.92.74-1.4a3.87,3.87,0,0,1-.69-2C51.84,31.18,51.83,31.1,51.83,31Z"/><path class="cls-2" d="M35,25.87l.54.25A.32.32,0,0,0,36,26a4,4,0,0,1,2.18-1.49.34.34,0,0,0,0-.67,3.86,3.86,0,0,0-3.23.93A.65.65,0,0,0,35,25.87Z"/><path class="cls-2" d="M26.47,24.54A4,4,0,0,1,28.65,26a.32.32,0,0,0,.38.09l.53-.25a.64.64,0,0,0,.17-1.07,3.86,3.86,0,0,0-3.23-.93A.34.34,0,0,0,26.47,24.54Z"/><path class="cls-2" d="M13.51,32.69a16.65,16.65,0,0,1-.31-3.18c0-.25,0-.5,0-.75a2.28,2.28,0,0,1-.38.5,1.85,1.85,0,0,1-.14.14l0,0-.07.06A3.83,3.83,0,0,1,13,31c0,.07,0,.15,0,.23a4,4,0,0,1-.69,2c.19.39.4.78.61,1.16a10.55,10.55,0,0,1,.64-1.76Z"/><path class="cls-3" d="M64.69,29a1.83,1.83,0,0,0-.84-1L63.76,28h0l-.28-.1h0a2.82,2.82,0,0,0,.31-.8h0a2.89,2.89,0,0,0,0-.29c0-.05,0-.1,0-.16a1.93,1.93,0,0,0,0-.24,1.37,1.37,0,0,0-.05-.4l-.06-.22a.87.87,0,0,0-.07-.17c0-.08-.08-.16-.13-.24l-.08-.12a1.69,1.69,0,0,0-.28-.32L63,24.75l-.07,0-.17-.1-.07,0-.23-.08h0l-.28-.06h-.31a2.46,2.46,0,0,0-.88.17h0a3.54,3.54,0,0,0-.08-.45h0a3.52,3.52,0,0,0-.15-.42s0,0,0,0a2,2,0,0,0-.1-.21l-.08-.12-.06-.09c0-.06-.09-.11-.13-.16l0,0-.18-.17h0a1.93,1.93,0,0,0-.87-.43h0l-.32,0h-.07a1.72,1.72,0,0,0-.32,0h0l-.29.07,0,0-.3.13,0,0a2.31,2.31,0,0,0-.56.44h0a2.78,2.78,0,0,0-.44.62h0a2.4,2.4,0,0,0-1-.58l-.09,0-.18,0h-.62l-.15,0-.17,0h0a1.57,1.57,0,0,0-.23.09,2.06,2.06,0,0,0-1,1.09,1.25,1.25,0,0,0-.09.25,2.33,2.33,0,0,0-.08.36c0,.06,0,.11,0,.17a.86.86,0,0,1,0,.16,4.19,4.19,0,0,0,0,.5,1.79,1.79,0,0,0-.8.12h0a1.34,1.34,0,0,0-.31.17s0,0-.06,0a1.64,1.64,0,0,0-.31.28,1.54,1.54,0,0,0-.3.49c0-.06,0-.11,0-.16-.09-.54-.2-1.07-.34-1.59l.22-1.05c.45-2.1,1.45-7.42.94-11.06-.25-1.81-.88-3.21-2.13-3.58l-.29-.08C46,8.6,42.14,13.19,41.7,13.73l-.05.06a20.32,20.32,0,0,0-18.51,0l-.05-.06c-.45-.54-4.34-5.13-8.06-4.32l-.29.08c-1.25.37-1.88,1.77-2.13,3.58-.51,3.64.48,9,.93,11.06l.23,1.05a14.27,14.27,0,0,0-.36,1.75,1.77,1.77,0,0,0-.31-.49,1.64,1.64,0,0,0-.31-.28s0,0,0,0a1.91,1.91,0,0,0-.32-.16s0,0,0,0a1.82,1.82,0,0,0-.8-.12h0a3.85,3.85,0,0,0,0-.48,1.09,1.09,0,0,0,0-.18,1,1,0,0,0,0-.16,2.29,2.29,0,0,0-.07-.36l-.09-.25a2.06,2.06,0,0,0-1.24-1.18l-.17,0-.14,0H9.26l-.19,0L9,23.2a2.45,2.45,0,0,0-1,.57H8a3,3,0,0,0-.45-.63h0A2.13,2.13,0,0,0,7,22.7l0,0a1.94,1.94,0,0,0-.3-.13l0,0-.29-.07h0a1.62,1.62,0,0,0-.31,0H5.91a1.84,1.84,0,0,0-.33,0h0a2,2,0,0,0-.86.43h0l-.16.16s0,0,0,0l-.12.15a.61.61,0,0,0-.07.1l-.08.11c0,.07-.07.14-.11.22v0a2.16,2.16,0,0,0-.14.43h0a3.25,3.25,0,0,0-.07.45h0A2.5,2.5,0,0,0,3,24.42H2.66l-.28,0h0l-.23.08-.07,0-.18.1-.06,0-.22.16h0a1.75,1.75,0,0,0-.29.32l-.08.12c-.05.08-.09.16-.13.24l-.06.17A1.42,1.42,0,0,0,1,26l0,.2a1.5,1.5,0,0,0,0,.2,1.92,1.92,0,0,0,0,.24,1,1,0,0,0,0,.17c0,.09,0,.18,0,.28v0a2.86,2.86,0,0,0,.3.76v0h0L1,28H1l0,0a1.8,1.8,0,0,0-.9,1h0a1.74,1.74,0,0,0,0,.22l0,.12c0,.07,0,.14,0,.21v.15A2.38,2.38,0,0,0,.05,30a.28.28,0,0,0,0,.09,2.09,2.09,0,0,0,.13.35,2.29,2.29,0,0,0,.57.71,2.35,2.35,0,0,0,.83.47h0l.18,0a3.82,3.82,0,0,0,3.78,4h.17a4.09,4.09,0,0,0,.6-.07l.21-.06A14.4,14.4,0,0,1,8.07,35c.23,0,1-.08,1.6-.09l.22,0a3.85,3.85,0,0,0,1.52-.66,4.12,4.12,0,0,0,.85-.87,4,4,0,0,0,.69-2c0-.08,0-.16,0-.23a3.83,3.83,0,0,0-.36-1.55l.07-.06,0,0a1.85,1.85,0,0,0,.14-.14,2.28,2.28,0,0,0,.38-.5c0,.25,0,.5,0,.75a16.65,16.65,0,0,0,.31,3.18h0a10.55,10.55,0,0,0-.64,1.76A8.36,8.36,0,0,0,12.61,36,9.27,9.27,0,0,0,13,39.55a1.63,1.63,0,0,0,.62.86,27.9,27.9,0,0,0,2.91,1.77l.08,0c.74.39,1.5.77,2.25,1.11l.09,0a13.21,13.21,0,0,0,1.26.47l.09.06h.06a1,1,0,0,0,.3,0,1.07,1.07,0,0,0,.25,0,20.27,20.27,0,0,0,22.86,0h.1a1.45,1.45,0,0,0,.29,0h.06l.09-.06c.19-.06.66-.22,1.28-.48l0,0c.77-.35,1.53-.73,2.27-1.12l.08,0h0a28.58,28.58,0,0,0,2.91-1.77,1.63,1.63,0,0,0,.61-.83v0A9.27,9.27,0,0,0,52,36a8.63,8.63,0,0,0-.2-1.27,9.17,9.17,0,0,0-.57-1.7c.07-.31.13-.63.17-.94a16.45,16.45,0,0,0,.2-2.55c0-.2,0-.39,0-.59s0-.11,0-.16a3,3,0,0,0,.34.45l.18.19.09.06,0,0A3.67,3.67,0,0,0,51.83,31c0,.07,0,.15,0,.22a3.87,3.87,0,0,0,.69,2,3.61,3.61,0,0,0,.84.86,3.77,3.77,0,0,0,1.53.67l.22,0a13.36,13.36,0,0,1,1.6.1,12,12,0,0,1,1.52.52l.21.06a4.39,4.39,0,0,0,.61.07h.16a3.8,3.8,0,0,0,3.78-4h.06l.13,0h0a2.81,2.81,0,0,0,.65-.32,2.29,2.29,0,0,0,.75-.86,1.48,1.48,0,0,0,.13-.35A1.71,1.71,0,0,0,64.69,29ZM34.87,24.8a3.86,3.86,0,0,1,3.23-.93.34.34,0,0,1,0,.67A4,4,0,0,0,36,26a.32.32,0,0,1-.38.09L35,25.87A.65.65,0,0,1,34.87,24.8Zm-8.37-.93a3.86,3.86,0,0,1,3.23.93.64.64,0,0,1-.17,1.07l-.53.25a.32.32,0,0,1-.38-.09,4,4,0,0,0-2.18-1.49A.34.34,0,0,1,26.5,23.87ZM15.09,10.67a2.91,2.91,0,0,1,.83-.11c2,0,4.39,1.94,5.74,3.41a20.36,20.36,0,0,0-7.28,8C13.44,16.56,13.37,11.19,15.09,10.67ZM18.7,36.46a10.26,10.26,0,0,0,1.3,5.7c.07.12.12.24.19.36-.2-.07-.46-.17-.76-.3h0c-.71-.32-1.42-.67-2.11-1l-.08,0a30.77,30.77,0,0,1-2.86-1.73.44.44,0,0,1-.15-.22h0a8.21,8.21,0,0,1-.38-3.11v0a10.45,10.45,0,0,1,3.67-6.56,4.38,4.38,0,0,1,3.29-1.12l2.38.2s0,0,0,0,0,0,0,0C21.65,29.94,19,32.67,18.7,36.46ZM32.91,45.9H32.3l-.76,0C25.63,45.59,21,41.8,21,37.16c0-3,1.94-5.62,4.9-7.2a1.89,1.89,0,1,1,2.23-1.86,1.75,1.75,0,0,1,0,.4,9.17,9.17,0,0,1,8.52,0,1.75,1.75,0,0,1,0-.4A1.89,1.89,0,1,1,38.75,30c3,1.58,4.89,4.21,4.89,7.2C43.64,41.83,38.89,45.65,32.91,45.9Zm17.48-6.74v0a.45.45,0,0,1-.15.21,30.77,30.77,0,0,1-2.86,1.73l-.08,0c-.68.35-1.38.7-2.1,1h0c-.3.13-.56.23-.76.3l.09-.17a10.32,10.32,0,0,0,1.4-5.89c-.31-3.79-2.95-6.52-4.5-7.81a0,0,0,0,1,0,0s0,0,0,0l2.38-.2h.36a4.33,4.33,0,0,1,2.93,1.13,10.46,10.46,0,0,1,3.67,6.58v.24A8.14,8.14,0,0,1,50.39,39.16Zm0-17.2a20.27,20.27,0,0,0-7.27-8c1.53-1.67,4.35-4,6.57-3.3C51.42,11.19,51.35,16.56,50.4,22Z"/><path class="cls-2" d="M47.09,29.49a4.33,4.33,0,0,0-2.93-1.13H43.8l-2.38.2s0,0,0,0a0,0,0,0,0,0,0c1.55,1.29,4.19,4,4.5,7.81a10.39,10.39,0,0,1-1.49,6.06c.2-.07.46-.17.76-.3h0c.72-.33,1.42-.68,2.1-1l.08,0a30.77,30.77,0,0,0,2.86-1.73.45.45,0,0,0,.15-.21v0a8.32,8.32,0,0,0,.37-3.09A10.46,10.46,0,0,0,47.09,29.49Z"/><path class="cls-2" d="M23.2,28.64s0,0,0,0,0,0,0,0l-2.38-.2a4.38,4.38,0,0,0-3.29,1.12,10.46,10.46,0,0,0-3.67,6.58,8.21,8.21,0,0,0,.38,3.11h0a.44.44,0,0,0,.15.22,30.77,30.77,0,0,0,2.86,1.73l.08,0c.69.36,1.4.71,2.11,1h0c.3.13.56.23.76.3a10.39,10.39,0,0,1-1.49-6.06C19,32.67,21.65,29.94,23.2,28.64Z"/><path class="cls-2" d="M38.75,30l-.11,0h-.23a1.89,1.89,0,0,1-1.85-1.49,9.17,9.17,0,0,0-8.52,0h0A1.89,1.89,0,0,1,26.19,30H26l-.11,0c-3,1.58-4.9,4.21-4.9,7.2,0,4.64,4.68,8.43,10.59,8.73l.81,0h.56c6-.25,10.73-4.07,10.73-8.74C43.64,34.17,41.71,31.54,38.75,30Z"/><path class="cls-1" d="M36.06,37.77c-1.35,1.35-3,.36-3.48.06V36.68h.11a1.75,1.75,0,0,0,.4,0,.25.25,0,0,0,.18-.15.48.48,0,0,1,.43-.27h0a.26.26,0,0,0,.21-.08A1.77,1.77,0,0,0,34.18,34l-.4-.64a1.75,1.75,0,0,0-3,0l-.4.64a1.77,1.77,0,0,0,.22,2.14.26.26,0,0,0,.21.08h0a.48.48,0,0,1,.43.27.25.25,0,0,0,.18.15,1.75,1.75,0,0,0,.4,0H32v1.15c-.44.3-2.13,1.29-3.47-.06a.29.29,0,0,0-.41.41,2.81,2.81,0,0,0,2,.85,4.07,4.07,0,0,0,2.15-.7,3.24,3.24,0,0,0,4.17-.15.29.29,0,0,0-.41-.41Z"/><path class="cls-1" d="M38.41,30h.23l.11,0a1.89,1.89,0,1,0-2.23-1.86,1.75,1.75,0,0,0,0,.4A1.89,1.89,0,0,0,38.41,30Z"/><path class="cls-1" d="M24.3,28.1A1.89,1.89,0,0,0,25.85,30L26,30h.23A1.89,1.89,0,0,0,28,28.5h0l0-.2a1.34,1.34,0,0,0,0-.2,1.89,1.89,0,0,0-1.89-1.89h0a1.9,1.9,0,0,0-.9.22l-.16.1A1.89,1.89,0,0,0,24.3,28.1Z"/><path class="cls-2" d="M55.89,27h0a1.25,1.25,0,0,0,.48-1.64,1.8,1.8,0,0,0-.24-.48A1.07,1.07,0,0,0,55,24.38,1.26,1.26,0,0,0,54.5,26C54.75,26.76,55.37,27.22,55.89,27Z"/><path class="cls-2" d="M58.41,26.43c.55.11,1.11-.42,1.26-1.18s-.17-1.47-.71-1.57-1.1.42-1.25,1.18S57.87,26.32,58.41,26.43Z"/><path class="cls-2" d="M62.19,27.56a1.26,1.26,0,0,0,.17-1.72,1.26,1.26,0,0,0-1.67.4A1.27,1.27,0,0,0,60.51,28,1.27,1.27,0,0,0,62.19,27.56Z"/><path class="cls-2" d="M63.52,29.42a.9.9,0,0,0-1.19-.36c-.54.18-.86.63-.74,1a.91.91,0,0,0,1.2.36C63.32,30.25,63.65,29.8,63.52,29.42Z"/><path class="cls-2" d="M54.15,28.59a.91.91,0,0,0-.29-1.21.92.92,0,0,0-1.25-.13.92.92,0,0,0,.29,1.22C53.33,28.84,53.88,28.9,54.15,28.59Z"/><path class="cls-2" d="M61.36,30.41,60,28.22a2.58,2.58,0,0,0-3.63-.72l-.56.39L54.18,29a2.57,2.57,0,0,0,1,4.64,15.62,15.62,0,0,1,1.82.12,17.91,17.91,0,0,1,1.74.58A2.57,2.57,0,0,0,61.36,30.41Z"/><path class="cls-2" d="M8.88,27h0c.53.18,1.15-.28,1.4-1a1.26,1.26,0,0,0-.49-1.65,1.07,1.07,0,0,0-1.16.53,1.8,1.8,0,0,0-.24.48A1.25,1.25,0,0,0,8.88,27Z"/><path class="cls-2" d="M6.37,26.43c.54-.11.86-.81.71-1.57s-.71-1.29-1.25-1.18-.86.81-.71,1.57S5.83,26.54,6.37,26.43Z"/><path class="cls-2" d="M4.28,28a1.27,1.27,0,0,0-.18-1.72,1.26,1.26,0,0,0-1.67-.4,1.26,1.26,0,0,0,.17,1.72A1.27,1.27,0,0,0,4.28,28Z"/><path class="cls-2" d="M3.19,30.07c.13-.38-.19-.83-.73-1s-1.07,0-1.19.36.19.83.73,1S3.07,30.45,3.19,30.07Z"/><path class="cls-2" d="M10.93,27.38a.91.91,0,0,0-.29,1.21c.27.31.82.25,1.25-.12a.92.92,0,0,0,.29-1.22A.92.92,0,0,0,10.93,27.38Z"/><path class="cls-2" d="M10.61,29,9,27.89l-.56-.39a2.58,2.58,0,0,0-3.63.72L3.43,30.41a2.57,2.57,0,0,0,2.66,3.91s1.25-.48,1.73-.58a15.89,15.89,0,0,1,1.83-.12,2.67,2.67,0,0,0,1-.45A2.58,2.58,0,0,0,10.61,29Z"/></g></g></svg>