<svg xmlns="http://www.w3.org/2000/svg" viewBox="0 0 293.66 56.69"><defs><style>.cls-1{fill:#1d1d1b;}.cls-2{fill:#df482a;}</style></defs><g id="Capa_2" data-name="Capa 2"><g id="Capa_4" data-name="Capa 4"><path class="cls-1" d="M232.91,39a10,10,0,0,1-5.25,1.38,9.8,9.8,0,0,1-7.68-3.3A12.77,12.77,0,0,1,217,28.29,12.77,12.77,0,0,1,220,19.47a9.8,9.8,0,0,1,7.68-3.3,10,10,0,0,1,5.25,1.38,9.11,9.11,0,0,1,3.57,4h11.28a19,19,0,0,0-7.14-10.8,21,21,0,0,0-12.84-4,21.86,21.86,0,0,0-10.95,2.73,19.3,19.3,0,0,0-7.53,7.62,21.23,21.23,0,0,0-2.12,5.67,3.76,3.76,0,0,0-1.22-.51,3.61,3.61,0,0,0-.73-.07h0a4,4,0,0,0-2.52.95,3.77,3.77,0,0,0-1.29-.23,3.57,3.57,0,0,0-1.21.2,3.92,3.92,0,0,0-2.57,3,3.59,3.59,0,0,0-1.24.91,3.79,3.79,0,0,0-.11,4.74,5.34,5.34,0,0,0-.15,1.21,5.69,5.69,0,0,0,4.6,5.71l.27.05h.27c.53,0,1.17,0,1.4.07s.88.29,1.32.47l.25.09.26.06a6.29,6.29,0,0,0,1.14.11,5.63,5.63,0,0,0,3.22-1c.14.28.28.56.43.83A19.35,19.35,0,0,0,216.83,47a21.86,21.86,0,0,0,10.95,2.73,21.06,21.06,0,0,0,12.84-3.93A18.88,18.88,0,0,0,247.76,35H236.48A9.11,9.11,0,0,1,232.91,39ZM207.2,28a1.33,1.33,0,0,1,1.78-.42,1.33,1.33,0,0,1-.19,1.81c-.54.62-1.33.81-1.77.42A1.32,1.32,0,0,1,207.2,28Zm-3.15-1.46a1.94,1.94,0,0,1,.16-.48s0,0,0,0a1.61,1.61,0,0,1,.24-.36l0,0a1.21,1.21,0,0,1,.32-.25h0a1,1,0,0,1,.37-.1h.17a.66.66,0,0,1,.24.11h0a1.08,1.08,0,0,1,.44.59s0,0,0,.05a1.23,1.23,0,0,1,.07.39.22.22,0,0,1,0,.08,2.25,2.25,0,0,1,0,.44h0A1.45,1.45,0,0,1,205,28.19a.74.74,0,0,1-.21,0C204.22,28.07,203.89,27.32,204.05,26.52ZM201.17,26a.61.61,0,0,1,.23,0,1.24,1.24,0,0,1,1,.59,2,2,0,0,1,.25.51,1.34,1.34,0,0,1-.51,1.74h0a.52.52,0,0,1-.21,0h-.22a1.58,1.58,0,0,1-1-1.08.09.09,0,0,0,0-.05,2.29,2.29,0,0,1-.09-.5,1.42,1.42,0,0,1,0-.36s0-.07,0-.11A.93.93,0,0,1,201.17,26Zm-2.51,3a.67.67,0,0,1,.59-.2,1.31,1.31,0,0,1,.72.33c.45.4.59,1,.31,1.29a.7.7,0,0,1-.6.2,1.34,1.34,0,0,1-.72-.33A1,1,0,0,1,198.66,29.05Zm8.84,6.78h0l0,0h0a2.59,2.59,0,0,1-.5.37h0l-.05,0h0a2.68,2.68,0,0,1-1.2.32h-.12a2.18,2.18,0,0,1-.5,0h0l-.7-.26,0,0-.23-.08-.06,0-.47-.15a1.65,1.65,0,0,0-.32-.08l-.33-.05h-.1l-.4,0h0l-.44,0h-.08l-.34,0h-.23a3.23,3.23,0,0,1-.47-.15,2.62,2.62,0,0,1-.62-.33,2.72,2.72,0,0,1-1.07-2.46c0-.06,0-.11,0-.17a2.46,2.46,0,0,1,.07-.29,2.23,2.23,0,0,1,.13-.39,1.14,1.14,0,0,1,.1-.19,2.26,2.26,0,0,1,.25-.38l.12-.13a2.28,2.28,0,0,1,.46-.41h0L202,29.72l.59-.41a2.73,2.73,0,0,1,3.84.76l.28.43h0l1.21,1.88A2.69,2.69,0,0,1,207.5,35.83Zm1.93-3.42a1,1,0,0,1-1.27-.38c-.13-.4.21-.88.78-1.07s1.13,0,1.26.38S210,32.22,209.43,32.41Z"/><path class="cls-1" d="M156.65,27.07a3.69,3.69,0,0,0-1.24-.91,3.94,3.94,0,0,0-2.57-3,3.59,3.59,0,0,0-1.22-.2,3.81,3.81,0,0,0-1.29.23,3.93,3.93,0,0,0-2.51-.95,3.54,3.54,0,0,0-.73.07,3.63,3.63,0,0,0-1.29.55V7.29H133.74L122,36.45,110.22,7.29H98.1V49.41h10.26V24.09l9.48,25.32h8.28l9.42-25.26V49.41H145.8V39.35a5.68,5.68,0,0,0,1.6.24,6.18,6.18,0,0,0,1.13-.11l.26,0,.25-.1c.5-.2,1.11-.41,1.33-.47s.87-.06,1.4-.07H152l.26-.05a5.64,5.64,0,0,0,2.29-1,5.76,5.76,0,0,0,2.32-4.7,6.08,6.08,0,0,0-.16-1.21A3.77,3.77,0,0,0,156.65,27.07Zm-6.26,0a2,2,0,0,1,.26-.51,1.29,1.29,0,0,1,.9-.6.69.69,0,0,1,.32,0l.08,0a1,1,0,0,1,.24.17h0a.91.91,0,0,1,.11.16,1.24,1.24,0,0,1,.1.2,1.21,1.21,0,0,1,0,.18c0,.1,0,.2,0,.3v.17a2,2,0,0,1-.1.52,1.43,1.43,0,0,1-1.26,1.1.49.49,0,0,1-.21,0h0A1.34,1.34,0,0,1,150.39,27.08Zm-3.5-.67A1.85,1.85,0,0,1,147,26v0a1,1,0,0,1,.7-.71h.17a.92.92,0,0,1,.36.1h0a1.18,1.18,0,0,1,.31.25l0,0a1.91,1.91,0,0,1,.25.36s0,0,0,.05a2.07,2.07,0,0,1,.15.46h0c.16.8-.17,1.55-.74,1.66h0c-.58.11-1.17-.45-1.33-1.25a1.81,1.81,0,0,1,0-.46Zm-2.82,1.15a1.3,1.3,0,0,1,1.73.38h0s0,0,0,0c.54.62.63,1.43.19,1.81a.7.7,0,0,1-.23.11h0a1.43,1.43,0,0,1-1.55-.53A1.32,1.32,0,0,1,144.07,27.56Zm-.46,4.85c-.56-.19-.91-.67-.77-1.07s.7-.57,1.27-.38.91.67.77,1.07S144.18,32.61,143.61,32.41ZM153.74,34l-.06.16h0c0,.1-.09.2-.14.3h0c0,.08-.1.16-.15.24h0l-.14.19h0a2.65,2.65,0,0,1-.42.4h0l-.19.11h0a2.63,2.63,0,0,1-.41.21,2.44,2.44,0,0,1-.5.16l-.77,0-.64,0a4.73,4.73,0,0,0-.52.07,2.79,2.79,0,0,0-.5.14l-.61.2-.72.27h0a2.18,2.18,0,0,1-.5,0h-.12a2.72,2.72,0,0,1-2.2-4.19l1.5-2.32a2.75,2.75,0,0,1,3.84-.76l.59.41,1.67,1.16a3.19,3.19,0,0,1,.47.42l.11.13a2,2,0,0,1,.26.39l.08.14a3.66,3.66,0,0,1,.15.43c0,.1,0,.19.06.29s0,.12,0,.18a3,3,0,0,1-.14,1.15Zm.34-3.67a1.31,1.31,0,0,1-.72.33.68.68,0,0,1-.59-.2c-.28-.32-.14-.89.3-1.29a1.38,1.38,0,0,1,.72-.33.82.82,0,0,1,.23,0h.11a.56.56,0,0,1,.26.17C154.67,29.37,154.53,29.94,154.08,30.34Z"/><path class="cls-1" d="M10.26,7.29v25.2a8.34,8.34,0,0,0,1.86,5.82,7,7,0,0,0,5.46,2,7.22,7.22,0,0,0,5.52-2A8.17,8.17,0,0,0,25,32.49V7.29H35.28V32.43A17.87,17.87,0,0,1,32.88,42a15.37,15.37,0,0,1-6.45,5.88,20.28,20.28,0,0,1-9,2,19.78,19.78,0,0,1-8.91-1.95A14.54,14.54,0,0,1,2.28,42,18.78,18.78,0,0,1,0,32.43V7.29Z"/><path class="cls-1" d="M68.28,49.41,59.7,36.51l-7.56,12.9H40.5L54,28,40.2,7.29H52.14L60.6,20,68,7.29H79.68L66.3,28.53,80.22,49.41Z"/><path class="cls-1" d="M280.28,42H264.56L262,49.41H251.3L266.54,7.29h11.88l15.24,42.12H282.8Zm-2.64-7.92-5.22-15.42-5.16,15.42Z"/><path class="cls-2" d="M204.86,28.18h-.06c-.57-.11-.91-.86-.75-1.66a1.71,1.71,0,0,1,.67-1.1,28.35,28.35,0,0,0-56.39,0,1.7,1.7,0,0,1,.66,1.1c.16.8-.17,1.55-.74,1.66h-.07v.17c0,.19,0,.39,0,.58a2.75,2.75,0,0,1,2.28.38l.59.41,1.67,1.16a2.73,2.73,0,0,1,.08,4.43,2.82,2.82,0,0,1-1.1.48,16,16,0,0,0-1.93.13,3.79,3.79,0,0,0-.53.15,28.35,28.35,0,0,0,54.55,0,3.52,3.52,0,0,0-.54-.15,15.88,15.88,0,0,0-1.93-.13,2.72,2.72,0,0,1-1-4.91L202,29.72l.59-.41a2.72,2.72,0,0,1,2.27-.38c0-.19,0-.39,0-.58S204.86,28.24,204.86,28.18Zm-52.47-.42c-.26.77-.92,1.25-1.47,1.06h0a1.34,1.34,0,0,1-.51-1.74,2,2,0,0,1,.26-.51,1.13,1.13,0,0,1,1.22-.56C152.43,26.2,152.66,27,152.39,27.76Zm1.69,2.58a1,1,0,0,1-1.31.13c-.28-.32-.14-.89.3-1.29a1,1,0,0,1,1.32-.13C154.67,29.37,154.53,29.94,154.08,30.34Zm25.14-3.88a4,4,0,0,1,3.43-1,.36.36,0,0,1,0,.7,4.32,4.32,0,0,0-2.31,1.58.33.33,0,0,1-.4.1l-.57-.26A.69.69,0,0,1,179.22,26.46Zm-8.86-1a4,4,0,0,1,3.43,1,.69.69,0,0,1-.18,1.13l-.57.26a.33.33,0,0,1-.4-.1,4.32,4.32,0,0,0-2.31-1.58A.36.36,0,0,1,170.36,25.47ZM158,10.87c3.68-1.1,7.91,4,8.15,4.28a20.78,20.78,0,0,0-9,10.46C157,24.7,154.35,12,158,10.87ZM164,46h0s-.58-.18-1.4-.52h0c-.85-.39-1.64-.78-2.36-1.16h0a28.78,28.78,0,0,1-3.1-1.88,1,1,0,0,1-.41-.57,9.15,9.15,0,0,1-.43-3.54c.27-3.31,2.43-5.89,4.09-7.4a5.28,5.28,0,0,1,4-1.35l2.52.21a.7.7,0,0,1,.4,1.24c-1.69,1.4-4.24,4.11-4.54,7.82a10.71,10.71,0,0,0,1.82,6.57A.42.42,0,0,1,164,46Zm12.47,2.77c-6.64,0-12-4.15-12-9.26,0-3.16,2.05-5.95,5.18-7.62h.11l.25,0a2,2,0,0,0,2-1.58,9.74,9.74,0,0,1,9,0A2,2,0,0,0,183,32l.24,0h.11c3.13,1.67,5.19,4.46,5.19,7.62C188.52,44.65,183.14,48.8,176.51,48.8Zm19.76-6.93h0a1.08,1.08,0,0,1-.41.56,29.55,29.55,0,0,1-3.09,1.88h0c-.72.38-1.5.77-2.36,1.16h0A14.85,14.85,0,0,1,189,46h0a.43.43,0,0,1-.55-.61,10.69,10.69,0,0,0,1.81-6.56c-.3-3.71-2.85-6.42-4.54-7.82a.7.7,0,0,1,.4-1.24l2.52-.21a5.28,5.28,0,0,1,4,1.35c1.66,1.51,3.82,4.09,4.09,7.4A9.15,9.15,0,0,1,196.27,41.87Zm-.45-16.26a20.81,20.81,0,0,0-8.95-10.46c.23-.28,4.46-5.38,8.14-4.28S196,24.7,195.82,25.61Zm4.46,4.86a1.14,1.14,0,0,1-1.62-1.42,1,1,0,0,1,1.31.13C200.42,29.58,200.56,30.15,200.28,30.47Zm1.86-1.65h0c-.55.19-1.21-.29-1.48-1.06s0-1.56.52-1.75a1.15,1.15,0,0,1,1.23.56,2,2,0,0,1,.25.51A1.34,1.34,0,0,1,202.14,28.82Z"/><path class="cls-1" d="M185,29.94a2,2,0,0,1-1.65,2h-.11L183,32a2,2,0,1,1,2-2Z"/><path class="cls-1" d="M195.82,25.61v.05"/><path class="cls-1" d="M186.87,15.15h0"/><path class="cls-1" d="M168,29.94a2,2,0,0,0,1.65,2h.11l.25,0a2,2,0,0,0,2-1.58,2,2,0,1,0-4-.43Z"/><path class="cls-1" d="M157.19,25.61v.05"/><path class="cls-1" d="M166.15,15.15h0"/><path class="cls-1" d="M180.92,40.19a.3.3,0,0,0-.43,0c-1.43,1.43-3.21.38-3.68.06V39h.11a2,2,0,0,0,.42,0,.32.32,0,0,0,.2-.16.49.49,0,0,1,.45-.29h0a.26.26,0,0,0,.22-.09,1.83,1.83,0,0,0,.23-2.25l-.42-.68a1.83,1.83,0,0,0-3.13,0l-.42.68a1.83,1.83,0,0,0,.23,2.25.26.26,0,0,0,.22.09H175a.5.5,0,0,1,.46.29.28.28,0,0,0,.19.16,2,2,0,0,0,.42,0h.11v1.22c-.47.32-2.25,1.37-3.68-.06a.3.3,0,0,0-.43,0,.31.31,0,0,0,0,.42,2.94,2.94,0,0,0,2.14.91,4.24,4.24,0,0,0,2.28-.75,3.4,3.4,0,0,0,4.41-.16A.29.29,0,0,0,180.92,40.19Z"/></g></g></svg>