<svg xmlns="http://www.w3.org/2000/svg" width="115" height="22" viewBox="0 0 115 22" fill="none">
  <g clip-path="url(#clip0_605_17090)">
    <path d="M4.20218 2.21436V12.7703C4.14506 13.6512 4.41684 14.5215 4.96268 15.2056C5.25444 15.5042 5.60561 15.7352 5.99237 15.8828C6.37912 16.0304 6.7924 16.0912 7.20416 16.0611C7.61872 16.0889 8.03437 16.0271 8.42402 15.8797C8.81367 15.7323 9.16859 15.5026 9.46565 15.2056C10.0317 14.531 10.3188 13.6576 10.2662 12.7703V2.21436H14.4489V12.7416C14.4926 14.1419 14.153 15.5269 13.4683 16.7405C12.8377 17.8025 11.9203 18.6553 10.8266 19.1963C9.67148 19.7557 8.40601 20.0358 7.12811 20.0149C5.86555 20.0367 4.61549 19.7564 3.4777 19.1963C2.40821 18.6562 1.52151 17.8008 0.932016 16.7405C0.281282 15.5151 -0.0404985 14.1354 -0.000599636 12.7416V2.21436H4.20218Z" fill="#DF482B"/>
    <path d="M27.9664 19.8553L24.4521 14.4525L21.354 19.8553H16.5869L22.1185 10.8834L16.4668 2.21436H21.354L24.8203 7.53529L27.8663 2.21436H32.6375L27.1539 11.1085L32.8576 19.8553H27.9664Z" fill="#DF482B"/>
    <path d="M59.7146 2.21436V19.8553H55.5119V9.27482L51.6573 19.8553H48.2631L44.3805 9.25026V19.8553H40.1777V2.21436H45.145L49.9842 14.4279L54.7874 2.21436H59.7146Z" fill="#DF482B"/>
    <path d="M82.4542 6.34834C83.1659 5.00773 84.2345 3.90078 85.5362 3.15578C86.9074 2.3814 88.453 1.98769 90.0192 2.01383C91.8985 1.96934 93.7404 2.55593 95.2627 3.68378C96.7202 4.79031 97.7537 6.38288 98.1846 8.18611H93.5815C93.2706 7.48821 92.7616 6.90207 92.1206 6.50388C91.468 6.11342 90.7231 5.91378 89.9672 5.92676C89.3763 5.90511 88.7881 6.01757 88.2448 6.25607C87.7016 6.49456 87.2167 6.85317 86.8251 7.30611C86.0246 8.2284 85.6243 9.45631 85.6243 10.9898C85.6243 12.5233 86.0246 13.7513 86.8251 14.6736C87.2163 15.1272 87.701 15.4866 88.2443 15.7258C88.7876 15.965 89.376 16.0781 89.9672 16.057C90.7231 16.07 91.468 15.8703 92.1206 15.4799C92.7626 15.0812 93.2719 14.4934 93.5815 13.7936H98.2006C97.7738 15.5986 96.7394 17.1925 95.2787 18.2959C93.7473 19.4142 91.9001 19.9892 90.0192 19.9331C88.4547 19.9731 86.9073 19.592 85.5322 18.828C84.2339 18.0858 83.1659 16.9852 82.4502 15.6518C81.6937 14.226 81.3117 12.624 81.3415 11.0021C81.3153 9.37887 81.6986 7.77612 82.4542 6.34834Z" fill="#DF482B"/>
    <path d="M109.52 16.7405H103.08L102.067 19.8553H97.6641L103.908 2.21436H108.775L115.016 19.8553H110.553L109.52 16.7405ZM108.439 13.4211L106.302 6.95817L104.188 13.4211H108.439Z" fill="#DF482B"/>
    <path d="M70.5306 22.0041C76.4727 22.0041 81.2897 17.0783 81.2897 11.002C81.2897 4.92578 76.4727 0 70.5306 0C64.5885 0 59.7715 4.92578 59.7715 11.002C59.7715 17.0783 64.5885 22.0041 70.5306 22.0041Z" fill="#DF482B"/>
    <path d="M60.479 8.59544C60.5189 8.59142 60.5591 8.59142 60.5991 8.59544H60.6231C60.663 8.59137 60.7032 8.59137 60.7432 8.59544C60.7801 8.60112 60.8163 8.61073 60.8512 8.6241L60.9633 8.67731C61.0396 8.72372 61.1095 8.78013 61.1715 8.84512C61.2373 8.91708 61.2926 8.99842 61.3356 9.08661C61.441 8.98414 61.5685 8.90843 61.7078 8.86558H61.7398H61.8079H61.8679H62.044C62.0835 8.87125 62.1224 8.88084 62.1601 8.89424C62.264 8.93305 62.3589 8.99347 62.4388 9.07166C62.5187 9.14986 62.5819 9.24414 62.6244 9.34856C62.6375 9.37903 62.6482 9.41051 62.6564 9.4427C62.6715 9.48769 62.6809 9.53445 62.6845 9.58186C62.6864 9.60228 62.6864 9.62284 62.6845 9.64326C62.6863 9.66505 62.6863 9.68696 62.6845 9.70875C62.6884 9.77144 62.6884 9.83433 62.6845 9.89703C62.7867 9.89268 62.8888 9.90938 62.9847 9.94614C63.0266 9.96246 63.0668 9.98303 63.1047 10.0075C63.1462 10.0397 63.1851 10.0753 63.2208 10.114C63.267 10.1707 63.3048 10.2342 63.3329 10.3022C63.3689 10.0771 63.4129 9.852 63.469 9.63098L63.3849 9.22168C63.1328 8.01424 62.4203 4.03582 63.8332 3.60605C65.2461 3.17628 66.7912 5.01814 66.9633 5.24326V5.26782C68.0372 4.70467 69.2267 4.41096 70.4336 4.41096C71.6404 4.41096 72.83 4.70467 73.9039 5.26782L73.9239 5.24326C74.092 5.03042 75.629 3.19675 77.0539 3.60605C78.4789 4.01535 77.7544 8.01424 77.5022 9.22168L77.4182 9.63098C77.4699 9.8333 77.5113 10.0382 77.5423 10.2449C77.5423 10.2654 77.5423 10.2818 77.5423 10.3022C77.5703 10.2342 77.6081 10.1707 77.6543 10.114C77.6906 10.0742 77.7308 10.0386 77.7744 10.0075H77.7944C77.831 9.98305 77.8699 9.96248 77.9105 9.94614C78.0063 9.90905 78.1084 9.89234 78.2107 9.89703C78.2047 9.83442 78.2047 9.77136 78.2107 9.70875V9.64326C78.2107 9.62279 78.2107 9.60233 78.2107 9.58186C78.2107 9.5614 78.2107 9.48772 78.2387 9.4427C78.247 9.41051 78.2577 9.37903 78.2708 9.34856C78.345 9.17102 78.4783 9.02604 78.647 8.93926C78.6748 8.92344 78.7044 8.91108 78.7351 8.90242C78.7741 8.88902 78.8143 8.87942 78.8551 8.87377H79.0313H79.0873H79.1553H79.1914C79.3291 8.9176 79.455 8.99323 79.5596 9.09479C79.6054 9.00731 79.6619 8.92616 79.7277 8.8533C79.7888 8.78735 79.8589 8.73082 79.9359 8.68549L80.0479 8.63228C80.0829 8.61891 80.1191 8.60931 80.156 8.60363H80.2721H80.4522C80.4935 8.59939 80.535 8.59939 80.5763 8.60363C80.0482 6.28052 78.7666 4.20862 76.9402 2.72529C75.1137 1.24196 72.85 0.43457 70.5176 0.43457C68.1852 0.43457 65.9215 1.24196 64.0951 2.72529C62.2687 4.20862 60.9871 6.28052 60.459 8.60363L60.479 8.59544Z" fill="white"/>
    <path d="M66.5037 5.35775C65.9994 4.79291 65.1228 4.04798 64.3543 4.04798C64.2486 4.04629 64.1433 4.06148 64.0421 4.093C63.3977 4.28947 63.4217 6.34826 63.7779 8.41933C64.3993 7.16567 65.3413 6.10765 66.5037 5.35775Z" fill="white"/>
    <path d="M77.0183 4.09301C76.1857 3.83924 75.129 4.71515 74.5566 5.35775C75.7191 6.10765 76.6611 7.16568 77.2824 8.41933C77.6507 6.34826 77.6507 4.28947 77.0183 4.09301Z" fill="white"/>
    <path d="M77.816 11.8944C77.8203 11.689 77.8667 11.4868 77.9521 11.3009L77.9201 11.2763L77.8521 11.2068C77.8046 11.1519 77.7618 11.093 77.724 11.0308C77.724 11.0308 77.724 11.0717 77.724 11.0922C77.724 11.1126 77.724 11.2436 77.724 11.3173C77.7235 11.6393 77.6994 11.9608 77.6519 12.2791C77.6519 12.4019 77.6119 12.5206 77.5879 12.6393C77.6769 12.8492 77.7466 13.067 77.796 13.2901C77.8961 13.1141 77.9922 12.9381 78.0762 12.7539C77.9175 12.523 77.8271 12.2501 77.816 11.9681C77.82 11.9517 77.816 11.923 77.816 11.8944Z" fill="white"/>
    <path d="M71.5186 9.92157L71.7227 10.0157C71.7466 10.0275 71.7737 10.0302 71.7993 10.0235C71.825 10.0168 71.8475 10.0009 71.8628 9.97887C72.0612 9.70347 72.3424 9.50218 72.6633 9.40585C72.6909 9.39864 72.7153 9.38225 72.7327 9.35928C72.7502 9.3363 72.7596 9.30805 72.7596 9.27897C72.7596 9.24988 72.7502 9.22163 72.7327 9.19866C72.7153 9.17568 72.6909 9.1593 72.6633 9.15208C72.4496 9.11564 72.2305 9.12911 72.0226 9.19149C71.8146 9.25386 71.6232 9.36353 71.4625 9.51227C71.432 9.53908 71.4086 9.57331 71.3944 9.6118C71.3802 9.6503 71.3756 9.69182 71.3812 9.73257C71.3868 9.77332 71.4023 9.81198 71.4263 9.845C71.4503 9.87803 71.482 9.90435 71.5186 9.92157Z" fill="white"/>
    <path d="M68.3092 9.41393C68.6302 9.51026 68.9114 9.71155 69.1098 9.98696C69.1251 10.009 69.1476 10.0248 69.1732 10.0316C69.1989 10.0383 69.226 10.0356 69.2498 10.0238L69.454 9.92966C69.4908 9.91285 69.5229 9.88684 69.5473 9.85401C69.5717 9.82118 69.5876 9.7826 69.5936 9.74182C69.5996 9.70104 69.5954 9.65937 69.5815 9.62067C69.5676 9.58196 69.5444 9.54747 69.514 9.52035C69.3535 9.37135 69.1621 9.26153 68.9541 9.19914C68.7461 9.13675 68.527 9.12342 68.3132 9.16017C68.2856 9.16691 68.2609 9.18289 68.2431 9.20558C68.2252 9.22827 68.2153 9.25637 68.2149 9.28546C68.2144 9.31455 68.2234 9.34297 68.2405 9.36623C68.2576 9.3895 68.2818 9.40628 68.3092 9.41393Z" fill="white"/>
    <path d="M63.4507 12.5327C63.3728 12.1283 63.3339 11.717 63.3347 11.3048C63.3347 11.2107 63.3347 11.1125 63.3347 11.0183C63.2947 11.0884 63.2463 11.153 63.1906 11.2107C63.1742 11.2294 63.1569 11.2472 63.1385 11.2639L63.1065 11.2844C63.1919 11.4703 63.2383 11.6725 63.2426 11.8778C63.2426 11.9106 63.2426 11.9392 63.2426 11.9679C63.2307 12.2486 63.1404 12.5199 62.9824 12.7497C63.0545 12.9011 63.1345 13.0525 63.2146 13.1958C63.2729 12.9645 63.3534 12.7397 63.4547 12.5245L63.4507 12.5327Z" fill="white"/>
    <path d="M82.6433 11.1249C82.5856 10.9623 82.4717 10.8269 82.3231 10.7443L82.2911 10.7238L82.187 10.6829C82.2413 10.5884 82.2817 10.4864 82.3071 10.38C82.309 10.3432 82.309 10.3063 82.3071 10.2695C82.309 10.249 82.309 10.2285 82.3071 10.2081C82.3091 10.1767 82.3091 10.1453 82.3071 10.1139C82.3091 10.0894 82.3091 10.0648 82.3071 10.0403V9.95839L82.2831 9.87653L82.2591 9.81104C82.2441 9.77965 82.2267 9.74954 82.207 9.721C82.1992 9.70377 82.1898 9.68733 82.179 9.67188C82.1474 9.6271 82.1112 9.58594 82.0709 9.54909L81.9909 9.48769H81.9669L81.8988 9.45086H81.8748L81.7867 9.42221L81.6827 9.40174H81.5826C81.4703 9.4037 81.3592 9.42586 81.2544 9.46723C81.2476 9.40924 81.2369 9.3518 81.2224 9.29532C81.2093 9.23943 81.1919 9.18469 81.1703 9.1316C81.1594 9.10445 81.146 9.07841 81.1303 9.05383L81.0983 9.00472C81.0925 8.99325 81.0858 8.98229 81.0783 8.97197L81.0303 8.91058C81.011 8.88798 80.9895 8.86742 80.9662 8.84918C80.8733 8.76761 80.7618 8.71131 80.642 8.68546C80.6007 8.68122 80.5592 8.68122 80.5179 8.68546H80.4539C80.4153 8.68126 80.3764 8.68126 80.3378 8.68546C80.3009 8.69114 80.2647 8.70074 80.2297 8.71411L80.1176 8.76732C80.0407 8.81265 79.9706 8.86918 79.9095 8.93514C79.8437 9.00799 79.7872 9.08915 79.7414 9.17662C79.6368 9.07506 79.5108 8.99943 79.3732 8.9556H79.3371H79.2691H79.213H79.0369C79.0183 8.95369 78.9995 8.95369 78.9809 8.9556H78.9169C78.8862 8.96426 78.8566 8.97662 78.8288 8.99244C78.6601 9.07922 78.5268 9.2242 78.4525 9.40174C78.4395 9.43221 78.4288 9.46369 78.4205 9.49588C78.4205 9.5409 78.4205 9.59002 78.3925 9.63504C78.3645 9.68007 78.3925 9.67597 78.3925 9.69644V9.76193C78.3865 9.82454 78.3865 9.8876 78.3925 9.95021C78.2902 9.94552 78.1881 9.96223 78.0923 9.99932C78.0517 10.0157 78.0128 10.0362 77.9762 10.0607H77.9562C77.9126 10.0917 77.8724 10.1274 77.8361 10.1671C77.7899 10.2239 77.7521 10.2873 77.7241 10.3554C77.7241 10.3554 77.7241 10.3186 77.7241 10.2981C77.6931 10.0914 77.6517 9.88648 77.6 9.68416L77.684 9.27486C77.8521 8.45625 78.2244 6.43021 78.0323 5.03448C77.9402 4.33867 77.7041 3.80658 77.2317 3.65923L77.1197 3.63058C75.7267 3.31542 74.2658 5.07951 74.1017 5.26779L74.0817 5.29235C73.0078 4.7292 71.8182 4.43549 70.6114 4.43549C69.4045 4.43549 68.215 4.7292 67.1411 5.29235V5.26779C66.977 5.06314 65.516 3.30314 64.1231 3.63058L64.011 3.65923C63.5427 3.80248 63.3065 4.33867 63.2105 5.03448C63.0223 6.43021 63.3946 8.46853 63.5627 9.27486L63.6468 9.68416C63.5907 9.90518 63.5467 10.1303 63.5107 10.3554C63.4826 10.2873 63.4448 10.2239 63.3986 10.1671C63.3629 10.1284 63.324 10.0928 63.2825 10.0607C63.2446 10.0362 63.2044 10.0156 63.1624 9.99932C63.0666 9.96256 62.9645 9.94586 62.8622 9.95021C62.8661 9.88751 62.8661 9.82462 62.8622 9.76193C62.8641 9.74014 62.8641 9.71823 62.8622 9.69644C62.8642 9.67602 62.8642 9.65546 62.8622 9.63504C62.8587 9.58763 62.8493 9.54087 62.8342 9.49588C62.826 9.46369 62.8153 9.43221 62.8022 9.40174C62.7597 9.29732 62.6965 9.20304 62.6166 9.12484C62.5367 9.04665 62.4418 8.98624 62.3379 8.94742H62.2739H62.2218H62.0457H61.9857H61.9176H61.8856C61.7463 8.99026 61.6188 9.06597 61.5133 9.16844C61.4703 9.08025 61.4151 8.99891 61.3492 8.92695C61.2873 8.86196 61.2173 8.80555 61.1411 8.75914L61.029 8.70593C60.9941 8.69256 60.9579 8.68296 60.921 8.67728C60.881 8.6732 60.8408 8.6732 60.8009 8.67728H60.7769C60.7369 8.67325 60.6967 8.67325 60.6568 8.67728C60.537 8.70312 60.4255 8.75943 60.3326 8.841C60.3126 8.86146 60.2925 8.87783 60.2725 8.90239C60.2557 8.91966 60.2409 8.9389 60.2285 8.95969L60.2005 8.99653L60.1725 9.04155C60.1725 9.06611 60.1444 9.09476 60.1324 9.12342C60.1096 9.1764 60.0909 9.23115 60.0764 9.28714C60.0611 9.34326 60.0517 9.40088 60.0484 9.45904C59.9423 9.41729 59.8298 9.39511 59.7162 9.39356H59.6201L59.516 9.41402L59.432 9.44676H59.404L59.3399 9.4836H59.3119L59.2318 9.545C59.1927 9.5815 59.1566 9.6212 59.1238 9.66369C59.113 9.67914 59.1036 9.69559 59.0958 9.71281C59.0759 9.7405 59.0597 9.77078 59.0477 9.80286C59.0362 9.82318 59.0281 9.84531 59.0237 9.86835C59.0126 9.89497 59.0032 9.92231 58.9957 9.95021V10.0321C58.9957 10.0566 58.9957 10.0812 58.9957 10.1098V10.1999C58.9957 10.1999 58.9957 10.2408 58.9957 10.2613C58.9934 10.2967 58.9934 10.3323 58.9957 10.3677C59.0183 10.4699 59.0561 10.5679 59.1078 10.6583L59.0037 10.6992C58.8434 10.7852 58.7226 10.9322 58.6675 11.1085C58.6656 11.1372 58.6656 11.1659 58.6675 11.1945V11.2436V11.3214C58.6675 11.3418 58.6675 11.3582 58.6675 11.3787C58.6655 11.4114 58.6655 11.4442 58.6675 11.4769C58.6655 11.4891 58.6655 11.5015 58.6675 11.5137C58.6793 11.5589 58.6954 11.6028 58.7155 11.6447C58.7677 11.7497 58.8398 11.8429 58.9276 11.919C59.0212 11.9986 59.1284 12.0597 59.2438 12.099H59.3119C59.3055 12.2944 59.3373 12.4891 59.4054 12.6717C59.4734 12.8543 59.5765 13.0213 59.7084 13.1627C59.8404 13.3041 59.9986 13.4171 60.1738 13.4953C60.349 13.5734 60.5377 13.6149 60.7288 13.6176H60.7929C60.8682 13.6175 60.9434 13.6092 61.017 13.593L61.0971 13.5684C61.3052 13.4866 61.5814 13.3883 61.6695 13.3679C61.8688 13.3452 62.0692 13.3329 62.2699 13.331H62.3539C62.5598 13.2894 62.754 13.2013 62.9223 13.0732C63.0461 12.9828 63.1532 12.8705 63.2385 12.7416C63.3965 12.5118 63.4868 12.2405 63.4987 11.9599C63.4987 11.9312 63.4987 11.9026 63.4987 11.8698C63.4944 11.6645 63.448 11.4623 63.3626 11.2763L63.3946 11.2559C63.4129 11.2392 63.4303 11.2214 63.4466 11.2027C63.5024 11.145 63.5508 11.0804 63.5907 11.0103C63.5907 11.1044 63.5907 11.2027 63.5907 11.2968C63.59 11.709 63.6289 12.1203 63.7068 12.5247C63.6054 12.7399 63.525 12.9647 63.4666 13.196C63.4168 13.3864 63.3833 13.5808 63.3666 13.7772C63.3329 14.2408 63.3887 14.7067 63.5307 15.1483C63.5708 15.2817 63.6523 15.3981 63.7628 15.4799C64.1147 15.7265 64.4795 15.9534 64.8556 16.1593H64.8836C65.1598 16.3067 65.448 16.454 65.7281 16.5686H65.7602C66.0003 16.6709 66.1604 16.7323 66.2325 16.7528L66.2685 16.7733H66.0443C66.0815 16.7793 66.1193 16.7793 66.1564 16.7733C66.1883 16.7772 66.2206 16.7772 66.2525 16.7733C67.5154 17.654 69.0086 18.1251 70.5373 18.1251C72.066 18.1251 73.5592 17.654 74.8221 16.7733H74.8622C74.8981 16.7772 74.9343 16.7772 74.9702 16.7733H74.9943L75.0263 16.7528C75.0983 16.7283 75.2744 16.6669 75.5026 16.5686H75.5266C75.8108 16.4376 76.099 16.2903 76.3752 16.1593L76.4072 16.1389C76.7829 15.9345 77.1464 15.7076 77.4959 15.4594C77.6044 15.3808 77.6857 15.269 77.7281 15.1402C77.8701 14.6985 77.9258 14.2326 77.8922 13.769C77.8759 13.6037 77.8492 13.4396 77.8121 13.2778C77.7626 13.0548 77.693 12.8369 77.604 12.627C77.628 12.5083 77.648 12.3896 77.668 12.2669C77.7163 11.9431 77.7404 11.6161 77.7401 11.2886C77.7401 11.2149 77.7401 11.1372 77.7401 11.0635C77.7401 10.9898 77.7401 11.0226 77.7401 11.0021C77.7779 11.0643 77.8207 11.1232 77.8682 11.1781L77.9362 11.2477L77.9682 11.2723C77.8828 11.4582 77.8364 11.6604 77.8321 11.8657C77.8321 11.8944 77.8321 11.923 77.8321 11.9517C77.8432 12.2338 77.9336 12.5066 78.0923 12.7376C78.1787 12.8654 78.2856 12.9775 78.4085 13.0691C78.5787 13.1966 78.774 13.2846 78.9809 13.327H79.0609C79.2629 13.3287 79.4646 13.341 79.6653 13.3638C79.7534 13.3638 80.0296 13.4825 80.2337 13.5643L80.3138 13.5889C80.3888 13.6052 80.4652 13.6134 80.5419 13.6135H80.602C80.8343 13.6145 81.0632 13.5563 81.268 13.4441C81.4728 13.3319 81.6469 13.1692 81.7747 12.9709C81.9458 12.7132 82.0314 12.4061 82.0189 12.0949H82.0429C82.0589 12.0968 82.075 12.0968 82.0909 12.0949C82.3172 12.0196 82.5054 11.8564 82.6153 11.6406C82.695 11.4737 82.7093 11.2818 82.6553 11.1044L82.6433 11.1249ZM71.4599 9.51225C71.6206 9.36351 71.812 9.25385 72.02 9.19147C72.2279 9.1291 72.447 9.11563 72.6607 9.15207C72.6883 9.15928 72.7127 9.17567 72.7301 9.19864C72.7476 9.22161 72.757 9.24987 72.757 9.27895C72.757 9.30803 72.7476 9.33629 72.7301 9.35926C72.7127 9.38224 72.6883 9.39862 72.6607 9.40583C72.3398 9.50216 72.0586 9.70345 71.8602 9.97886C71.8449 10.0009 71.8224 10.0167 71.7967 10.0235C71.7711 10.0302 71.7439 10.0275 71.7201 10.0157L71.516 9.92155C71.4794 9.90434 71.4477 9.87801 71.4237 9.84499C71.3997 9.81196 71.3842 9.7733 71.3786 9.73256C71.373 9.69181 71.3776 9.65028 71.3918 9.61179C71.406 9.5733 71.4294 9.53907 71.4599 9.51225ZM68.3178 9.15207C68.5316 9.11532 68.7507 9.12865 68.9587 9.19104C69.1667 9.25343 69.3582 9.36325 69.5186 9.51225C69.549 9.53936 69.5722 9.57386 69.5862 9.61257C69.6001 9.65127 69.6042 9.69294 69.5982 9.73372C69.5923 9.7745 69.5763 9.81308 69.5519 9.84591C69.5275 9.87874 69.4954 9.90475 69.4586 9.92155L69.2545 10.0157C69.2306 10.0275 69.2035 10.0302 69.1778 10.0235C69.1522 10.0167 69.1297 10.0009 69.1144 9.97886C68.916 9.70345 68.6348 9.50216 68.3138 9.40583C68.2864 9.39818 68.2622 9.38139 68.2451 9.35813C68.228 9.33487 68.219 9.30645 68.2195 9.27736C68.2199 9.24827 68.2299 9.22016 68.2477 9.19748C68.2655 9.17479 68.2902 9.15881 68.3178 9.15207ZM64.043 4.09309C64.1442 4.06157 64.2495 4.04638 64.3552 4.04807C65.1237 4.04807 66.0003 4.793 66.5046 5.35783C65.3422 6.10773 64.4002 7.16576 63.7788 8.41941C63.4226 6.34835 63.3986 4.28955 64.043 4.09309ZM65.3959 13.9818C65.3477 14.7434 65.5173 15.5029 65.8842 16.1675L65.9563 16.3026L65.6681 16.188C65.4039 16.0652 65.1357 15.9301 64.8676 15.7787H64.8396C64.4697 15.5791 64.1116 15.3577 63.7668 15.1156C63.7392 15.0961 63.7193 15.067 63.7108 15.0337C63.5888 14.6498 63.5412 14.2452 63.5707 13.8427C63.7094 12.8593 64.1983 11.9629 64.9436 11.3255C65.1114 11.1756 65.3072 11.0621 65.5191 10.9918C65.7309 10.9214 65.9546 10.8957 66.1764 10.9162L67.073 10.9898C66.5047 11.4605 65.512 12.5247 65.3959 13.9818ZM70.7234 17.6001H70.4953C70.3992 17.6001 70.3072 17.6001 70.2111 17.6001C67.9936 17.4855 66.2405 16.0324 66.2405 14.2561C66.2405 13.11 66.969 12.099 68.0777 11.4933C67.9453 11.4684 67.8225 11.4054 67.7238 11.3117C67.6251 11.2181 67.5546 11.0976 67.5204 10.9644C67.4863 10.8312 67.49 10.6908 67.5311 10.5596C67.5722 10.4285 67.649 10.3121 67.7525 10.224C67.856 10.1359 67.9819 10.0798 68.1154 10.0622C68.249 10.0446 68.3847 10.0664 68.5066 10.1248C68.6285 10.1833 68.7316 10.2761 68.8038 10.3923C68.876 10.5085 68.9143 10.6434 68.9142 10.7811C68.9184 10.8315 68.9184 10.8821 68.9142 10.9325C69.4089 10.6702 69.958 10.5333 70.5153 10.5333C71.0726 10.5333 71.6216 10.6702 72.1164 10.9325C72.1122 10.8821 72.1122 10.8315 72.1164 10.7811C72.1154 10.6422 72.1533 10.5059 72.2255 10.3883C72.2977 10.2707 72.4014 10.1767 72.5241 10.1173C72.6469 10.0579 72.7837 10.0356 72.9185 10.0531C73.0532 10.0706 73.1803 10.1271 73.2847 10.2159C73.389 10.3048 73.4664 10.4223 73.5077 10.5547C73.5489 10.687 73.5523 10.8286 73.5174 10.9629C73.4825 11.0971 73.4109 11.2184 73.3109 11.3123C73.2109 11.4063 73.0867 11.4691 72.9529 11.4933C74.0616 12.099 74.7901 13.11 74.7901 14.2561C74.7501 16.0406 72.9689 17.5018 70.7234 17.6001ZM77.2758 15.0174C77.2651 15.0496 77.2439 15.0771 77.2157 15.0951C76.8721 15.3401 76.5138 15.5629 76.143 15.7623H76.115C75.8628 15.9015 75.5987 16.0324 75.3145 16.1716L75.0263 16.2862L75.0623 16.2207C75.4533 15.5393 75.6359 14.7539 75.5866 13.9655C75.4706 12.5083 74.4779 11.4605 73.8975 10.9653L74.7941 10.8916H74.9262C75.3386 10.8799 75.7402 11.0275 76.051 11.305C76.7986 11.9439 77.2878 12.8438 77.4239 13.8304C77.4239 13.859 77.4239 13.8918 77.4239 13.9204C77.4387 14.2908 77.3886 14.661 77.2758 15.0133V15.0174ZM77.2758 8.42351C76.6544 7.16985 75.7124 6.11183 74.55 5.36193C75.1223 4.71932 76.179 3.84342 77.0116 4.09718C77.652 4.28955 77.652 6.34835 77.2838 8.41941L77.2758 8.42351Z" fill="#DF482B"/>
    <path d="M76.0493 11.305C75.7471 11.0274 75.3549 10.8742 74.9486 10.8752H74.8165L73.9199 10.9489C74.5003 11.4442 75.493 12.492 75.609 13.9491C75.6596 14.7632 75.4639 15.5734 75.0487 16.2699L75.3369 16.1552C75.609 16.0284 75.8732 15.8974 76.1374 15.7459H76.1654C76.5362 15.5466 76.8944 15.3237 77.2381 15.0788C77.2663 15.0607 77.2875 15.0332 77.2982 15.001C77.4204 14.62 77.468 14.218 77.4383 13.8181C77.2952 12.8336 76.8004 11.9382 76.0493 11.305Z" fill="white"/>
    <path d="M67.085 10.9816L66.1884 10.9079C65.9666 10.8875 65.7429 10.9132 65.5311 10.9835C65.3192 11.0539 65.1234 11.1674 64.9556 11.3172C64.208 11.9562 63.7188 12.856 63.5827 13.8426C63.5532 14.2452 63.6008 14.6498 63.7228 15.0337C63.7313 15.067 63.7512 15.096 63.7788 15.1156C64.1212 15.3546 64.4767 15.5732 64.8435 15.7705H64.8716C65.1277 15.9096 65.3959 16.0447 65.6721 16.1798L65.9603 16.2944C65.545 15.5979 65.3494 14.7877 65.3999 13.9736C65.512 12.5247 66.5046 11.4605 67.085 10.9816Z" fill="white"/>
    <path d="M72.9128 11.4849H72.8728H72.7888C72.626 11.4858 72.4678 11.4293 72.341 11.3249C72.2141 11.2206 72.1263 11.0747 72.0923 10.9119C71.5976 10.6496 71.0485 10.5127 70.4912 10.5127C69.934 10.5127 69.3849 10.6496 68.8902 10.9119C68.8718 10.9993 68.8379 11.0826 68.7901 11.1575C68.7262 11.2586 68.6385 11.3415 68.5349 11.3988C68.4314 11.456 68.3154 11.4856 68.1977 11.4849H68.1097C68.1097 11.4849 67.7374 11.4194 68.0696 11.4849C66.9609 12.0907 66.2324 13.1017 66.2324 14.2477C66.2324 16.0241 67.9856 17.4771 70.203 17.5917H70.5072H70.7154C72.9609 17.4976 74.742 16.0364 74.742 14.2436C74.75 13.0976 74.0216 12.0907 72.9128 11.4849Z" fill="white"/>
    <path d="M71.9079 14.4812C71.7285 14.6427 71.4988 14.7339 71.2598 14.7384C71.0209 14.7429 70.7881 14.6604 70.603 14.5058V14.0637H70.639C70.6895 14.07 70.7406 14.07 70.7911 14.0637C70.8059 14.0598 70.8196 14.0527 70.8314 14.0428C70.8431 14.0329 70.8526 14.0205 70.8592 14.0064C70.873 13.9748 70.8955 13.948 70.9239 13.9291C70.9523 13.9102 70.9854 13.9001 71.0193 13.9C71.0341 13.9007 71.049 13.8981 71.0628 13.8925C71.0766 13.8868 71.0891 13.8782 71.0993 13.8672C71.199 13.7589 71.2608 13.6199 71.2753 13.4718C71.2898 13.3238 71.2561 13.1751 71.1794 13.0486L71.0313 12.8031C70.9723 12.7066 70.8902 12.6272 70.7929 12.572C70.6956 12.5169 70.5862 12.488 70.4749 12.488C70.3637 12.488 70.2543 12.5169 70.1569 12.572C70.0596 12.6272 69.9776 12.7066 69.9186 12.8031L69.7705 13.0486C69.6938 13.1751 69.66 13.3238 69.6745 13.4718C69.689 13.6199 69.7509 13.7589 69.8505 13.8672C69.8609 13.878 69.8734 13.8865 69.8872 13.8921C69.901 13.8978 69.9157 13.9004 69.9306 13.9H69.9506C69.9844 13.9001 70.0176 13.9102 70.046 13.9291C70.0744 13.948 70.0968 13.9748 70.1107 14.0064C70.1172 14.0205 70.1267 14.0329 70.1385 14.0428C70.1502 14.0527 70.164 14.0598 70.1787 14.0637C70.2292 14.07 70.2803 14.07 70.3308 14.0637H70.3669V14.5058C70.1818 14.6604 69.949 14.7429 69.71 14.7384C69.471 14.7339 69.2414 14.6427 69.062 14.4812C69.0419 14.4619 69.0155 14.4512 68.9879 14.4512C68.9604 14.4512 68.9339 14.4619 68.9139 14.4812C68.9035 14.4912 68.8952 14.5032 68.8895 14.5166C68.8838 14.53 68.8809 14.5444 68.8809 14.559C68.8809 14.5736 68.8838 14.588 68.8895 14.6014C68.8952 14.6147 68.9035 14.6268 68.9139 14.6367C69.0109 14.7408 69.1277 14.8236 69.2571 14.8799C69.3865 14.9362 69.5258 14.9649 69.6664 14.9642C69.9532 14.9553 70.2313 14.8615 70.4669 14.694C70.691 14.8764 70.9715 14.9709 71.2578 14.9604C71.544 14.9499 71.8172 14.8351 72.0279 14.6367C72.0384 14.6268 72.0467 14.6147 72.0524 14.6014C72.058 14.588 72.061 14.5736 72.061 14.559C72.061 14.5444 72.058 14.53 72.0524 14.5166C72.0467 14.5032 72.0384 14.4912 72.0279 14.4812C72.0102 14.4691 71.9893 14.4626 71.9679 14.4626C71.9465 14.4626 71.9256 14.4691 71.9079 14.4812Z" fill="#DF482B"/>
    <path d="M72.7878 11.4973H72.8719H72.9119C73.0444 11.4724 73.1671 11.4094 73.2658 11.3158C73.3645 11.2221 73.435 11.1016 73.4692 10.9684C73.5033 10.8352 73.4996 10.6948 73.4585 10.5637C73.4174 10.4325 73.3406 10.3161 73.2371 10.228C73.1336 10.1399 73.0077 10.0838 72.8742 10.0662C72.7406 10.0487 72.6049 10.0704 72.483 10.1288C72.3611 10.1873 72.258 10.2801 72.1858 10.3963C72.1136 10.5125 72.0753 10.6474 72.0754 10.7851C72.0712 10.8355 72.0712 10.8862 72.0754 10.9366C72.1094 11.0994 72.1972 11.2452 72.3241 11.3496C72.4509 11.4539 72.609 11.5104 72.7718 11.5096L72.7878 11.4973Z" fill="#DF482B"/>
    <path d="M67.4925 10.7729C67.492 10.943 67.5504 11.1079 67.6573 11.2383C67.7643 11.3686 67.9129 11.4561 68.0769 11.4851H68.1169H68.205C68.3227 11.4858 68.4387 11.4561 68.5422 11.3989C68.6457 11.3417 68.7335 11.2587 68.7974 11.1576C68.8452 11.0827 68.8791 10.9995 68.8975 10.912V10.8384C68.8975 10.8138 68.8975 10.7852 68.8975 10.7606C68.8975 10.5685 68.8228 10.3842 68.6899 10.2483C68.5571 10.1125 68.3769 10.0361 68.189 10.0361C68.0705 10.0364 67.9538 10.0659 67.8488 10.1221L67.7887 10.1589C67.6939 10.2286 67.6174 10.3211 67.5657 10.4281C67.5141 10.5352 67.4889 10.6536 67.4925 10.7729Z" fill="#DF482B"/>
    <path d="M79.3411 10.3675C79.444 10.3057 79.5199 10.2061 79.5534 10.0889C79.5869 9.97176 79.5754 9.84596 79.5212 9.73721C79.5008 9.67301 79.4711 9.61231 79.4331 9.55711C79.392 9.48014 79.3278 9.41871 79.25 9.38187C79.1722 9.34502 79.0848 9.33472 79.0008 9.35246C78.8047 9.41795 78.7207 9.70446 78.8127 9.98279C78.9048 10.2611 79.1449 10.433 79.3411 10.3675Z" fill="white"/>
    <path d="M80.2842 10.1343C80.4883 10.1752 80.6845 9.97057 80.7565 9.67997C80.8285 9.38936 80.6925 9.11922 80.4883 9.07829C80.2842 9.03736 80.0881 9.23792 80.02 9.53262C79.952 9.82732 80.0841 10.0934 80.2842 10.1343Z" fill="white"/>
    <path d="M81.7029 10.5642C81.7942 10.4846 81.8519 10.372 81.8639 10.2499C81.8758 10.1279 81.8411 10.0058 81.7669 9.90931C81.6586 9.86255 81.5387 9.85207 81.4242 9.87936C81.3097 9.90666 81.2066 9.97032 81.1297 10.0612C81.0528 10.1521 81.0061 10.2656 80.9961 10.3854C80.9862 10.5052 81.0136 10.6251 81.0745 10.7279C81.2306 10.8589 81.5108 10.7893 81.7029 10.5642Z" fill="white"/>
    <path d="M82.2016 11.2803C82.1536 11.133 81.9534 11.0716 81.7533 11.1412C81.5532 11.2108 81.4291 11.3868 81.4771 11.5505C81.5252 11.7142 81.7253 11.7592 81.9254 11.6896C82.1256 11.6201 82.2496 11.4236 82.2016 11.2803Z" fill="white"/>
    <path d="M78.6832 10.9652C78.7174 10.8857 78.7259 10.7971 78.7076 10.7123C78.6893 10.6274 78.6451 10.5507 78.5814 10.4933C78.5176 10.4359 78.4377 10.4007 78.3531 10.3928C78.2685 10.3849 78.1836 10.4048 78.1108 10.4495C78.0107 10.5641 78.0588 10.7728 78.2189 10.9161C78.379 11.0593 78.5871 11.0798 78.6832 10.9652Z" fill="white"/>
    <path d="M81.3908 11.6569L80.8544 10.8178C80.7841 10.7067 80.6927 10.6111 80.5856 10.5369C80.4785 10.4626 80.3578 10.4111 80.2308 10.3856C80.1039 10.36 79.9731 10.3608 79.8465 10.3879C79.7198 10.4151 79.5998 10.468 79.4935 10.5436L79.2854 10.6909L78.689 11.1002C78.5628 11.1895 78.4593 11.3083 78.3871 11.4468C78.3148 11.5852 78.2759 11.7392 78.2736 11.8961C78.2712 12.053 78.3055 12.2082 78.3736 12.3489C78.4416 12.4895 78.5415 12.6115 78.665 12.7047C78.7836 12.7929 78.9206 12.8517 79.0652 12.8766C79.2928 12.8785 79.5201 12.8949 79.7457 12.9257C79.9669 12.9873 80.1847 13.0611 80.3981 13.1467C80.5817 13.1809 80.771 13.1598 80.9431 13.0861C81.1153 13.0125 81.2628 12.8893 81.3678 12.7316C81.4729 12.5739 81.531 12.3885 81.5351 12.1977C81.5391 12.007 81.489 11.8191 81.3908 11.6569Z" fill="white"/>
    <path d="M61.7122 10.3636C61.9044 10.4291 62.1405 10.2571 62.2326 9.97473C62.3247 9.69231 62.2326 9.40989 62.0485 9.34441C61.9645 9.32666 61.8771 9.33697 61.7993 9.37381C61.7215 9.41066 61.6573 9.47209 61.6162 9.54906C61.5783 9.60494 61.5474 9.66544 61.5241 9.72915C61.4704 9.83948 61.46 9.96663 61.4949 10.0846C61.5299 10.2025 61.6076 10.3023 61.7122 10.3636Z" fill="white"/>
    <path d="M60.7714 10.1342C60.9756 10.0933 61.0957 9.82314 61.0396 9.53254C60.9836 9.24193 60.7714 9.03728 60.5673 9.07821C60.3632 9.11914 60.2471 9.38928 60.3031 9.67988C60.3592 9.97049 60.5713 10.1751 60.7714 10.1342Z" fill="white"/>
    <path d="M59.987 10.7196C60.0479 10.6168 60.0753 10.4969 60.0654 10.3771C60.0554 10.2573 60.0087 10.1438 59.9318 10.0529C59.8549 9.96202 59.7518 9.89836 59.6373 9.87106C59.5228 9.84377 59.4029 9.85425 59.2946 9.90101C59.2204 9.99748 59.1857 10.1195 59.1976 10.2416C59.2096 10.3637 59.2673 10.4763 59.3586 10.5559C59.5507 10.7892 59.8309 10.8588 59.987 10.7196Z" fill="white"/>
    <path d="M59.5825 11.5299C59.6305 11.3867 59.5064 11.2107 59.3063 11.1206C59.1062 11.0306 58.906 11.1206 58.858 11.2598C58.81 11.399 58.934 11.579 59.1302 11.6691C59.3263 11.7591 59.5344 11.6773 59.5825 11.5299Z" fill="white"/>
    <path d="M62.4811 10.4985C62.4088 10.5479 62.3574 10.6235 62.3374 10.7101C62.3173 10.7966 62.3301 10.8878 62.3731 10.9651C62.4459 11.0115 62.5314 11.0327 62.617 11.0256C62.7025 11.0184 62.7835 10.9834 62.8481 10.9256C62.9127 10.8678 62.9574 10.7904 62.9757 10.7046C62.9939 10.6189 62.9847 10.5294 62.9495 10.4494C62.8799 10.3952 62.7928 10.3702 62.7058 10.3793C62.6188 10.3884 62.5385 10.431 62.4811 10.4985Z" fill="white"/>
    <path d="M62.361 11.1127L61.7687 10.7034L61.5605 10.556C61.4543 10.4805 61.3342 10.4275 61.2076 10.4004C61.0809 10.3732 60.9502 10.3724 60.8232 10.398C60.6962 10.4236 60.5756 10.475 60.4684 10.5493C60.3613 10.6236 60.2699 10.7191 60.1996 10.8303L59.6713 11.6693C59.5688 11.832 59.5154 12.0218 59.5176 12.2153C59.5199 12.4087 59.5777 12.5972 59.684 12.7573C59.7902 12.9174 59.9401 13.042 60.1151 13.1157C60.29 13.1893 60.4823 13.2087 60.6679 13.1715C60.8799 13.0857 61.0964 13.0119 61.3164 12.9504C61.5433 12.9197 61.7719 12.9033 62.0008 12.9013C62.1454 12.8764 62.2824 12.8176 62.4011 12.7294C62.526 12.6352 62.6269 12.5116 62.6952 12.369C62.7635 12.2264 62.797 12.0691 62.7931 11.9104C62.7892 11.7517 62.7479 11.5963 62.6726 11.4574C62.5974 11.3185 62.4905 11.2003 62.361 11.1127Z" fill="white"/>
  </g>
  <defs>
    <clipPath id="clip0_605_17090">
      <rect width="115" height="22" fill="white"/>
    </clipPath>
  </defs>
</svg>