<svg xmlns="http://www.w3.org/2000/svg" viewBox="0 0 135.67 32.04"><g id="Capa_2" data-name="Capa 2"><g id="Capa_1-2" data-name="Capa 1"><path d="M34.53,0V17.94a14.87,14.87,0,0,1-.64,4.88,5.13,5.13,0,0,1-2,2.68,5.79,5.79,0,0,1-3.12.82,5.74,5.74,0,0,1-3.12-.82,5.14,5.14,0,0,1-2-2.68,14.61,14.61,0,0,1-.63-4.64V0H17.26V18.17a14.35,14.35,0,0,1-.63,4.65,5.13,5.13,0,0,1-2,2.68,5.79,5.79,0,0,1-3.12.82A5.8,5.8,0,0,1,8.4,25.5a5.18,5.18,0,0,1-2-2.68,14.87,14.87,0,0,1-.64-4.88V0H0V18.44A28.8,28.8,0,0,0,.19,22a14.43,14.43,0,0,0,.64,2.92,11.52,11.52,0,0,0,1.48,3,9.33,9.33,0,0,0,2.26,2.26,10.3,10.3,0,0,0,3.05,1.41,14.28,14.28,0,0,0,3.85.48,14.46,14.46,0,0,0,3.86-.48,10.47,10.47,0,0,0,3.1-1.41,8.72,8.72,0,0,0,1.73-1.54,9,9,0,0,0,1.72,1.54A10.47,10.47,0,0,0,25,31.52a14.49,14.49,0,0,0,3.87.48,14.26,14.26,0,0,0,3.84-.48,10.19,10.19,0,0,0,3.05-1.41A9,9,0,0,0,38,27.85a11.22,11.22,0,0,0,1.48-3A13.92,13.92,0,0,0,40.12,22a28.69,28.69,0,0,0,.19-3.51V0Z"/><path d="M61.31,0a16,16,0,1,0,16,16A16,16,0,0,0,61.31,0Zm0,26.66A10.67,10.67,0,1,1,72,16,10.67,10.67,0,0,1,61.31,26.67Z"/><path d="M101.94,20.79A11.84,11.84,0,0,0,94.15,0H82.31V32h5.85V29.7a1.34,1.34,0,0,1,0-.2V23.72h6a6,6,0,0,1,6,6V32H106V29.7A11.81,11.81,0,0,0,101.94,20.79ZM88.17,17.86V5.9h6a6,6,0,1,1,0,12Z"/><path d="M135.67,20.17V32h-5.86V20.17a6,6,0,0,0-5.9-6h-.16a6,6,0,0,0-5.88,5.56V32H112V20.17c0-.14,0-.27,0-.4V14.19h0V8.33h0V3c0-.2,0-.41,0-.61V0h5.88V8.33h6a6,6,0,0,0,5.93-6V0h5.86V2.35a11.81,11.81,0,0,1-4,8.91A11.8,11.8,0,0,1,135.67,20.17Z"/></g></g></svg>