<svg xmlns="http://www.w3.org/2000/svg" viewBox="0 0 64.79 57.38"><defs><style>.cls-1{fill:#742118;}.cls-2{fill:#df482a;}</style></defs><g id="Capa_2" data-name="Capa 2"><g id="Capa_1-2" data-name="Capa 1"><path class="cls-1" d="M32.39,0A28.69,28.69,0,0,0,4.18,23.53s0,0,0-.06l.08-.11a.61.61,0,0,1,.07-.1l.12-.15s0,0,0,0l.16-.16h0a2,2,0,0,1,.86-.43h0a27.54,27.54,0,0,1,53.65,0h0a1.93,1.93,0,0,1,.87.43h0l.17.17,0,0s.09.1.13.16l.06.09.08.12a.16.16,0,0,0,0,.07A28.71,28.71,0,0,0,32.39,0Z"/><path class="cls-1" d="M32,37.83c-.44.3-2.13,1.29-3.47-.06a.29.29,0,0,0-.41.41,2.81,2.81,0,0,0,2,.85,4.07,4.07,0,0,0,2.15-.7,3.24,3.24,0,0,0,4.17-.15.29.29,0,0,0-.41-.41c-1.35,1.35-3,.36-3.48.06V36.68h.11a1.75,1.75,0,0,0,.4,0,.25.25,0,0,0,.18-.15.48.48,0,0,1,.43-.27h0a.26.26,0,0,0,.21-.08A1.77,1.77,0,0,0,34.18,34l-.4-.64a1.75,1.75,0,0,0-3,0l-.4.64a1.77,1.77,0,0,0,.22,2.14.26.26,0,0,0,.21.08h0a.48.48,0,0,1,.43.27.25.25,0,0,0,.18.15,1.75,1.75,0,0,0,.4,0H32Z"/><path class="cls-1" d="M26.19,26.21A1.89,1.89,0,0,0,25.83,30L26,30h.23A1.89,1.89,0,0,0,28,28.5h0a1.81,1.81,0,0,0,0-.4A1.89,1.89,0,0,0,26.19,26.21Z"/><path class="cls-1" d="M36.56,28.5A1.89,1.89,0,0,0,38.41,30h.23l.11,0a1.89,1.89,0,1,0-2.23-1.86,1.75,1.75,0,0,0,0,.4Z"/><path class="cls-1" d="M59.06,35.61a4.39,4.39,0,0,1-.61-.07l-.21-.06A12,12,0,0,0,56.72,35a13.36,13.36,0,0,0-1.6-.1l-.22,0a3.77,3.77,0,0,1-1.53-.67,3.61,3.61,0,0,1-.84-.86c-.23.48-.48.94-.74,1.4A8.63,8.63,0,0,1,52,36a9.27,9.27,0,0,1-.43,3.58v0a1.63,1.63,0,0,1-.61.83A28.58,28.58,0,0,1,48,42.18h0l-.08,0c-.74.39-1.5.77-2.27,1.12l0,0c-.62.26-1.09.42-1.28.48l-.09.06H44.2a1.45,1.45,0,0,1-.29,0h-.1a20.27,20.27,0,0,1-22.86,0,1.07,1.07,0,0,1-.25,0,1,1,0,0,1-.3,0h-.06l-.09-.06A13.21,13.21,0,0,1,19,43.38l-.09,0c-.75-.34-1.51-.72-2.25-1.11l-.08,0a27.9,27.9,0,0,1-2.91-1.77,1.63,1.63,0,0,1-.62-.86A9.27,9.27,0,0,1,12.61,36a8.36,8.36,0,0,1,.26-1.51c-.21-.38-.42-.77-.61-1.16a4.12,4.12,0,0,1-.85.87,3.85,3.85,0,0,1-1.52.66l-.22,0c-.59,0-1.37,0-1.6.09a14.4,14.4,0,0,0-1.53.53l-.21.06a4.09,4.09,0,0,1-.6.07H5.56a3.71,3.71,0,0,1-1-.16,28.69,28.69,0,0,0,55.77,0,3.73,3.73,0,0,1-1.06.16Z"/><path class="cls-2" d="M64.69,29a1.83,1.83,0,0,0-.84-1L63.76,28h0l-.28-.1h0a2.82,2.82,0,0,0,.31-.8h0a2.89,2.89,0,0,0,0-.29c0-.05,0-.1,0-.16a1.93,1.93,0,0,0,0-.24,1.37,1.37,0,0,0-.05-.4l-.06-.22a.87.87,0,0,0-.07-.17c0-.08-.08-.16-.13-.24l-.08-.12a1.69,1.69,0,0,0-.28-.32L63,24.75l-.07,0-.17-.1-.07,0-.23-.08h0l-.28-.06h-.31a2.46,2.46,0,0,0-.88.17h0a3.54,3.54,0,0,0-.08-.45h0a3.52,3.52,0,0,0-.15-.42s0,0,0,0l-.06-.14a.16.16,0,0,1,0-.07l-.08-.12-.06-.09c0-.06-.09-.11-.13-.16l0,0-.17-.17h0a1.93,1.93,0,0,0-.87-.43h0l-.32,0h-.07a1.72,1.72,0,0,0-.32,0h0l-.29.07,0,0-.3.13,0,0a2.31,2.31,0,0,0-.56.44h0a2.78,2.78,0,0,0-.44.62h0a2.4,2.4,0,0,0-1-.58l-.09,0-.18,0h-.62l-.15,0-.17,0h0a1.57,1.57,0,0,0-.23.09,2.06,2.06,0,0,0-1,1.09,1.25,1.25,0,0,0-.09.25,2.33,2.33,0,0,0-.08.36c0,.06,0,.11,0,.17a.86.86,0,0,1,0,.16,4.19,4.19,0,0,0,0,.5,1.79,1.79,0,0,0-.8.12h0a1.34,1.34,0,0,0-.31.17s0,0-.06,0a1.64,1.64,0,0,0-.31.28,1.54,1.54,0,0,0-.3.49c0-.06,0-.11,0-.16-.09-.54-.2-1.07-.34-1.59l.23-1.05c0-.17.07-.37.11-.58a.85.85,0,0,0,0-.17c0-.21.09-.44.13-.68l0-.1c0-.23.09-.48.13-.74,0-.1,0-.19,0-.29l.12-.73c0-.1,0-.2,0-.31s.07-.5.11-.77,0-.25,0-.38.05-.48.08-.72,0-.31,0-.46,0-.5.07-.75l0-.43,0-.69c0-.17,0-.33,0-.5s0-.48,0-.72,0-.28,0-.41,0-.45,0-.68l0-.41-.06-.54c0-.05,0-.09,0-.15a3.06,3.06,0,0,0,0-.32A6.19,6.19,0,0,0,52,12l-.06-.22a5.85,5.85,0,0,0-.23-.63,1.24,1.24,0,0,0-.1-.2,4.34,4.34,0,0,0-.33-.56l0,0a2.34,2.34,0,0,0-.45-.44l-.13-.09a1.89,1.89,0,0,0-.57-.28l-.29-.08-.19,0-.4-.05h-.71l-.3,0-.4.07-.29.07-.4.12-.27.11-.4.17a2.1,2.1,0,0,0-.26.13l-.39.2-.25.15-.37.23-.23.15-.36.25-.21.17-.34.26-.19.17a3.88,3.88,0,0,0-.31.26l-.18.16-.27.26-.17.16-.23.23-.14.14-.2.21-.13.15-.14.15-.15.17-.05.06-.13.15-.05.06a20.32,20.32,0,0,0-18.51,0l-.05-.06L23,13.58l-.05-.06-.15-.17-.12-.13-.15-.17-.17-.18-.17-.17-.22-.22-.18-.17a3.32,3.32,0,0,0-.27-.25l-.18-.17-.3-.26-.2-.17-.33-.26a1.84,1.84,0,0,1-.22-.17l-.36-.25-.23-.15-.37-.23L19,10.25l-.39-.2-.26-.13L18,9.75l-.27-.11-.4-.12L17,9.45l-.4-.07-.31,0h-.7l-.4.05-.19,0-.29.08a1.89,1.89,0,0,0-.57.28L14,9.86a2.34,2.34,0,0,0-.45.44l0,0a3.48,3.48,0,0,0-.34.56l-.09.2a4.29,4.29,0,0,0-.23.63l-.06.22a6.19,6.19,0,0,0-.15.65l-.06.32a.77.77,0,0,1,0,.15c0,.18,0,.36-.06.55s0,.27,0,.4,0,.45,0,.68,0,.27,0,.41,0,.47,0,.72,0,.33,0,.5l0,.69,0,.44.06.73c0,.16,0,.32.05.48s.05.47.08.7,0,.27,0,.4.07.5.1.74l.06.36c0,.23.07.47.11.69s0,.2,0,.3c0,.25.08.5.13.72l0,.14c.05.23.09.45.13.65a1.06,1.06,0,0,0,0,.19l.11.57.23,1.05a14.27,14.27,0,0,0-.36,1.75,1.77,1.77,0,0,0-.31-.49,1.64,1.64,0,0,0-.31-.28s0,0,0,0a1.91,1.91,0,0,0-.32-.16s0,0,0,0a1.82,1.82,0,0,0-.8-.12h0a3.85,3.85,0,0,0,0-.48,1.09,1.09,0,0,0,0-.18,1,1,0,0,0,0-.16,2.29,2.29,0,0,0-.07-.36l-.09-.25a2.06,2.06,0,0,0-1.24-1.18l-.17,0-.14,0H9.26l-.19,0L9,23.2a2.45,2.45,0,0,0-1,.57H8a3,3,0,0,0-.45-.63h0A2.27,2.27,0,0,0,7,22.7l0,0a1.94,1.94,0,0,0-.3-.13l0,0-.29-.07h0a1.62,1.62,0,0,0-.31,0H5.91a1.84,1.84,0,0,0-.33,0h0a2,2,0,0,0-.86.43h0l-.16.16s0,0,0,0l-.12.15a.61.61,0,0,0-.07.1l-.08.11s0,0,0,.06l-.09.16v0a2.16,2.16,0,0,0-.14.43h0a3.25,3.25,0,0,0-.07.45h0A2.5,2.5,0,0,0,3,24.42H2.66l-.28,0h0l-.23.08-.07,0-.18.1-.06,0-.22.16h0a1.75,1.75,0,0,0-.29.32l-.08.12c-.05.08-.09.16-.13.24l-.06.17A1.42,1.42,0,0,0,1,26l0,.2a1.5,1.5,0,0,0,0,.2,1.92,1.92,0,0,0,0,.24,1,1,0,0,0,0,.17c0,.09,0,.18,0,.28v0a2.86,2.86,0,0,0,.3.76v0h0L1,28H1l0,0a1.8,1.8,0,0,0-.9,1h0a1.74,1.74,0,0,0,0,.22l0,.12c0,.07,0,.14,0,.21v.15A2.38,2.38,0,0,0,.05,30a.28.28,0,0,0,0,.09,2.09,2.09,0,0,0,.13.35,2.29,2.29,0,0,0,.57.71,2.35,2.35,0,0,0,.83.47h0l.18,0a3.82,3.82,0,0,0,2.73,3.8,3.71,3.71,0,0,0,1,.16h.17a4.09,4.09,0,0,0,.6-.07l.21-.06A14.4,14.4,0,0,1,8.07,35c.23,0,1-.08,1.6-.09l.22,0a3.71,3.71,0,0,0,1.52-.66,4.12,4.12,0,0,0,.85-.87,4,4,0,0,0,.69-2c0-.08,0-.16,0-.23a3.83,3.83,0,0,0-.36-1.55l.07-.06,0,0a1.85,1.85,0,0,0,.14-.14,2.28,2.28,0,0,0,.38-.5c0,.25,0,.5,0,.75a16.65,16.65,0,0,0,.31,3.18h0a10.55,10.55,0,0,0-.64,1.76A8.36,8.36,0,0,0,12.61,36,9.27,9.27,0,0,0,13,39.55a1.63,1.63,0,0,0,.62.86,27.9,27.9,0,0,0,2.91,1.77l.08,0c.74.39,1.5.77,2.25,1.11l.09,0a13.21,13.21,0,0,0,1.26.47l.09.06h.06a1,1,0,0,0,.3,0,1.07,1.07,0,0,0,.25,0,20.27,20.27,0,0,0,22.86,0h.1a1.45,1.45,0,0,0,.29,0h.06l.09-.06c.19-.06.66-.22,1.28-.48l0,0c.77-.35,1.53-.73,2.27-1.12l.08,0h0a28.58,28.58,0,0,0,2.91-1.77,1.63,1.63,0,0,0,.61-.83v0A9.27,9.27,0,0,0,52,36a8.63,8.63,0,0,0-.2-1.27,9.17,9.17,0,0,0-.57-1.7c.07-.31.13-.63.17-.94a16.45,16.45,0,0,0,.2-2.55c0-.2,0-.39,0-.59s0-.11,0-.16a3,3,0,0,0,.34.45l.18.19.09.06,0,0A3.67,3.67,0,0,0,51.83,31c0,.07,0,.15,0,.22a3.87,3.87,0,0,0,.69,2,3.76,3.76,0,0,0,2.37,1.53l.22,0a13.36,13.36,0,0,1,1.6.1,12,12,0,0,1,1.52.52l.21.06a4.39,4.39,0,0,0,.61.07h.16a3.73,3.73,0,0,0,1.06-.16A3.79,3.79,0,0,0,63,31.65h.06l.13,0h0a2.81,2.81,0,0,0,.65-.32,2.29,2.29,0,0,0,.75-.86,1.48,1.48,0,0,0,.13-.35A1.71,1.71,0,0,0,64.69,29ZM8.4,25.39a1.8,1.8,0,0,1,.24-.48,1.07,1.07,0,0,1,1.16-.53A1.26,1.26,0,0,1,10.29,26c-.25.73-.87,1.19-1.4,1h0A1.25,1.25,0,0,1,8.4,25.39ZM5.83,23.68c.54-.11,1.1.42,1.25,1.18s-.17,1.46-.71,1.57S5.27,26,5.12,25.25,5.29,23.78,5.83,23.68Zm-3.4,2.16a1.26,1.26,0,0,1,1.67.4A1.27,1.27,0,0,1,4.28,28a1.27,1.27,0,0,1-1.68-.4A1.26,1.26,0,0,1,2.43,25.84ZM2,30.43c-.54-.18-.86-.63-.73-1s.66-.54,1.19-.36.86.63.73,1S2.53,30.61,2,30.43Zm8.68,2.74a2.67,2.67,0,0,1-1,.45,15.89,15.89,0,0,0-1.83.12c-.48.1-1.73.58-1.73.58a2.57,2.57,0,0,1-2.66-3.91l1.41-2.19a2.58,2.58,0,0,1,3.63-.72l.56.39L10.61,29A2.58,2.58,0,0,1,10.68,33.17Zm1.21-4.7a.92.92,0,0,1-1.25.13.92.92,0,0,1,.29-1.22.92.92,0,0,1,1.25-.13A.92.92,0,0,1,11.89,28.47Zm23-3.67a3.86,3.86,0,0,1,3.23-.93.34.34,0,0,1,0,.67A4,4,0,0,0,36,26a.32.32,0,0,1-.38.09L35,25.87A.65.65,0,0,1,34.87,24.8Zm-8.37-.93a3.86,3.86,0,0,1,3.23.93.64.64,0,0,1-.17,1.07l-.53.25a.32.32,0,0,1-.38-.09,4,4,0,0,0-2.18-1.49A.34.34,0,0,1,26.5,23.87ZM15.09,10.67a2.91,2.91,0,0,1,.83-.11c2,0,4.39,1.94,5.74,3.41a20.36,20.36,0,0,0-7.28,8C13.44,16.56,13.37,11.19,15.09,10.67ZM18.7,36.46a8,8,0,0,0,0,1.38v.07a9.27,9.27,0,0,0,.21,1.37.43.43,0,0,0,0,0,10.25,10.25,0,0,0,.43,1.4v0A12.65,12.65,0,0,0,20,42.16h0c.07.12.12.24.19.36-.2-.07-.46-.17-.76-.3h0c-.71-.32-1.42-.67-2.11-1l-.08,0a30.77,30.77,0,0,1-2.86-1.73.44.44,0,0,1-.15-.22h0a8.21,8.21,0,0,1-.38-3.11v0c0-.1,0-.19.05-.29A6.66,6.66,0,0,1,14,35a1.66,1.66,0,0,1,.06-.21c.07-.26.14-.53.23-.78,0-.06,0-.11.07-.17.1-.26.21-.51.33-.76l.07-.12a10.81,10.81,0,0,1,1-1.54l0,0c.19-.25.38-.48.57-.7l.22-.24a4.83,4.83,0,0,1,.38-.4,6.29,6.29,0,0,1,.59-.57,4.38,4.38,0,0,1,3.29-1.12l2.38.2s0,0,0,0,0,0,0,0C21.65,29.94,19,32.67,18.7,36.46Zm21.82,6.73a11.1,11.1,0,0,1-2.47,1.51,13,13,0,0,1-1.93.7,14.45,14.45,0,0,1-3.21.5H32.3l-.76,0a13.79,13.79,0,0,1-5.07-1.23,10.88,10.88,0,0,1-3.12-2.12q-.32-.32-.6-.66a7.68,7.68,0,0,1-1.58-3A6.81,6.81,0,0,1,21,37.16a8.06,8.06,0,0,1,3.84-6.56c.34-.23.69-.44,1.06-.64h0a1.89,1.89,0,1,1,2.25-1.85,1.75,1.75,0,0,1,0,.4h0a7.19,7.19,0,0,1,.75-.34,9.13,9.13,0,0,1,3.51-.71h0a10.9,10.9,0,0,1,1.14.07,10,10,0,0,1,1.09.21,8.58,8.58,0,0,1,2,.77h0a1.75,1.75,0,0,1,0-.4A1.89,1.89,0,1,1,38.75,30h0a10.62,10.62,0,0,1,2,1.37A8.65,8.65,0,0,1,42.88,34a7.05,7.05,0,0,1,.76,3.17A7.78,7.78,0,0,1,40.52,43.19Zm10.19-5.48a.5.5,0,0,0,0,.12c0,.2-.06.39-.11.59s-.12.49-.19.74v0a.45.45,0,0,1-.15.21,30.77,30.77,0,0,1-2.86,1.73l-.08,0c-.68.35-1.38.7-2.1,1h0c-.3.13-.56.23-.76.3l.09-.17c.06-.12.11-.24.18-.36s.25-.48.35-.72a10.29,10.29,0,0,0,.43-1.12v0a5.75,5.75,0,0,0,.2-.71s0-.06,0-.08c0-.22.09-.44.13-.66,0,0,0-.11,0-.17s.05-.38.07-.56,0-.22,0-.34,0-.27,0-.4,0-.5,0-.75c-.31-3.79-2.95-6.52-4.5-7.81a0,0,0,0,1,0,0s0,0,0,0l2.38-.2h.36a4.33,4.33,0,0,1,2.93,1.13,10.46,10.46,0,0,1,3.67,6.58A8.23,8.23,0,0,1,50.71,37.71ZM50.4,22a20.27,20.27,0,0,0-7.27-8c1.53-1.67,4.35-4,6.57-3.3C51.42,11.19,51.35,16.56,50.4,22Zm10.29,4.28a1.26,1.26,0,0,1,1.67-.4A1.49,1.49,0,0,1,60.51,28,1.27,1.27,0,0,1,60.69,26.24Zm-3-1.38c.15-.76.71-1.29,1.25-1.18s.86.81.71,1.57-.71,1.29-1.26,1.18S57.56,25.62,57.71,24.86ZM55,24.38a1.07,1.07,0,0,1,1.16.53,1.8,1.8,0,0,1,.24.48A1.25,1.25,0,0,1,55.91,27h0c-.52.18-1.14-.28-1.39-1A1.26,1.26,0,0,1,55,24.38ZM52.9,28.47a.92.92,0,0,1-.29-1.22,1.09,1.09,0,1,1,.29,1.22Zm5.8,5.85A17.91,17.91,0,0,0,57,33.74a15.62,15.62,0,0,0-1.82-.12,2.57,2.57,0,0,1-1-4.64l1.58-1.09.56-.39a2.58,2.58,0,0,1,3.63.72l1.41,2.19A2.57,2.57,0,0,1,58.7,34.32Zm4.09-3.89a.91.91,0,0,1-1.2-.36c-.12-.38.2-.83.74-1a.9.9,0,0,1,1.19.36C63.65,29.8,63.32,30.25,62.79,30.43Z"/></g></g></svg>