<svg xmlns="http://www.w3.org/2000/svg" width="240" height="241" viewBox="0 0 240 241" fill="none">
  <g clip-path="url(#clip0_781_9636)">
    <path d="M137.195 168.669C135.211 177.991 132.761 186.818 130.544 195.892C128.343 204.485 124.947 212.803 122.746 221.397C122.544 220.188 122.575 219.227 122.374 218.018C121.552 213.664 121.211 209.325 119.412 205.423C117.629 201.041 110.358 202.75 110.203 207.556C110.296 212.128 111.831 216.744 113.134 221.112C114.188 225.713 115.49 230.081 116.777 234.929C117.63 238.322 121.676 239.645 124.638 237.327C128.607 233.596 132.374 228.657 135.645 224.184C138.917 219.711 142.188 215.238 144.048 209.761C144.87 206.659 141.087 204.623 138.854 206.721C135.134 210.219 131.878 214.211 128.374 218.437C130.203 213.921 132.281 209.172 133.878 204.409C136.761 197.038 139.397 189.901 141.567 182.268C145.908 167.004 149.056 151.463 150.761 135.88C153.66 105.66 151.52 75.05 142.357 45.9157C137.566 30.3803 131.132 13.5936 119.984 1.23713C118.356 -0.49477 115.891 1.35634 116.542 3.54034C123.922 20.8361 132.062 36.9518 136.76 55.3707C141.473 73.3091 143.52 91.8899 143.396 110.647C143.257 129.885 140.699 149.532 136.715 168.655L137.195 168.669Z" fill="#231F20"/>
  </g>
  <defs>
    <clipPath id="clip0_781_9636">
      <rect width="163.073" height="176.909" fill="white" transform="translate(239.986 128.903) rotate(136.772)"/>
    </clipPath>
  </defs>
</svg>