<svg width="44" height="76" viewBox="0 0 44 76" fill="none" xmlns="http://www.w3.org/2000/svg">
<path id="Vector" d="M22.4319 56.5285C24.1021 62.0527 26.1539 67.5513 28.712 72.7151C29.2961 74.0286 28.0691 75.6894 26.7294 75.3285C23.7657 74.8515 20.7397 74.5289 17.6787 73.8329C15.0343 73.4846 11.8486 73.0977 9.29392 72.067C8.01657 71.5517 8.22319 69.6589 9.59019 69.4919C12.3242 69.1577 15.2256 69.7893 18.0296 70.2019C18.5086 70.3952 19.0499 70.4339 19.5913 70.4727C18.1192 69.5195 16.6472 68.5664 15.1752 67.6132C11.7794 64.9857 8.73034 61.9592 6.34724 58.6624C1.22671 51.5665 -0.217177 42.7204 1.84397 34.39C4.02977 25.7507 9.47128 18.2451 16.5522 12.6585C20.1238 9.78796 24.2718 7.32956 28.4547 5.24457C30.5774 4.12482 32.7974 3.22399 35.177 2.38758C37.175 1.57684 39.4574 0.521515 41.7474 0.367512C43.274 0.264846 44.2124 2.08057 42.9154 2.99449C41.3341 4.15298 39.4608 4.65472 37.6225 5.52989C35.6245 6.34063 33.7862 7.21579 31.8855 8.24545C27.9869 10.0859 24.2829 12.3641 20.8359 14.9257C14.386 19.8686 9.31848 26.4472 7.06266 34.3397C4.9315 41.9232 6.43003 49.7135 10.8145 56.3328C12.8783 59.5008 15.6704 62.244 18.5871 64.6782C19.6775 65.657 20.8925 66.3269 22.0452 67.1512C20.7798 64.3053 19.195 61.3306 18.214 58.2401C17.4276 55.5875 21.4859 53.8115 22.4319 56.5285Z" fill="#231F20"/>
</svg>
