<svg width="141" height="140" viewBox="0 0 141 140" fill="none" xmlns="http://www.w3.org/2000/svg">
<g id="Vector" filter="url(#filter0_d_816_9560)">
<path d="M71.69 0H70.2V89.83H71.69V0Z" fill="#FFB259"/>
<path d="M67.99 16.48H66.5V89.83H67.99V16.48Z" fill="#FFB259"/>
<path d="M64.42 26.26H62.93V76.43H64.42V26.26Z" fill="#FFB259"/>
<path d="M75.39 16.48H73.9V89.83H75.39V16.48Z" fill="#FFB259"/>
<path d="M78.96 26.26H77.47V76.43H78.96V26.26Z" fill="#FFB259"/>
<path d="M71.69 115.85H70.2V131.49H71.69V115.85Z" fill="#FFB259"/>
<path d="M67.99 115.85H66.5V128.48H67.99V115.85Z" fill="#FFB259"/>
<path d="M75.39 115.85H73.9V128.48H75.39V115.85Z" fill="#FFB259"/>
<path d="M19.48 109.69V96.98H25.26C25.86 96.98 26.41 97.09 26.9 97.32C27.39 97.55 27.81 97.85 28.17 98.22C28.53 98.6 28.81 99.02 29.01 99.48C29.21 99.95 29.31 100.42 29.31 100.91C29.31 101.54 29.17 102.13 28.9 102.68C28.63 103.23 28.24 103.69 27.75 104.06C27.26 104.43 26.69 104.66 26.03 104.74L29.5 109.68H28.34L24.97 104.88H20.46V109.68H19.46L19.48 109.69ZM20.48 104.05H25.36C25.96 104.05 26.48 103.9 26.93 103.6C27.37 103.3 27.72 102.91 27.96 102.44C28.2 101.96 28.32 101.46 28.32 100.92C28.32 100.38 28.18 99.86 27.9 99.39C27.62 98.92 27.25 98.54 26.78 98.24C26.32 97.95 25.8 97.8 25.22 97.8H20.48V104.05Z" fill="#1D252C"/>
<path d="M42.18 108.86V109.68H32.91V96.97H42.01V97.79H33.91V102.79H40.99V103.58H33.91V108.86H42.18Z" fill="#1D252C"/>
<path d="M53.55 99.08C53.33 98.85 53.08 98.65 52.81 98.48C52.54 98.31 52.24 98.16 51.93 98.05C51.62 97.94 51.28 97.85 50.91 97.79C50.54 97.73 50.15 97.7 49.73 97.7C48.37 97.7 47.38 97.94 46.76 98.41C46.14 98.88 45.83 99.52 45.83 100.31C45.83 100.85 45.97 101.27 46.25 101.59C46.53 101.91 46.97 102.16 47.57 102.35C48.17 102.54 48.95 102.73 49.9 102.9C50.91 103.09 51.77 103.31 52.51 103.57C53.24 103.83 53.81 104.18 54.21 104.62C54.61 105.06 54.81 105.66 54.81 106.41C54.81 106.97 54.69 107.46 54.46 107.89C54.22 108.31 53.88 108.66 53.44 108.94C53 109.21 52.47 109.42 51.86 109.57C51.25 109.71 50.58 109.79 49.83 109.79C49.08 109.79 48.43 109.72 47.77 109.57C47.12 109.43 46.5 109.22 45.93 108.94C45.35 108.66 44.82 108.31 44.32 107.88L44.85 107.15C45.14 107.44 45.46 107.69 45.82 107.91C46.18 108.13 46.57 108.32 47 108.47C47.42 108.62 47.88 108.75 48.36 108.84C48.84 108.93 49.35 108.97 49.87 108.97C51.09 108.97 52.04 108.76 52.72 108.35C53.41 107.94 53.75 107.33 53.75 106.52C53.75 105.96 53.59 105.51 53.28 105.16C52.97 104.81 52.48 104.53 51.83 104.31C51.18 104.09 50.36 103.88 49.38 103.69C48.4 103.5 47.57 103.29 46.88 103.05C46.19 102.81 45.68 102.49 45.33 102.09C44.98 101.68 44.81 101.14 44.81 100.44C44.81 99.68 45.02 99.03 45.43 98.5C45.84 97.97 46.42 97.57 47.16 97.29C47.9 97.02 48.76 96.88 49.73 96.88C50.33 96.88 50.89 96.93 51.41 97.04C51.93 97.15 52.4 97.31 52.84 97.53C53.28 97.75 53.69 98.03 54.07 98.36L53.56 99.08H53.55Z" fill="#1D252C"/>
<path d="M63.8 109.69V96.98H68.43C69.91 96.98 71.13 97.26 72.11 97.83C73.08 98.4 73.81 99.16 74.31 100.12C74.8 101.08 75.04 102.15 75.04 103.32C75.04 104.61 74.77 105.73 74.24 106.69C73.7 107.65 72.94 108.39 71.95 108.91C70.96 109.44 69.79 109.7 68.44 109.7H63.81L63.8 109.69ZM74.03 103.31C74.03 102.25 73.81 101.3 73.37 100.46C72.93 99.62 72.3 98.97 71.47 98.5C70.64 98.03 69.62 97.79 68.42 97.79H64.79V108.86H68.42C69.64 108.86 70.66 108.62 71.5 108.13C72.34 107.64 72.97 106.98 73.39 106.13C73.81 105.29 74.03 104.35 74.03 103.31Z" fill="#1D252C"/>
<path d="M84.03 109.78C83.06 109.78 82.18 109.6 81.38 109.23C80.58 108.87 79.9 108.38 79.32 107.77C78.74 107.16 78.3 106.47 77.99 105.7C77.68 104.93 77.52 104.14 77.52 103.33C77.52 102.52 77.68 101.67 78.01 100.9C78.34 100.13 78.8 99.44 79.39 98.84C79.98 98.24 80.68 97.76 81.47 97.41C82.26 97.06 83.12 96.88 84.05 96.88C85.03 96.88 85.92 97.07 86.71 97.43C87.5 97.8 88.18 98.3 88.76 98.92C89.34 99.54 89.78 100.23 90.09 101C90.4 101.76 90.56 102.54 90.56 103.33C90.56 104.19 90.4 105 90.07 105.78C89.74 106.55 89.28 107.24 88.69 107.84C88.1 108.44 87.4 108.92 86.61 109.26C85.82 109.61 84.96 109.78 84.03 109.78ZM78.52 103.33C78.52 104.06 78.66 104.76 78.93 105.43C79.2 106.1 79.59 106.7 80.08 107.22C80.57 107.75 81.15 108.16 81.82 108.47C82.49 108.78 83.23 108.94 84.04 108.94C84.85 108.94 85.61 108.78 86.29 108.46C86.97 108.14 87.55 107.71 88.03 107.17C88.51 106.63 88.88 106.03 89.14 105.37C89.39 104.71 89.52 104.03 89.52 103.34C89.52 102.61 89.39 101.91 89.12 101.25C88.85 100.58 88.47 99.98 87.97 99.46C87.47 98.93 86.89 98.52 86.22 98.21C85.55 97.9 84.82 97.74 84.03 97.74C83.19 97.74 82.44 97.9 81.76 98.22C81.08 98.54 80.5 98.97 80.03 99.51C79.55 100.05 79.18 100.65 78.91 101.31C78.64 101.97 78.51 102.65 78.51 103.34L78.52 103.33Z" fill="#1D252C"/>
<path d="M106.55 109.69V98.75L101.08 107.31H100.41L94.94 98.75V109.69H93.94V96.98H94.94L100.74 106.08L106.54 96.98H107.54V109.69H106.54H106.55Z" fill="#1D252C"/>
<path d="M117.51 109.78C116.4 109.78 115.47 109.6 114.73 109.24C113.99 108.88 113.39 108.4 112.95 107.78C112.51 107.17 112.19 106.48 111.99 105.71C111.79 104.95 111.7 104.16 111.7 103.36V96.97H112.7V103.36C112.7 104.05 112.78 104.73 112.94 105.4C113.1 106.07 113.35 106.67 113.71 107.2C114.07 107.73 114.56 108.15 115.18 108.46C115.8 108.77 116.57 108.93 117.5 108.93C118.43 108.93 119.22 108.77 119.84 108.45C120.46 108.13 120.95 107.7 121.31 107.17C121.67 106.64 121.92 106.04 122.07 105.38C122.22 104.72 122.3 104.05 122.3 103.37V96.98H123.3V103.37C123.3 104.22 123.2 105.03 123 105.8C122.8 106.57 122.47 107.25 122.01 107.85C121.55 108.45 120.96 108.92 120.23 109.26C119.5 109.61 118.6 109.78 117.52 109.78H117.51Z" fill="#1D252C"/>
<path d="M135.52 99.08C135.3 98.85 135.05 98.65 134.77 98.48C134.5 98.31 134.2 98.16 133.89 98.05C133.58 97.94 133.24 97.85 132.87 97.79C132.5 97.73 132.11 97.7 131.69 97.7C130.33 97.7 129.34 97.94 128.72 98.41C128.1 98.88 127.79 99.52 127.79 100.31C127.79 100.85 127.93 101.27 128.21 101.59C128.49 101.91 128.93 102.16 129.53 102.35C130.13 102.54 130.91 102.73 131.86 102.9C132.87 103.09 133.73 103.31 134.47 103.57C135.2 103.83 135.77 104.18 136.17 104.62C136.57 105.06 136.77 105.66 136.77 106.41C136.77 106.97 136.65 107.46 136.42 107.89C136.18 108.31 135.84 108.66 135.4 108.94C134.96 109.22 134.43 109.42 133.82 109.57C133.21 109.71 132.54 109.79 131.79 109.79C131.04 109.79 130.39 109.72 129.73 109.57C129.08 109.43 128.46 109.22 127.89 108.94C127.31 108.66 126.78 108.31 126.28 107.88L126.81 107.15C127.1 107.44 127.42 107.69 127.78 107.91C128.14 108.13 128.53 108.32 128.96 108.47C129.38 108.62 129.84 108.75 130.32 108.84C130.8 108.93 131.31 108.97 131.83 108.97C133.05 108.97 134 108.76 134.68 108.35C135.37 107.94 135.71 107.33 135.71 106.52C135.71 105.96 135.55 105.51 135.24 105.16C134.93 104.81 134.44 104.53 133.79 104.31C133.14 104.09 132.32 103.88 131.34 103.69C130.36 103.5 129.53 103.29 128.84 103.05C128.15 102.81 127.64 102.49 127.29 102.09C126.94 101.68 126.77 101.14 126.77 100.44C126.77 99.68 126.98 99.03 127.39 98.5C127.8 97.97 128.38 97.57 129.12 97.29C129.86 97.02 130.72 96.88 131.69 96.88C132.29 96.88 132.85 96.93 133.37 97.04C133.89 97.15 134.36 97.31 134.8 97.53C135.24 97.75 135.65 98.03 136.03 98.36L135.52 99.08Z" fill="#1D252C"/>
<path d="M10.78 96.97H9.92L4 109.69H5.08L6.98 105.5L7.32 104.74L10.35 98.08L13.37 104.74L13.71 105.5L15.6 109.69H16.66L10.78 96.97Z" fill="#1D252C"/>
</g>
<defs>
<filter id="filter0_d_816_9560" x="0" y="0" width="140.77" height="139.49" filterUnits="userSpaceOnUse" color-interpolation-filters="sRGB">
<feFlood flood-opacity="0" result="BackgroundImageFix"/>
<feColorMatrix in="SourceAlpha" type="matrix" values="0 0 0 0 0 0 0 0 0 0 0 0 0 0 0 0 0 0 127 0" result="hardAlpha"/>
<feOffset dy="4"/>
<feGaussianBlur stdDeviation="2"/>
<feComposite in2="hardAlpha" operator="out"/>
<feColorMatrix type="matrix" values="0 0 0 0 0 0 0 0 0 0 0 0 0 0 0 0 0 0 0.25 0"/>
<feBlend mode="normal" in2="BackgroundImageFix" result="effect1_dropShadow_816_9560"/>
<feBlend mode="normal" in="SourceGraphic" in2="effect1_dropShadow_816_9560" result="shape"/>
</filter>
</defs>
</svg>
