<svg width="217" height="166" viewBox="0 0 217 166" fill="none" xmlns="http://www.w3.org/2000/svg">
<g id="Group">
<g id="Group_2">
<path id="Vector" d="M32.3089 18.4943L17.5082 16.6074" stroke="black" stroke-width="0.5" stroke-miterlimit="10"/>
<path id="Vector_2" d="M32.3089 72.145L17.5082 70.2581" stroke="black" stroke-width="0.5" stroke-miterlimit="10"/>
<path id="Vector_3" d="M34.1152 62.9622L38.1052 56.7534C38.1412 56.6995 38.1502 56.6456 38.1502 56.5827C38.1502 56.0975 37.5211 55.9178 37.2605 56.3221L33.2705 62.5309C33.2346 62.5848 33.2256 62.6387 33.2256 62.7016C33.2256 63.1868 33.8546 63.3665 34.1152 62.9622Z" stroke="#1D1D1B" stroke-width="0.5" stroke-miterlimit="10"/>
<path id="Vector_4" d="M39.0758 13.0402L24.284 11.1533" stroke="black" stroke-width="0.5" stroke-linecap="round" stroke-linejoin="round"/>
<path id="Vector_5" d="M39.0758 66.682V13.0403" stroke="black" stroke-width="0.5" stroke-linecap="round" stroke-linejoin="round"/>
<path id="Vector_6" d="M32.309 72.1359V18.4941" stroke="black" stroke-width="0.5" stroke-linecap="round" stroke-linejoin="round"/>
<path id="Vector_7" d="M17.5082 70.2492V16.6074" stroke="black" stroke-width="0.5" stroke-linecap="round" stroke-linejoin="round"/>
<path id="Vector_8" d="M17.5082 16.6073L24.284 11.1533" stroke="black" stroke-width="0.5" stroke-linecap="round" stroke-linejoin="round"/>
<path id="Vector_9" d="M32.309 18.4943L39.0758 13.0403" stroke="black" stroke-width="0.5" stroke-linecap="round" stroke-linejoin="round"/>
<path id="Vector_10" d="M32.309 72.1359L39.0758 66.6819" stroke="black" stroke-width="0.5" stroke-linecap="round" stroke-linejoin="round"/>
</g>
<g id="Group_3">
<path id="Vector_11" opacity="0.7" d="M96.4547 24.8289L101.891 16.3828" stroke="black" stroke-width="0.5" stroke-linecap="round" stroke-linejoin="round"/>
<path id="Vector_12" opacity="0.7" d="M96.4547 24.8289L99.5909 25.2242" stroke="black" stroke-width="0.5" stroke-linecap="round" stroke-linejoin="round"/>
<path id="Vector_13" opacity="0.7" d="M99.6179 25.2241L111.255 26.7157" stroke="black" stroke-width="0.5" stroke-linecap="round" stroke-linejoin="round"/>
<path id="Vector_14" opacity="0.7" d="M96.4547 30.0852L111.255 31.9811" stroke="black" stroke-width="0.5" stroke-linecap="round" stroke-linejoin="round"/>
<path id="Vector_15" opacity="0.7" d="M103.221 19.5906L118.022 21.4505" stroke="black" stroke-width="0.5" stroke-linecap="round" stroke-linejoin="round"/>
<path id="Vector_16" d="M103.221 14.3521L113.475 15.6279" stroke="black" stroke-width="0.5" stroke-linecap="round" stroke-linejoin="round"/>
<path id="Vector_17" opacity="0.7" d="M113.475 15.6279L118.022 16.185" stroke="black" stroke-width="0.5" stroke-linecap="round" stroke-linejoin="round"/>
<path id="Vector_18" opacity="0.7" d="M111.255 31.9811L118.022 21.4504" stroke="black" stroke-width="0.5" stroke-linecap="round" stroke-linejoin="round"/>
<path id="Vector_19" opacity="0.7" d="M118.022 16.1851L111.255 26.7157V31.9631" stroke="black" stroke-width="0.5" stroke-linecap="round" stroke-linejoin="round"/>
<path id="Vector_20" opacity="0.7" d="M96.4547 30.0942L103.221 19.5725" stroke="black" stroke-width="0.5" stroke-miterlimit="10"/>
<path id="Vector_21" d="M111.255 17.4159L96.4547 15.5291" stroke="black" stroke-width="0.5" stroke-miterlimit="10"/>
<path id="Vector_22" d="M111.255 71.0666L96.4547 69.1797" stroke="black" stroke-width="0.5" stroke-miterlimit="10"/>
<path id="Vector_23" opacity="0.7" d="M98.261 25.5027L102.251 19.2939C102.287 19.24 102.296 19.1861 102.296 19.1232C102.296 18.638 101.667 18.4583 101.406 18.8626L97.4162 25.0714C97.3803 25.1253 97.3713 25.1792 97.3713 25.2421C97.3713 25.7273 98.0004 25.907 98.261 25.5027Z" stroke="#1D1D1B" stroke-width="0.5" stroke-miterlimit="10"/>
<path id="Vector_24" d="M118.022 11.9618L103.221 10.075" stroke="black" stroke-width="0.5" stroke-linecap="round" stroke-linejoin="round"/>
<path id="Vector_25" d="M118.022 65.5947V11.9619" stroke="black" stroke-width="0.5" stroke-linecap="round" stroke-linejoin="round"/>
<path id="Vector_26" d="M111.255 71.0488V17.416" stroke="black" stroke-width="0.5" stroke-linecap="round" stroke-linejoin="round"/>
<path id="Vector_27" d="M103.221 14.307V10.075" stroke="black" stroke-width="0.5" stroke-linecap="round" stroke-linejoin="round"/>
<path id="Vector_28" opacity="0.7" d="M103.221 63.7079V14.3611" stroke="black" stroke-width="0.5" stroke-linecap="round" stroke-linejoin="round"/>
<path id="Vector_29" d="M96.4547 69.1618V15.5291" stroke="black" stroke-width="0.5" stroke-linecap="round" stroke-linejoin="round"/>
<path id="Vector_30" d="M96.4547 15.529L103.221 10.075" stroke="black" stroke-width="0.5" stroke-linecap="round" stroke-linejoin="round"/>
<path id="Vector_31" opacity="0.7" d="M118.022 65.5947L103.221 63.7078" stroke="black" stroke-width="0.5" stroke-linecap="round" stroke-linejoin="round"/>
<path id="Vector_32" opacity="0.7" d="M96.4547 69.1618L103.221 63.7078" stroke="black" stroke-width="0.5" stroke-linecap="round" stroke-linejoin="round"/>
<path id="Vector_33" d="M111.255 17.4159L118.022 11.9619" stroke="black" stroke-width="0.5" stroke-linecap="round" stroke-linejoin="round"/>
<path id="Vector_34" d="M111.255 71.0488L118.022 65.5947" stroke="black" stroke-width="0.5" stroke-linecap="round" stroke-linejoin="round"/>
<path id="Vector_35" d="M108.389 80.9326L106.007 79.5579V82.3073L108.389 80.9326Z" stroke="#B5DC79" stroke-width="0.5" stroke-miterlimit="10" stroke-linecap="round"/>
<path id="Vector_36" d="M90.3438 57.3193C90.3438 57.3193 90.0293 80.9325 106.007 80.9325" stroke="#B5DC79" stroke-width="0.5" stroke-miterlimit="10"/>
<path id="Vector_37" d="M107.823 2.37474L110.204 3.74948V1L107.823 2.37474Z" stroke="#B5DC79" stroke-width="0.5" stroke-miterlimit="10" stroke-linecap="round"/>
<path id="Vector_38" d="M125.867 25.9789C125.867 25.9789 126.182 2.36572 110.204 2.36572" stroke="#B5DC79" stroke-width="0.5" stroke-miterlimit="10"/>
<path id="Vector_39" d="M101.99 16.2389L103.222 14.3521" stroke="black" stroke-width="0.5" stroke-linecap="round" stroke-linejoin="round"/>
</g>
<g id="Group_4">
<path id="Vector_40" d="M119.011 102.29L104.21 100.403" stroke="black" stroke-width="0.5" stroke-miterlimit="10"/>
<path id="Vector_41" d="M119.011 155.941L104.21 154.054" stroke="black" stroke-width="0.5" stroke-miterlimit="10"/>
<path id="Vector_42" d="M120.817 146.758L124.807 140.549C124.843 140.495 124.852 140.441 124.852 140.379C124.852 139.893 124.223 139.714 123.962 140.118L119.972 146.327C119.936 146.381 119.927 146.435 119.927 146.498C119.927 146.983 120.556 147.162 120.817 146.758Z" fill="#1D1D1B" stroke="#1D1D1B" stroke-width="0.5" stroke-miterlimit="10"/>
<path id="Vector_43" d="M125.778 96.8363L110.977 94.9495" stroke="black" stroke-width="0.5" stroke-linecap="round" stroke-linejoin="round"/>
<path id="Vector_44" d="M125.778 150.478V96.8362" stroke="black" stroke-width="0.5" stroke-linecap="round" stroke-linejoin="round"/>
<path id="Vector_45" d="M119.011 155.932V102.29" stroke="black" stroke-width="0.5" stroke-linecap="round" stroke-linejoin="round"/>
<path id="Vector_46" d="M104.21 154.036V100.403" stroke="black" stroke-width="0.5" stroke-linecap="round" stroke-linejoin="round"/>
<path id="Vector_47" d="M104.21 100.403L110.977 94.9495" stroke="black" stroke-width="0.5" stroke-linecap="round" stroke-linejoin="round"/>
<path id="Vector_48" d="M119.011 102.29L125.778 96.8362" stroke="black" stroke-width="0.5" stroke-linecap="round" stroke-linejoin="round"/>
<path id="Vector_49" d="M119.011 155.932L125.778 150.478" stroke="black" stroke-width="0.5" stroke-linecap="round" stroke-linejoin="round"/>
<path id="Vector_50" d="M124.349 146.129L120.889 145.77L120.988 144.853L124.448 145.213C124.699 145.24 124.888 145.464 124.861 145.725C124.834 145.976 124.609 146.165 124.349 146.138V146.129Z" fill="black"/>
<path id="Vector_51" d="M114.85 163.21L112.469 161.835V164.585L114.85 163.21Z" stroke="#B5DC79" stroke-width="0.5" stroke-miterlimit="10" stroke-linecap="round"/>
<path id="Vector_52" d="M96.8051 139.597C96.8051 139.597 96.4906 163.21 112.469 163.21" stroke="#B5DC79" stroke-width="0.5" stroke-miterlimit="10"/>
<path id="Vector_53" d="M114.284 84.6523L116.665 86.0271V83.2776L114.284 84.6523Z" stroke="#B5DC79" stroke-width="0.5" stroke-miterlimit="10" stroke-linecap="round"/>
<path id="Vector_54" d="M132.329 108.265C132.329 108.265 132.643 84.6523 116.665 84.6523" stroke="#B5DC79" stroke-width="0.5" stroke-miterlimit="10"/>
</g>
<g id="Group_5">
<path id="Vector_55" d="M25.8207 129.983L29.9904 130.513" stroke="black" stroke-width="0.5" stroke-linecap="round" stroke-linejoin="round"/>
<path id="Vector_56" d="M30.0353 130.513L45.546 132.499" stroke="black" stroke-width="0.5" stroke-linecap="round" stroke-linejoin="round"/>
<path id="Vector_57" d="M25.8207 136.991L45.5461 139.516" stroke="black" stroke-width="0.5" stroke-linecap="round" stroke-linejoin="round"/>
<g id="Group_6" opacity="0.7">
<g id="Group_7">
<path id="Vector_58" d="M45.8786 124.394L47.2176 124.556" stroke="#5A5A5C" stroke-width="0.5" stroke-linecap="round" stroke-linejoin="round"/>
<path id="Vector_59" d="M49.0598 124.789L50.3898 124.96" stroke="#5A5A5C" stroke-width="0.5" stroke-linecap="round" stroke-linejoin="round"/>
</g>
</g>
<path id="Vector_60" d="M35.5531 123.091L45.8786 124.394" stroke="black" stroke-width="0.5" stroke-linecap="round" stroke-linejoin="round"/>
<g id="Group_8" opacity="0.7">
<path id="Vector_61" d="M34.8431 123.001L35.5531 123.091" stroke="#5A5A5C" stroke-width="0.5" stroke-linecap="round" stroke-linejoin="round"/>
</g>
<path id="Vector_62" d="M50.3898 124.96L54.5685 125.481" stroke="black" stroke-width="0.5" stroke-linecap="round" stroke-linejoin="round"/>
<path id="Vector_63" d="M34.8431 116.02L54.5685 118.464" stroke="black" stroke-width="0.5" stroke-linecap="round" stroke-linejoin="round"/>
<path id="Vector_64" d="M34.8431 102.066L50.3988 104.051" stroke="black" stroke-width="0.5" stroke-linecap="round" stroke-linejoin="round"/>
<path id="Vector_65" d="M45.5461 139.516L54.5685 125.481" stroke="black" stroke-width="0.5" stroke-linecap="round" stroke-linejoin="round"/>
<g id="Group_9" opacity="0.7">
<g id="Group_10">
<path id="Vector_66" d="M34.8431 116.02V117.368" stroke="#5A5A5C" stroke-width="0.5" stroke-linecap="round" stroke-linejoin="round"/>
<path id="Vector_67" d="M34.8431 118.805V120.962" stroke="#5A5A5C" stroke-width="0.5" stroke-linecap="round" stroke-linejoin="round"/>
<path id="Vector_68" d="M34.8431 121.671V123.019" stroke="#5A5A5C" stroke-width="0.5" stroke-linecap="round" stroke-linejoin="round"/>
</g>
</g>
<path id="Vector_69" d="M50.3898 124.96L45.5461 132.499" stroke="black" stroke-width="0.5" stroke-linecap="round" stroke-linejoin="round"/>
<g id="Group_11" opacity="0.7">
<g id="Group_12">
<path id="Vector_70" d="M29.9905 130.513L30.7184 129.381" stroke="#5A5A5C" stroke-width="0.5" stroke-miterlimit="10" stroke-linecap="round"/>
<path id="Vector_71" d="M31.8507 127.62L33.5491 124.987" stroke="#5A5A5C" stroke-width="0.5" stroke-miterlimit="10" stroke-linecap="round"/>
<path id="Vector_72" d="M34.1153 124.107L34.8432 122.974" stroke="#5A5A5C" stroke-width="0.5" stroke-miterlimit="10" stroke-linecap="round"/>
</g>
</g>
<path id="Vector_73" d="M25.8207 136.991L29.9904 130.513" stroke="black" stroke-width="0.5" stroke-miterlimit="10"/>
<path id="Vector_74" d="M37.2965 120.369L47.622 121.689" stroke="black" stroke-width="0.5" stroke-linecap="round" stroke-linejoin="round"/>
<path id="Vector_75" d="M33.7648 125.876L44.0813 127.188" stroke="black" stroke-width="0.5" stroke-linecap="round" stroke-linejoin="round"/>
<path id="Vector_76" d="M44.0813 127.188L47.622 121.689" stroke="black" stroke-width="0.5" stroke-linecap="round" stroke-linejoin="round"/>
<path id="Vector_77" d="M33.7648 125.877L37.2965 120.369" stroke="black" stroke-width="0.5" stroke-linecap="round" stroke-linejoin="round"/>
<path id="Vector_78" opacity="0.7" d="M37.2965 126.838L47.622 128.15" stroke="#5A5A5C" stroke-width="0.5" stroke-linecap="round" stroke-linejoin="round"/>
<path id="Vector_79" d="M33.7648 132.337L44.0813 133.658" stroke="black" stroke-width="0.5" stroke-linecap="round" stroke-linejoin="round"/>
<path id="Vector_80" opacity="0.7" d="M44.8811 132.409L47.622 128.15" stroke="#5A5A5C" stroke-width="0.5" stroke-linecap="round" stroke-linejoin="round"/>
<path id="Vector_81" d="M44.0813 133.658L44.8811 132.409" stroke="black" stroke-width="0.5" stroke-linecap="round" stroke-linejoin="round"/>
<path id="Vector_82" opacity="0.7" d="M34.5646 131.097L37.2965 126.838" stroke="#5A5A5C" stroke-width="0.5" stroke-linecap="round" stroke-linejoin="round"/>
<path id="Vector_83" d="M33.7648 132.337L34.5646 131.097" stroke="black" stroke-width="0.5" stroke-linecap="round" stroke-linejoin="round"/>
<path id="Vector_84" d="M50.3898 124.96L54.5685 118.464V109.586" stroke="black" stroke-width="0.5" stroke-linecap="round" stroke-linejoin="round"/>
<path id="Vector_85" d="M45.5461 147.863V139.516" stroke="black" stroke-width="0.5" stroke-linecap="round" stroke-linejoin="round"/>
<path id="Vector_86" d="M54.5685 138.258V118.464" stroke="black" stroke-width="0.5" stroke-linecap="round" stroke-linejoin="round"/>
<g id="Group_13">
<path id="Vector_87" d="M4.73837 124.511L8.00047 124.987L8.1173 124.151L4.8552 123.675C4.61256 123.639 4.39687 123.801 4.36092 124.026C4.32498 124.259 4.49573 124.475 4.73837 124.502V124.511Z" fill="black"/>
<path id="Vector_88" d="M23.2775 121.86C23.2775 121.86 23.2775 121.86 23.2685 121.86L12.7813 120.261C12.7364 120.261 12.7004 120.207 12.7094 120.162C12.7094 120.117 12.7633 120.081 12.8083 120.09L23.2955 121.69C23.3404 121.69 23.3764 121.744 23.3674 121.788C23.3674 121.833 23.3225 121.86 23.2775 121.86Z" fill="black"/>
<g id="Group_14">
<g id="Group_15">
<path id="Vector_89" d="M12.8262 117.736L12.7813 120.18L6.67047 128.923L6.71542 126.488L12.8262 117.736Z" fill="white"/>
<path id="Vector_90" d="M12.826 117.736L6.71519 126.488L6.0412 126.38L12.152 117.637L12.826 117.736Z" fill="white"/>
<path id="Vector_91" d="M6.7154 126.488L6.67045 128.923L5.99646 128.824L6.04141 126.38L6.7154 126.488Z" fill="white"/>
</g>
<g id="Group_16">
<path id="Vector_92" d="M12.8262 117.736L12.1522 117.637L6.04141 126.38L5.99646 128.824L6.67045 128.923L6.7154 126.488L12.8262 117.736ZM12.8262 117.736L12.7813 120.18L6.67045 128.923" stroke="#1D1D1B" stroke-width="0.5" stroke-linecap="round" stroke-linejoin="round"/>
<path id="Vector_93" d="M6.04138 126.38L6.71537 126.488L16.5376 127.979L16.4927 130.414L6.67042 128.923" stroke="black" stroke-width="0.5" stroke-linecap="round" stroke-linejoin="round"/>
</g>
</g>
<g id="Group_17">
<g id="Group_18">
<path id="Vector_94" d="M21.606 120.665L21.579 122.049L18.3798 126.622L18.4068 125.239L21.606 120.665Z" fill="white"/>
<path id="Vector_95" d="M21.6059 120.665L18.4067 125.239L9.06073 123.828L12.2599 119.237L21.6059 120.665Z" fill="white"/>
<path id="Vector_96" d="M18.4068 125.239L18.3798 126.623L9.03387 125.212L9.06083 123.828L18.4068 125.239Z" fill="white"/>
</g>
<g id="Group_19">
<path id="Vector_97" d="M21.606 120.665L12.26 119.237" stroke="black" stroke-width="0.5" stroke-linecap="round" stroke-linejoin="round"/>
<path id="Vector_98" d="M18.4068 125.239L9.06085 123.828" stroke="black" stroke-width="0.5" stroke-linecap="round" stroke-linejoin="round"/>
<path id="Vector_99" d="M12.26 119.237L9.06083 123.828L9.03387 125.212" stroke="black" stroke-width="0.5" stroke-linecap="round" stroke-linejoin="round"/>
<path id="Vector_100" d="M21.579 122.049L18.3798 126.622L18.4068 125.239L21.606 120.665L21.579 122.049Z" stroke="black" stroke-width="0.5" stroke-linecap="round" stroke-linejoin="round"/>
<path id="Vector_101" d="M18.3798 126.622L9.03387 125.212" stroke="black" stroke-width="0.5" stroke-linecap="round" stroke-linejoin="round"/>
</g>
</g>
<path id="Vector_102" d="M17.7778 128.734C17.7238 128.734 17.6699 128.716 17.625 128.689C17.4992 128.608 17.4632 128.437 17.5441 128.312L22.5316 121.177C22.6215 121.052 22.7922 121.025 22.927 121.106C23.0528 121.186 23.0888 121.357 23.0079 121.483L18.0204 128.617C17.9665 128.698 17.8766 128.734 17.7778 128.734Z" fill="black"/>
<path id="Vector_103" d="M8.27004 128.402L8.1712 127.907L8.92607 127.773L8.71937 126.802L9.72585 126.623L9.51918 125.643L10.5347 125.463L10.3819 124.736L10.8941 124.646L11.1547 125.868L10.1392 126.047L10.3459 127.027L9.33047 127.207L9.53714 128.177L8.27004 128.402Z" fill="black"/>
<path id="Vector_104" d="M10.1393 128.77L10.0404 128.276L10.7953 128.141L10.5886 127.162L11.6041 126.991L11.3974 126.011L12.4129 125.832L12.2601 125.104L12.7633 125.005L13.0239 126.236L12.0085 126.416L12.2152 127.395L11.2087 127.566L11.4153 128.545L10.1393 128.77Z" fill="black"/>
<path id="Vector_105" d="M12.0174 129.066L11.9186 128.572L12.6734 128.437L12.4668 127.458L13.4822 127.287L13.2755 126.308L14.282 126.128L14.1293 125.4L14.6415 125.302L14.9021 126.532L13.8866 126.712L14.0933 127.692L13.0778 127.862L13.2845 128.842L12.0174 129.066Z" fill="black"/>
<path id="Vector_106" d="M13.8866 129.363L13.7878 128.869L14.5426 128.734L14.3359 127.755L15.3514 127.575L15.1447 126.604L16.1602 126.425L16.0074 125.697L16.5197 125.598L16.7713 126.829L15.7648 127.009L15.9715 127.979L14.956 128.159L15.1627 129.138L13.8866 129.363Z" fill="black"/>
<g id="Group_20">
<g id="Group_21">
<path id="Vector_107" d="M23.3225 119.335L23.2776 121.779L17.1667 130.522L17.2117 128.087L23.3225 119.335Z" fill="white"/>
<path id="Vector_108" d="M23.3223 119.335L17.2115 128.087L16.5375 127.979L22.6483 119.237L23.3223 119.335Z" fill="white"/>
<path id="Vector_109" d="M17.2117 128.087L17.1667 130.522L16.4927 130.414L16.5377 127.979L17.2117 128.087Z" fill="white"/>
</g>
<g id="Group_22">
<path id="Vector_110" d="M23.3225 119.335L22.6485 119.237L16.5377 127.979L16.4927 130.414L17.1667 130.522L17.2117 128.087L23.3225 119.335ZM23.3225 119.335L23.2776 121.779L17.1667 130.522" stroke="#1D1D1B" stroke-width="0.5" stroke-linecap="round" stroke-linejoin="round"/>
<g id="Vector_111">
<path d="M16.5377 127.979L6.71542 126.488L6.67047 128.923L16.4927 130.414L16.5377 127.979L17.2116 128.087L16.5377 127.979Z" fill="white"/>
<path d="M16.5377 127.979L6.71542 126.488L6.67047 128.923L16.4927 130.414L16.5377 127.979ZM16.5377 127.979L17.2116 128.087" stroke="black" stroke-width="0.5" stroke-linecap="round" stroke-linejoin="round"/>
</g>
</g>
</g>
</g>
<path id="Vector_112" d="M28.5077 129.587L26.989 128.437L26.7553 130.324L28.5077 129.587Z" stroke="#B5DC79" stroke-width="0.5" stroke-miterlimit="10" stroke-linecap="round"/>
<path id="Vector_113" d="M17.9485 128.258L26.8721 129.363" stroke="#B5DC79" stroke-width="0.5" stroke-linecap="round" stroke-linejoin="round"/>
<path id="Vector_114" d="M30.1432 127.242L28.6245 126.092L28.3818 127.988L30.1432 127.242Z" stroke="#B5DC79" stroke-width="0.5" stroke-miterlimit="10" stroke-linecap="round"/>
<path id="Vector_115" d="M19.5751 125.921L28.5077 127.018" stroke="#B5DC79" stroke-width="0.5" stroke-linecap="round" stroke-linejoin="round"/>
<path id="Vector_116" d="M31.6709 124.933L30.1432 123.783L29.9095 125.679L31.6709 124.933Z" stroke="#B5DC79" stroke-width="0.5" stroke-miterlimit="10" stroke-linecap="round"/>
<path id="Vector_117" d="M21.1028 123.612L30.0354 124.709" stroke="#B5DC79" stroke-width="0.5" stroke-linecap="round" stroke-linejoin="round"/>
<path id="Vector_118" d="M33.1537 122.786L31.635 121.635L31.4014 123.522L33.1537 122.786Z" stroke="#B5DC79" stroke-width="0.5" stroke-miterlimit="10" stroke-linecap="round"/>
<path id="Vector_119" d="M22.5856 121.456L31.5181 122.561" stroke="#B5DC79" stroke-width="0.5" stroke-linecap="round" stroke-linejoin="round"/>
<path id="Vector_120" d="M25.8207 129.992L34.8431 115.957V102.075L25.8207 109.344V152.374" stroke="black" stroke-width="0.5" stroke-linecap="round" stroke-linejoin="round"/>
<path id="Vector_121" d="M27.9505 131.708L34.241 121.932C34.2949 121.851 34.3219 121.761 34.3219 121.672C34.3219 120.908 33.3334 120.62 32.92 121.258L26.6295 131.034C26.5756 131.115 26.5486 131.205 26.5486 131.295C26.5486 132.058 27.5371 132.346 27.9505 131.708Z" stroke="#1D1D1B" stroke-width="0.5" stroke-miterlimit="10"/>
<path id="Vector_122" d="M29.7029 152.626C45.555 152.626 58.4058 139.777 58.4058 123.927C58.4058 108.077 45.555 95.228 29.7029 95.228C13.8507 95.228 1 108.077 1 123.927C1 139.777 13.8507 152.626 29.7029 152.626Z" stroke="#1D1D1B" stroke-width="0.5" stroke-miterlimit="10"/>
</g>
<g id="Group_23">
<path id="Vector_123" d="M173.065 55.4236L178.295 47.292C178.34 47.2291 178.358 47.1482 178.358 47.0763C178.358 46.4474 177.531 46.2048 177.189 46.7349L171.959 54.8665C171.914 54.9294 171.896 55.0103 171.896 55.0822C171.896 55.7111 172.723 55.9537 173.065 55.4236Z" stroke="#1D1D1B" stroke-width="0.5" stroke-miterlimit="10"/>
<path id="Vector_124" d="M170.584 54.8486L179.454 41.0563V27.4077L170.584 34.5599V64.5885" stroke="black" stroke-width="0.5" stroke-linecap="round" stroke-linejoin="round"/>
<path id="Vector_125" d="M170.584 54.8396L174.682 55.3607" stroke="black" stroke-width="0.5" stroke-linecap="round" stroke-linejoin="round"/>
<path id="Vector_126" d="M170.584 61.7312L189.968 64.2111" stroke="black" stroke-width="0.5" stroke-linecap="round" stroke-linejoin="round"/>
<g id="Group_24" opacity="0.7">
<g id="Group_25">
<path id="Vector_127" d="M190.301 49.3496L192.08 49.5742" stroke="#5A5A5C" stroke-width="0.5" stroke-linecap="round" stroke-linejoin="round"/>
<path id="Vector_128" d="M192.952 49.6821L194.74 49.9068" stroke="#5A5A5C" stroke-width="0.5" stroke-linecap="round" stroke-linejoin="round"/>
</g>
</g>
<path id="Vector_129" d="M180.146 48.0647L190.301 49.3496" stroke="black" stroke-width="0.5" stroke-linecap="round" stroke-linejoin="round"/>
<g id="Group_26" opacity="0.7">
<path id="Vector_130" d="M179.454 47.9836L180.146 48.0645" stroke="#5A5A5C" stroke-width="0.5" stroke-linecap="round" stroke-linejoin="round"/>
</g>
<path id="Vector_131" d="M194.74 49.9065L198.838 50.4187" stroke="black" stroke-width="0.5" stroke-linecap="round" stroke-linejoin="round"/>
<path id="Vector_132" d="M179.454 41.1191L198.838 43.5272" stroke="black" stroke-width="0.5" stroke-linecap="round" stroke-linejoin="round"/>
<path id="Vector_133" d="M179.454 27.4077L198.838 29.8786" stroke="black" stroke-width="0.5" stroke-linecap="round" stroke-linejoin="round"/>
<path id="Vector_134" d="M189.968 64.211L198.838 50.4187" stroke="black" stroke-width="0.5" stroke-linecap="round" stroke-linejoin="round"/>
<g id="Group_27" opacity="0.7">
<g id="Group_28">
<path id="Vector_135" d="M179.454 41.1191V42.9162" stroke="#5A5A5C" stroke-width="0.5" stroke-linecap="round" stroke-linejoin="round"/>
<path id="Vector_136" d="M179.454 46.2048V48.0019" stroke="#5A5A5C" stroke-width="0.5" stroke-linecap="round" stroke-linejoin="round"/>
</g>
</g>
<path id="Vector_137" d="M194.74 49.9065L189.968 57.3103" stroke="black" stroke-width="0.5" stroke-linecap="round" stroke-linejoin="round"/>
<g id="Group_29" opacity="0.7">
<g id="Group_30">
<path id="Vector_138" d="M174.682 55.3606L175.662 53.8511" stroke="#5A5A5C" stroke-width="0.5" stroke-miterlimit="10"/>
<path id="Vector_139" d="M178.483 49.4663L179.454 47.9478" stroke="#5A5A5C" stroke-width="0.5" stroke-miterlimit="10"/>
</g>
</g>
<path id="Vector_140" d="M170.584 61.7311L174.682 55.3606" stroke="black" stroke-width="0.5" stroke-miterlimit="10"/>
<path id="Vector_141" d="M181.871 45.396L192.008 46.6899" stroke="black" stroke-width="0.5" stroke-linecap="round" stroke-linejoin="round"/>
<path id="Vector_142" d="M178.394 50.8052L188.53 52.099" stroke="black" stroke-width="0.5" stroke-linecap="round" stroke-linejoin="round"/>
<path id="Vector_143" d="M188.53 52.099L192.008 46.6899" stroke="black" stroke-width="0.5" stroke-linecap="round" stroke-linejoin="round"/>
<path id="Vector_144" d="M178.394 50.8051L181.871 45.396" stroke="black" stroke-width="0.5" stroke-linecap="round" stroke-linejoin="round"/>
<path id="Vector_145" d="M181.871 51.7485L192.008 53.0424" stroke="#B5DC79" stroke-width="0.5" stroke-linecap="round" stroke-linejoin="round"/>
<path id="Vector_146" d="M178.394 57.1577L188.53 58.4516" stroke="#B5DC79" stroke-width="0.5" stroke-linecap="round" stroke-linejoin="round"/>
<path id="Vector_147" d="M189.312 57.2296L192.008 53.0425" stroke="#B5DC79" stroke-width="0.5" stroke-linecap="round" stroke-linejoin="round"/>
<path id="Vector_148" d="M188.53 58.4515L189.312 57.2295" stroke="#B5DC79" stroke-width="0.5" stroke-linecap="round" stroke-linejoin="round"/>
<path id="Vector_149" d="M179.175 55.9356L181.871 51.7485" stroke="#B5DC79" stroke-width="0.5" stroke-linecap="round" stroke-linejoin="round"/>
<path id="Vector_150" d="M178.394 57.1575L179.175 55.9355" stroke="#B5DC79" stroke-width="0.5" stroke-linecap="round" stroke-linejoin="round"/>
<path id="Vector_151" d="M194.74 49.9067L198.838 43.5272V29.8787" stroke="black" stroke-width="0.5" stroke-linecap="round" stroke-linejoin="round"/>
<path id="Vector_152" d="M189.968 70.3029V64.2109" stroke="black" stroke-width="0.5" stroke-linecap="round" stroke-linejoin="round"/>
<path id="Vector_153" d="M198.838 68.0478V43.5361" stroke="black" stroke-width="0.5" stroke-linecap="round" stroke-linejoin="round"/>
<path id="Vector_154" d="M188.342 34.8384C188.063 34.6227 187.695 34.5688 187.38 34.7036C187.38 34.7036 187.371 34.7036 187.362 34.7036C186.688 35.0001 186.589 35.9166 187.173 36.3659L187.218 36.4018L188.764 35.1618L188.342 34.8384Z" stroke="#B5DC79" stroke-width="0.5" stroke-miterlimit="10"/>
<path id="Vector_155" d="M187.29 31.9631L182.887 34.2723L181.593 34.9462L189.77 41.0741L191.055 40.4003L195.459 38.0911L187.281 31.9631H187.29ZM187.173 36.3749C186.589 35.9256 186.688 35.0091 187.362 34.7126C187.362 34.7126 187.371 34.7126 187.38 34.7126C187.704 34.5778 188.072 34.6317 188.342 34.8474L188.764 35.1709L187.218 36.4108L187.173 36.3749ZM189.663 37.6598C189.663 37.6598 189.654 37.6598 189.645 37.6598C189.321 37.7945 188.953 37.7406 188.683 37.525L188.378 37.2824L189.905 36.0245C190.435 36.4827 190.328 37.3632 189.672 37.6418L189.663 37.6598Z" fill="white" stroke="#B5DC79" stroke-width="0.5" stroke-linecap="round" stroke-linejoin="round"/>
<path id="Vector_156" d="M190.229 32.4842C190.229 32.4842 189.842 25.5656 205.775 25.1792" stroke="#B5DC79" stroke-width="0.5" stroke-miterlimit="10" stroke-linecap="round"/>
<path id="Vector_157" d="M208.265 25.0714L205.766 23.8135L205.928 26.6079L208.265 25.0714Z" stroke="#B5DC79" stroke-width="0.5" stroke-miterlimit="10" stroke-linecap="round"/>
<path id="Vector_158" d="M187.919 70.4019C203.801 70.4019 216.676 57.5289 216.676 41.6492C216.676 25.7695 203.801 12.8965 187.919 12.8965C172.037 12.8965 159.162 25.7695 159.162 41.6492C159.162 57.5289 172.037 70.4019 187.919 70.4019Z" stroke="#1D1D1B" stroke-width="0.5" stroke-miterlimit="10"/>
<path id="Vector_159" d="M174.727 55.3606L189.968 57.3104" stroke="black" stroke-width="0.5" stroke-linecap="round" stroke-linejoin="round"/>
</g>
<g id="Group_31">
<path id="Vector_160" d="M194.354 130.809L171.294 127.871" stroke="black" stroke-width="0.5" stroke-miterlimit="10"/>
<path id="Vector_161" d="M197.175 116.496L203.403 106.819C203.457 106.738 203.475 106.648 203.475 106.558C203.475 105.804 202.495 105.516 202.091 106.154L195.863 115.831C195.809 115.912 195.791 116.002 195.791 116.092C195.791 116.846 196.771 117.134 197.175 116.496Z" fill="#1D1D1B" stroke="#1D1D1B" stroke-width="0.5" stroke-miterlimit="10"/>
<path id="Vector_162" d="M204.904 122.291V100.799" stroke="black" stroke-width="0.5" stroke-linecap="round" stroke-linejoin="round"/>
<path id="Vector_163" d="M194.354 130.791V95.9558" stroke="black" stroke-width="0.5" stroke-linecap="round" stroke-linejoin="round"/>
<path id="Vector_164" d="M171.294 127.853V100.529" stroke="black" stroke-width="0.5" stroke-linecap="round" stroke-linejoin="round"/>
<path id="Vector_165" d="M194.354 130.792L204.904 122.292" stroke="black" stroke-width="0.5" stroke-linecap="round" stroke-linejoin="round"/>
<path id="Vector_166" d="M206.728 109.82L201.327 109.254L201.48 107.816L206.881 108.382C207.276 108.427 207.564 108.778 207.519 109.173C207.474 109.568 207.123 109.856 206.728 109.811V109.82Z" fill="black"/>
<path id="Vector_167" d="M203.987 110.997L202.037 112.084L203.942 113.225L203.987 110.997Z" stroke="#B5DC79" stroke-width="0.5" stroke-miterlimit="10" stroke-linecap="round"/>
<path id="Vector_168" d="M197.562 121.663L202.972 112.641" stroke="#B5DC79" stroke-width="0.5" stroke-linecap="round" stroke-linejoin="round"/>
<path id="Vector_169" d="M187.919 152.626C203.771 152.626 216.622 139.777 216.622 123.927C216.622 108.077 203.771 95.228 187.919 95.228C172.067 95.228 159.216 108.077 159.216 123.927C159.216 139.777 172.067 152.626 187.919 152.626Z" stroke="#1D1D1B" stroke-width="0.5" stroke-miterlimit="10"/>
<path id="Vector_170" d="M180.829 140.424C181.558 140.424 182.15 139.832 182.15 139.103C182.15 138.373 181.558 137.782 180.829 137.782C180.099 137.782 179.508 138.373 179.508 139.103C179.508 139.832 180.099 140.424 180.829 140.424Z" fill="#B5DC79"/>
<path id="Vector_171" d="M183.462 143.326C184.191 143.326 184.783 142.735 184.783 142.005C184.783 141.276 184.191 140.684 183.462 140.684C182.732 140.684 182.141 141.276 182.141 142.005C182.141 142.735 182.732 143.326 183.462 143.326Z" fill="#B5DC79"/>
<path id="Vector_172" d="M187.101 139.732C187.831 139.732 188.422 139.14 188.422 138.411C188.422 137.681 187.831 137.09 187.101 137.09C186.372 137.09 185.78 137.681 185.78 138.411C185.78 139.14 186.372 139.732 187.101 139.732Z" fill="#B5DC79"/>
<path id="Vector_173" d="M188.422 136.147C189.152 136.147 189.743 135.555 189.743 134.826C189.743 134.096 189.152 133.505 188.422 133.505C187.693 133.505 187.101 134.096 187.101 134.826C187.101 135.555 187.693 136.147 188.422 136.147Z" fill="#B5DC79"/>
<path id="Vector_174" d="M187.281 144.638C188.011 144.638 188.602 144.046 188.602 143.317C188.602 142.587 188.011 141.996 187.281 141.996C186.552 141.996 185.96 142.587 185.96 143.317C185.96 144.046 186.552 144.638 187.281 144.638Z" fill="#B5DC79"/>
<path id="Vector_175" d="M184.459 146.893C185.189 146.893 185.78 146.302 185.78 145.572C185.78 144.843 185.189 144.251 184.459 144.251C183.73 144.251 183.138 144.843 183.138 145.572C183.138 146.302 183.73 146.893 184.459 146.893Z" fill="#B5DC79"/>
<path id="Vector_176" d="M191.55 143.065C192.279 143.065 192.871 142.474 192.871 141.744C192.871 141.015 192.279 140.424 191.55 140.424C190.82 140.424 190.229 141.015 190.229 141.744C190.229 142.474 190.82 143.065 191.55 143.065Z" fill="#B5DC79"/>
<path id="Vector_177" d="M190.993 138.043C191.722 138.043 192.314 137.451 192.314 136.722C192.314 135.992 191.722 135.401 190.993 135.401C190.263 135.401 189.672 135.992 189.672 136.722C189.672 137.451 190.263 138.043 190.993 138.043Z" fill="#B5DC79"/>
<path id="Vector_178" d="M182.527 134.637C183.257 134.637 183.848 134.046 183.848 133.316C183.848 132.587 183.257 131.996 182.527 131.996C181.798 131.996 181.206 132.587 181.206 133.316C181.206 134.046 181.798 134.637 182.527 134.637Z" fill="#B5DC79"/>
<path id="Vector_179" d="M184.145 138.42C184.874 138.42 185.466 137.829 185.466 137.099C185.466 136.37 184.874 135.778 184.145 135.778C183.415 135.778 182.824 136.37 182.824 137.099C182.824 137.829 183.415 138.42 184.145 138.42Z" fill="#B5DC79"/>
<path id="Vector_180" d="M190.229 146.534C190.958 146.534 191.55 145.942 191.55 145.213C191.55 144.483 190.958 143.892 190.229 143.892C189.499 143.892 188.908 144.483 188.908 145.213C188.908 145.942 189.499 146.534 190.229 146.534Z" fill="#B5DC79"/>
<path id="Vector_181" d="M180.559 140.001V132.597" stroke="#1D1D1B" stroke-width="0.5" stroke-miterlimit="10"/>
<path id="Vector_182" d="M182.213 142.005V134.601" stroke="#1D1D1B" stroke-width="0.5" stroke-miterlimit="10"/>
<path id="Vector_183" d="M183.875 138.303V130.908" stroke="#1D1D1B" stroke-width="0.5" stroke-miterlimit="10"/>
<path id="Vector_184" d="M183.183 134.206V129.722" stroke="#1D1D1B" stroke-width="0.5" stroke-miterlimit="10"/>
<path id="Vector_185" d="M186.67 136.982V129.83" stroke="#1D1D1B" stroke-width="0.5" stroke-miterlimit="10"/>
<path id="Vector_186" d="M185.205 140.684V133.289" stroke="#1D1D1B" stroke-width="0.5" stroke-miterlimit="10"/>
<path id="Vector_187" d="M182.213 133.829V129.336" stroke="#1D1D1B" stroke-width="0.5" stroke-miterlimit="10"/>
<path id="Vector_188" d="M187.524 143.946V136.542" stroke="#1D1D1B" stroke-width="0.5" stroke-miterlimit="10"/>
<path id="Vector_189" d="M189.186 145.949V138.546" stroke="#1D1D1B" stroke-width="0.5" stroke-miterlimit="10"/>
<path id="Vector_190" d="M190.75 142.248V134.853" stroke="#1D1D1B" stroke-width="0.5" stroke-miterlimit="10"/>
<path id="Vector_191" d="M183.714 146.282V138.887" stroke="#1D1D1B" stroke-width="0.5" stroke-miterlimit="10"/>
<path id="Vector_192" d="M192.314 143.946V136.542" stroke="#1D1D1B" stroke-width="0.5" stroke-miterlimit="10"/>
<path id="Vector_193" d="M191.532 137.522V130.441" stroke="#1D1D1B" stroke-width="0.5" stroke-miterlimit="10"/>
<path id="Vector_194" d="M189.186 137.521V130.126" stroke="#1D1D1B" stroke-width="0.5" stroke-miterlimit="10"/>
</g>
</g>
</svg>
