<svg width="194" height="195" viewBox="0 0 194 195" fill="none" xmlns="http://www.w3.org/2000/svg">
<g id="Group">
<path id="Vector" d="M116.455 141.091V170.984" stroke="#E52421" stroke-width="0.75" stroke-miterlimit="10"/>
<path id="Vector_2" d="M119.875 171.155H141.4" stroke="#E52421" stroke-width="0.75" stroke-miterlimit="10"/>
<path id="Vector_3" d="M141.4 141.091V170.984" stroke="#E52421" stroke-width="0.75" stroke-miterlimit="10"/>
<path id="Vector_4" d="M141.23 140.915H116.626" stroke="#E52421" stroke-width="0.75" stroke-miterlimit="10"/>
<path id="Vector_5" d="M123.118 6.80933H134.738" stroke="#E52421" stroke-width="0.75" stroke-miterlimit="10"/>
<path id="Vector_6" d="M90.4824 31.751V133.913" stroke="#E52421" stroke-width="0.75" stroke-miterlimit="10"/>
<path id="Vector_7" d="M123.118 6.12792V1.00562" stroke="#E52421" stroke-width="0.75" stroke-miterlimit="10"/>
<path id="Vector_8" d="M134.738 6.12799V1" stroke="#E52421" stroke-width="0.75" stroke-miterlimit="10"/>
<path id="Vector_9" d="M116.115 31.5806V134.084" stroke="#E52421" stroke-width="0.75" stroke-miterlimit="10"/>
<path id="Vector_10" d="M141.741 31.5806V134.084" stroke="#E52421" stroke-width="0.75" stroke-miterlimit="10"/>
<path id="Vector_11" d="M167.373 31.5806V134.084" stroke="#E52421" stroke-width="0.75" stroke-miterlimit="10"/>
<path id="Vector_12" d="M116.115 31.5806H141.741" stroke="#E52421" stroke-width="0.75" stroke-miterlimit="10"/>
<path id="Vector_13" d="M116.626 134.083H141.23" stroke="#E52421" stroke-width="0.75" stroke-miterlimit="10"/>
<path id="Vector_14" d="M116.115 31.5806H92.0216" stroke="#E52421" stroke-width="0.75" stroke-miterlimit="10"/>
<path id="Vector_15" d="M141.741 31.5806H166.005" stroke="#E52421" stroke-width="0.75" stroke-miterlimit="10"/>
<path id="Vector_16" d="M174.206 31.5806H167.373" stroke="#E52421" stroke-width="0.75" stroke-miterlimit="10"/>
<path id="Vector_17" d="M192.83 31.5806H186.167" stroke="#E52421" stroke-width="0.75" stroke-miterlimit="10"/>
<path id="Vector_18" d="M113.894 143.607V168.463" stroke="black" stroke-width="0.75" stroke-miterlimit="10"/>
<path id="Vector_19" d="M122.095 143.482V152.023" stroke="black" stroke-width="0.75" stroke-miterlimit="10"/>
<path id="Vector_20" d="M122.095 152.023H135.761" stroke="black" stroke-width="0.75" stroke-miterlimit="10"/>
<path id="Vector_21" d="M135.761 152.023V143.482" stroke="black" stroke-width="0.75" stroke-miterlimit="10"/>
<path id="Vector_22" d="M135.761 143.482H122.095" stroke="black" stroke-width="0.75" stroke-miterlimit="10"/>
<path id="Vector_23" d="M92.0216 31.5805V18.769" stroke="black" stroke-width="0.75" stroke-miterlimit="10"/>
<path id="Vector_24" d="M115.944 18.769V31.4101" stroke="black" stroke-width="0.75" stroke-miterlimit="10"/>
<path id="Vector_25" d="M116.285 31.41V6.80933" stroke="black" stroke-width="0.75" stroke-miterlimit="10"/>
<path id="Vector_26" d="M92.0216 18.769H115.944" stroke="black" stroke-width="0.75" stroke-miterlimit="10"/>
<path id="Vector_27" d="M141.571 31.41V6.80933" stroke="black" stroke-width="0.75" stroke-miterlimit="10"/>
<path id="Vector_28" d="M141.912 31.4101V18.769" stroke="black" stroke-width="0.75" stroke-miterlimit="10"/>
<path id="Vector_29" d="M165.834 31.4101V18.769" stroke="black" stroke-width="0.75" stroke-miterlimit="10"/>
<path id="Vector_30" d="M141.912 18.769H165.834" stroke="black" stroke-width="0.75" stroke-miterlimit="10"/>
<path id="Vector_31" d="M167.555 25.6575H192.818" stroke="black" stroke-width="0.75" stroke-miterlimit="10"/>
<path id="Vector_32" d="M192.83 31.5805L192.818 25.6575" stroke="black" stroke-width="0.75" stroke-miterlimit="10"/>
<path id="Vector_33" d="M174.206 30.0471H186.167" stroke="black" stroke-width="0.75" stroke-miterlimit="10"/>
<path id="Vector_34" d="M174.206 30.0471V32.4379" stroke="black" stroke-width="0.75" stroke-miterlimit="10"/>
<path id="Vector_35" d="M186.167 30.0471V32.4379" stroke="black" stroke-width="0.75" stroke-miterlimit="10"/>
<path id="Vector_36" d="M174.206 32.438H186.167" stroke="black" stroke-width="0.75" stroke-miterlimit="10"/>
<path id="Vector_37" d="M167.544 31.4101L167.555 25.6575" stroke="black" stroke-width="0.75" stroke-miterlimit="10"/>
<path id="Vector_38" d="M87.069 35.1694V130.494" stroke="black" stroke-width="0.75" stroke-miterlimit="10"/>
<path id="Vector_39" d="M116.455 141.091L113.894 143.652" stroke="black" stroke-width="0.75" stroke-miterlimit="10"/>
<path id="Vector_40" d="M116.455 170.984L113.894 168.423" stroke="black" stroke-width="0.75" stroke-miterlimit="10"/>
<path id="Vector_41" d="M90.4824 31.751L87.069 35.1696" stroke="black" stroke-width="0.75" stroke-miterlimit="10"/>
<path id="Vector_42" d="M90.4824 133.913L87.069 130.494" stroke="black" stroke-width="0.75" stroke-miterlimit="10"/>
<path id="Vector_43" d="M141.23 140.915C141.23 140.96 141.247 141.006 141.281 141.034C141.315 141.068 141.355 141.085 141.4 141.085" stroke="black" stroke-width="0.75" stroke-miterlimit="10"/>
<path id="Vector_44" d="M116.626 140.915C116.626 140.96 116.609 141.006 116.575 141.034C116.541 141.068 116.501 141.085 116.455 141.085" stroke="black" stroke-width="0.75" stroke-miterlimit="10"/>
<path id="Vector_45" d="M116.115 31.5805C116.16 31.5805 116.205 31.5635 116.234 31.5294C116.268 31.4953 116.285 31.4556 116.285 31.4102" stroke="black" stroke-width="0.75" stroke-miterlimit="10"/>
<path id="Vector_46" d="M115.944 31.4102C115.944 31.4556 115.961 31.501 115.995 31.5294C116.029 31.5635 116.069 31.5805 116.115 31.5805" stroke="black" stroke-width="0.75" stroke-miterlimit="10"/>
<path id="Vector_47" d="M141.571 31.4102C141.571 31.4556 141.588 31.501 141.622 31.5294C141.656 31.5635 141.696 31.5805 141.741 31.5805" stroke="black" stroke-width="0.75" stroke-miterlimit="10"/>
<path id="Vector_48" d="M141.741 31.5804C141.787 31.5804 141.832 31.5634 141.86 31.5293" stroke="black" stroke-width="0.75" stroke-miterlimit="10"/>
<path id="Vector_49" d="M141.866 31.535C141.9 31.501 141.917 31.4612 141.917 31.4158" stroke="black" stroke-width="0.75" stroke-miterlimit="10"/>
<path id="Vector_50" d="M167.373 31.5805C167.419 31.5805 167.464 31.5635 167.493 31.5294C167.527 31.4953 167.544 31.4556 167.544 31.4102" stroke="black" stroke-width="0.75" stroke-miterlimit="10"/>
<path id="Vector_51" d="M165.834 31.4102C165.834 31.4556 165.851 31.501 165.885 31.5294C165.919 31.5635 165.959 31.5805 166.005 31.5805" stroke="black" stroke-width="0.75" stroke-miterlimit="10"/>
<path id="Vector_52" d="M90.4824 134.083V133.913" stroke="black" stroke-width="0.75" stroke-miterlimit="10"/>
<path id="Vector_53" d="M116.285 6.80933H123.118" stroke="black" stroke-width="0.75" stroke-miterlimit="10"/>
<path id="Vector_54" d="M141.571 6.80933H134.738" stroke="black" stroke-width="0.75" stroke-miterlimit="10"/>
<path id="Vector_55" d="M123.118 6.80939V6.12793" stroke="black" stroke-width="0.75" stroke-miterlimit="10"/>
<path id="Vector_56" d="M117.137 6.12793H123.118" stroke="black" stroke-width="0.75" stroke-miterlimit="10"/>
<path id="Vector_57" d="M117.137 3.4248V6.12793" stroke="black" stroke-width="0.75" stroke-miterlimit="10"/>
<path id="Vector_58" d="M119.562 1.00562C118.92 1.00562 118.301 1.26116 117.847 1.71547C117.393 2.16978 117.137 2.78877 117.137 3.43048" stroke="black" stroke-width="0.75" stroke-miterlimit="10"/>
<path id="Vector_59" d="M138.294 1.00562H119.562" stroke="black" stroke-width="0.75" stroke-miterlimit="10"/>
<path id="Vector_60" d="M140.719 6.12809V3.42497C140.719 2.78326 140.463 2.16427 140.009 1.70996" stroke="black" stroke-width="0.75" stroke-miterlimit="10"/>
<path id="Vector_61" d="M140.009 1.71547C139.555 1.26116 138.935 1.00562 138.294 1.00562" stroke="black" stroke-width="0.75" stroke-miterlimit="10"/>
<path id="Vector_62" d="M134.738 6.12793H140.719" stroke="black" stroke-width="0.75" stroke-miterlimit="10"/>
<path id="Vector_63" d="M134.738 6.80939V6.12793" stroke="black" stroke-width="0.75" stroke-miterlimit="10"/>
<path id="Vector_64" d="M141.4 171.155V170.985" stroke="black" stroke-width="0.75" stroke-miterlimit="10"/>
<path id="Vector_65" d="M116.455 171.155V170.985" stroke="black" stroke-width="0.75" stroke-miterlimit="10"/>
<path id="Vector_66" d="M143.962 143.607V168.463" stroke="black" stroke-width="0.75" stroke-miterlimit="10"/>
<path id="Vector_67" d="M141.4 141.091L143.962 143.652" stroke="black" stroke-width="0.75" stroke-miterlimit="10"/>
<path id="Vector_68" d="M141.4 170.984L143.962 168.423" stroke="black" stroke-width="0.75" stroke-miterlimit="10"/>
<path id="Vector_69" d="M122.436 173.716H138.669" stroke="black" stroke-width="0.75" stroke-miterlimit="10"/>
<path id="Vector_70" d="M119.875 171.155L122.436 173.716" stroke="black" stroke-width="0.75" stroke-miterlimit="10"/>
<path id="Vector_71" d="M141.23 171.155L138.669 173.716" stroke="black" stroke-width="0.75" stroke-miterlimit="10"/>
<path id="Vector_72" d="M90.4824 31.5806V31.7509" stroke="black" stroke-width="0.75" stroke-miterlimit="10"/>
<path id="Vector_73" d="M90.4824 134.083H116.115" stroke="black" stroke-width="0.75" stroke-miterlimit="10"/>
<path id="Vector_74" d="M141.741 134.083H167.373" stroke="black" stroke-width="0.75" stroke-miterlimit="10"/>
<path id="Vector_75" d="M167.373 134.083H193" stroke="black" stroke-width="0.75" stroke-miterlimit="10"/>
<path id="Vector_76" d="M193 134.084V31.5806" stroke="black" stroke-width="0.75" stroke-miterlimit="10"/>
<path id="Vector_77" d="M116.626 140.915V134.083" stroke="black" stroke-width="0.75" stroke-miterlimit="10"/>
<path id="Vector_78" d="M141.23 140.915V134.083" stroke="black" stroke-width="0.75" stroke-miterlimit="10"/>
<path id="Vector_79" d="M192.83 31.5806H193" stroke="black" stroke-width="0.75" stroke-miterlimit="10"/>
<path id="Vector_80" d="M141.741 134.083H141.23" stroke="black" stroke-width="0.75" stroke-miterlimit="10"/>
<path id="Vector_81" d="M116.115 134.083H116.626" stroke="black" stroke-width="0.75" stroke-miterlimit="10"/>
<path id="Vector_82" d="M143.485 122.107C143.485 121.391 143.843 120.727 144.439 120.329" stroke="black" stroke-width="0.75" stroke-miterlimit="10"/>
<path id="Vector_83" d="M146.813 123.89C146.154 124.327 145.314 124.367 144.615 123.998C143.917 123.623 143.485 122.902 143.485 122.113" stroke="black" stroke-width="0.75" stroke-miterlimit="10"/>
<path id="Vector_84" d="M146.813 123.89L164.778 111.896L164.869 111.839C165.346 111.521 165.635 110.982 165.635 110.408V109.403C165.635 108.767 165.289 108.182 164.727 107.887C164.164 107.586 163.489 107.62 162.96 107.972L144.439 120.329" stroke="black" stroke-width="0.75" stroke-miterlimit="10"/>
<path id="Vector_85" d="M90.4824 31.5806H92.0216" stroke="black" stroke-width="0.75" stroke-miterlimit="10"/>
<path id="Vector_86" d="M166.005 31.5806H167.373" stroke="black" stroke-width="0.75" stroke-miterlimit="10"/>
<path id="Vector_87" d="M116.455 171.155H119.875" stroke="black" stroke-width="0.75" stroke-miterlimit="10"/>
<path id="Vector_88" d="M141.23 171.155H141.4" stroke="black" stroke-width="0.75" stroke-miterlimit="10"/>
<path id="Vector_89" d="M36.4349 147.247V150.325" stroke="#E52421" stroke-width="0.75" stroke-miterlimit="10"/>
<path id="Vector_90" d="M38.1616 147.247V150.325" stroke="#E52421" stroke-width="0.75" stroke-miterlimit="10"/>
<path id="Vector_91" d="M49.2823 141.954H24.5077" stroke="#E52421" stroke-width="0.75" stroke-miterlimit="10"/>
<path id="Vector_92" d="M49.4526 142.125V172.018" stroke="#E52421" stroke-width="0.75" stroke-miterlimit="10"/>
<path id="Vector_93" d="M24.3373 142.125V172.018" stroke="#E52421" stroke-width="0.75" stroke-miterlimit="10"/>
<path id="Vector_94" d="M36.4349 150.325H34.8957C34.4868 150.325 34.0949 150.16 33.8109 149.876C33.5213 149.587 33.3622 149.195 33.3622 148.792" stroke="black" stroke-width="0.75" stroke-miterlimit="10"/>
<path id="Vector_95" d="M33.3622 148.786C33.3622 148.377 33.527 147.985 33.8109 147.701C34.1006 147.412 34.4925 147.253 34.8957 147.253H36.4349" stroke="black" stroke-width="0.75" stroke-miterlimit="10"/>
<path id="Vector_96" d="M38.1616 150.325H39.7007C40.1097 150.325 40.5016 150.16 40.7856 149.876C41.0752 149.587 41.2342 149.195 41.2342 148.792" stroke="black" stroke-width="0.75" stroke-miterlimit="10"/>
<path id="Vector_97" d="M41.2342 148.786C41.2342 148.377 41.0695 147.985 40.7856 147.701C40.4959 147.412 40.104 147.253 39.7007 147.253H38.1616" stroke="black" stroke-width="0.75" stroke-miterlimit="10"/>
<path id="Vector_98" d="M49.2823 172.188C49.2823 172.143 49.2993 172.098 49.3334 172.069C49.3675 172.035 49.4072 172.018 49.4527 172.018" stroke="black" stroke-width="0.75" stroke-miterlimit="10"/>
<path id="Vector_99" d="M24.5077 172.188C24.5077 172.143 24.4906 172.098 24.4566 172.069C24.4225 172.035 24.3827 172.018 24.3373 172.018" stroke="black" stroke-width="0.75" stroke-miterlimit="10"/>
<path id="Vector_100" d="M49.2823 141.954L46.7208 139.387" stroke="black" stroke-width="0.75" stroke-miterlimit="10"/>
<path id="Vector_101" d="M24.5077 141.954L27.0749 139.387" stroke="black" stroke-width="0.75" stroke-miterlimit="10"/>
<path id="Vector_102" d="M27.0749 139.387H46.7208" stroke="black" stroke-width="0.75" stroke-miterlimit="10"/>
<path id="Vector_103" d="M49.2823 172.188L46.7208 174.75" stroke="black" stroke-width="0.75" stroke-miterlimit="10"/>
<path id="Vector_104" d="M27.9325 172.188L30.494 174.75" stroke="black" stroke-width="0.75" stroke-miterlimit="10"/>
<path id="Vector_105" d="M30.4883 174.75H46.7208" stroke="black" stroke-width="0.75" stroke-miterlimit="10"/>
<path id="Vector_106" d="M49.4526 172.018L52.0198 169.457" stroke="black" stroke-width="0.75" stroke-miterlimit="10"/>
<path id="Vector_107" d="M49.4526 142.125L52.0198 144.686" stroke="black" stroke-width="0.75" stroke-miterlimit="10"/>
<path id="Vector_108" d="M52.0198 144.64V169.502" stroke="black" stroke-width="0.75" stroke-miterlimit="10"/>
<path id="Vector_109" d="M24.5077 141.954C24.5077 142 24.4906 142.045 24.4566 142.074C24.4225 142.108 24.3827 142.125 24.3373 142.125" stroke="black" stroke-width="0.75" stroke-miterlimit="10"/>
<path id="Vector_110" d="M49.2823 141.954C49.2823 142 49.2993 142.045 49.3334 142.074C49.3675 142.108 49.4072 142.125 49.4527 142.125" stroke="black" stroke-width="0.75" stroke-miterlimit="10"/>
<path id="Vector_111" d="M24.3373 172.018L21.7758 169.457" stroke="black" stroke-width="0.75" stroke-miterlimit="10"/>
<path id="Vector_112" d="M24.3373 142.125L21.7758 144.686" stroke="black" stroke-width="0.75" stroke-miterlimit="10"/>
<g id="Group_2">
<path id="Vector_113" d="M43.9888 144.515H41.717" stroke="black" stroke-width="0.75" stroke-miterlimit="10"/>
<path id="Vector_114" d="M38.6727 144.515H34.1119" stroke="black" stroke-width="0.75" stroke-miterlimit="10"/>
<path id="Vector_115" d="M32.5898 144.515H30.3179" stroke="black" stroke-width="0.75" stroke-miterlimit="10"/>
</g>
<g id="Group_3">
<path id="Vector_116" d="M43.9888 153.056V150.785" stroke="black" stroke-width="0.75" stroke-miterlimit="10"/>
<path id="Vector_117" d="M43.9888 146.787V144.515" stroke="black" stroke-width="0.75" stroke-miterlimit="10"/>
</g>
<g id="Group_4">
<path id="Vector_118" d="M30.3179 153.056H32.5898" stroke="black" stroke-width="0.75" stroke-miterlimit="10"/>
<path id="Vector_119" d="M35.6341 153.056H40.1948" stroke="black" stroke-width="0.75" stroke-miterlimit="10"/>
<path id="Vector_120" d="M41.717 153.056H43.9888" stroke="black" stroke-width="0.75" stroke-miterlimit="10"/>
</g>
<g id="Group_5">
<path id="Vector_121" d="M30.3179 144.515V146.787" stroke="black" stroke-width="0.75" stroke-miterlimit="10"/>
<path id="Vector_122" d="M30.3179 150.785V153.056" stroke="black" stroke-width="0.75" stroke-miterlimit="10"/>
</g>
<path id="Vector_123" d="M24.5077 172.188H49.2823" stroke="black" stroke-width="0.75" stroke-miterlimit="10"/>
<path id="Vector_124" d="M21.7758 144.64V169.502" stroke="black" stroke-width="0.75" stroke-miterlimit="10"/>
<path id="Vector_125" d="M119.562 1.00562H70.4673" stroke="#1D1D1B" stroke-width="0.75" stroke-miterlimit="10"/>
<path id="Vector_126" d="M122.436 173.716H70.4673" stroke="#1D1D1B" stroke-width="0.75" stroke-miterlimit="10"/>
<g id="Group_6">
<path id="Vector_127" d="M74.2159 4.06079V170.661" stroke="#1D1D1B" stroke-width="0.75" stroke-linecap="round" stroke-linejoin="round"/>
<path id="Vector_128" d="M72.0917 4.67982L74.2102 1.00562L76.3344 4.67982H72.0917Z" fill="#1D1D1B"/>
<path id="Vector_129" d="M72.0917 170.042L74.2102 173.716L76.3344 170.042H72.0917Z" fill="#1D1D1B"/>
</g>
<g id="Group_7">
<path id="Vector_130" d="M60.988 86.2222H60.9767L60.4882 86.4891L60.4144 86.1995L61.0334 85.8701H61.3572V88.6925H60.988V86.2279V86.2222Z" fill="#1D1D1B"/>
<path id="Vector_131" d="M64.2595 87.2445C64.2595 88.2042 63.9017 88.7323 63.2769 88.7323C62.726 88.7323 62.3511 88.2156 62.3455 87.2842C62.3455 86.3359 62.7544 85.8191 63.328 85.8191C63.9017 85.8191 64.2595 86.3472 64.2595 87.2445ZM62.726 87.2899C62.726 88.0225 62.9532 88.4427 63.2996 88.4427C63.6915 88.4427 63.879 87.9884 63.879 87.2672C63.879 86.546 63.7029 86.1144 63.3053 86.1144C62.9702 86.1144 62.726 86.5233 62.726 87.2899Z" fill="#1D1D1B"/>
<path id="Vector_132" d="M65.4408 86.2222H65.4295L64.941 86.4891L64.8672 86.1995L65.4863 85.8701H65.81V88.6925H65.4408V86.2279V86.2222Z" fill="#1D1D1B"/>
<path id="Vector_133" d="M67.6673 86.2222H67.6559L67.1675 86.4891L67.0936 86.1995L67.7127 85.8701H68.0365V88.6925H67.6673V86.2279V86.2222Z" fill="#1D1D1B"/>
</g>
<path id="Vector_134" d="M27.9893 139.387H5.41272" stroke="#1D1D1B" stroke-width="0.75" stroke-miterlimit="10"/>
<path id="Vector_135" d="M30.494 174.75H5.41272" stroke="#1D1D1B" stroke-width="0.75" stroke-miterlimit="10"/>
<g id="Group_8">
<path id="Vector_136" d="M8.16168 142.443V171.694" stroke="#1D1D1B" stroke-width="0.75" stroke-linecap="round" stroke-linejoin="round"/>
<path id="Vector_137" d="M6.03748 143.067L8.16166 139.387L10.2859 143.067H6.03748Z" fill="#1D1D1B"/>
<path id="Vector_138" d="M6.03748 171.075L8.16166 174.75L10.2859 171.075H6.03748Z" fill="#1D1D1B"/>
</g>
<g id="Group_9">
<path id="Vector_139" d="M0 158.94V158.707L0.301021 158.417C1.02234 157.73 1.34608 157.366 1.35176 156.941C1.35176 156.657 1.21544 156.39 0.789471 156.39C0.533887 156.39 0.31806 156.52 0.187428 156.628L0.0681557 156.361C0.261264 156.197 0.539566 156.077 0.868986 156.077C1.47671 156.077 1.73229 156.492 1.73229 156.895C1.73229 157.418 1.35176 157.838 0.761072 158.411L0.533887 158.621V158.633H1.80045V158.951H0V158.94Z" fill="#1D1D1B"/>
<path id="Vector_140" d="M4.10069 157.497C4.10069 158.457 3.74287 158.985 3.11811 158.985C2.56718 158.985 2.19233 158.468 2.18665 157.537C2.18665 156.589 2.59558 156.072 3.16922 156.072C3.74287 156.072 4.10069 156.6 4.10069 157.497ZM2.56718 157.543C2.56718 158.275 2.79437 158.695 3.14083 158.695C3.53272 158.695 3.72015 158.241 3.72015 157.52C3.72015 156.799 3.54408 156.367 3.14651 156.367C2.81141 156.367 2.56718 156.776 2.56718 157.543Z" fill="#1D1D1B"/>
<path id="Vector_141" d="M6.28737 156.117V156.367L5.06057 158.94H4.66299L5.8898 156.441V156.43H4.50964V156.112H6.28737V156.117Z" fill="#1D1D1B"/>
</g>
<g id="Group_10">
<path id="Vector_142" d="M34.9582 191.139H34.9469L34.4584 191.406L34.3846 191.116L35.0037 190.787H35.3274V193.609H34.9582V191.145V191.139Z" fill="#1D1D1B"/>
<path id="Vector_143" d="M38.1843 190.781V191.031L36.9575 193.603H36.5599L37.7867 191.105V191.093H36.4066V190.775H38.1843V190.781Z" fill="#1D1D1B"/>
<path id="Vector_144" d="M40.4107 190.781V191.031L39.1839 193.603H38.7863L40.0131 191.105V191.093H38.6329V190.775H40.4107V190.781Z" fill="#1D1D1B"/>
</g>
<g id="Group_11">
<path id="Vector_145" d="M138.458 191.723C138.379 191.723 138.282 191.723 138.174 191.74C137.578 191.843 137.26 192.28 137.192 192.746H137.203C137.339 192.57 137.572 192.422 137.885 192.422C138.385 192.422 138.737 192.78 138.737 193.331C138.737 193.847 138.385 194.324 137.8 194.324C137.215 194.324 136.8 193.853 136.8 193.12C136.8 192.564 136.999 192.127 137.277 191.848C137.51 191.616 137.822 191.474 138.18 191.434C138.294 191.417 138.39 191.411 138.458 191.411V191.723ZM138.35 193.353C138.35 192.95 138.118 192.706 137.771 192.706C137.538 192.706 137.328 192.848 137.226 193.052C137.198 193.098 137.18 193.155 137.18 193.223C137.192 193.688 137.402 194.029 137.8 194.029C138.129 194.029 138.35 193.756 138.35 193.353Z" fill="#1D1D1B"/>
<path id="Vector_146" d="M139.072 194.273V194.04L139.373 193.751C140.094 193.064 140.418 192.7 140.424 192.274C140.424 191.99 140.287 191.723 139.861 191.723C139.606 191.723 139.39 191.854 139.265 191.962L139.146 191.695C139.339 191.53 139.617 191.411 139.946 191.411C140.554 191.411 140.81 191.826 140.81 192.229C140.81 192.751 140.429 193.172 139.839 193.745L139.611 193.955V193.967H140.878V194.285H139.077L139.072 194.273Z" fill="#1D1D1B"/>
<path id="Vector_147" d="M143.178 192.831C143.178 193.791 142.82 194.319 142.196 194.319C141.645 194.319 141.27 193.802 141.264 192.871C141.264 191.922 141.673 191.406 142.247 191.406C142.82 191.406 143.178 191.934 143.178 192.831ZM141.645 192.876C141.645 193.609 141.872 194.029 142.218 194.029C142.61 194.029 142.798 193.575 142.798 192.854C142.798 192.132 142.622 191.701 142.224 191.701C141.889 191.701 141.645 192.11 141.645 192.876Z" fill="#1D1D1B"/>
</g>
<path id="Vector_148" d="M87.069 130.494V191.195" stroke="#1D1D1B" stroke-width="0.75" stroke-miterlimit="10"/>
<path id="Vector_149" d="M193 134.083V191.196" stroke="#1D1D1B" stroke-width="0.75" stroke-miterlimit="10"/>
<g id="Group_12">
<path id="Vector_150" d="M90.1246 187.448H189.944" stroke="#1D1D1B" stroke-width="0.75" stroke-linecap="round" stroke-linejoin="round"/>
<path id="Vector_151" d="M90.7437 189.571L87.069 187.447L90.7437 185.323V189.571Z" fill="#1D1D1B"/>
<path id="Vector_152" d="M189.325 189.571L193 187.447L189.325 185.323V189.571Z" fill="#1D1D1B"/>
</g>
<path id="Vector_153" d="M21.7758 169.457V191.673" stroke="#1D1D1B" stroke-width="0.75" stroke-miterlimit="10"/>
<path id="Vector_154" d="M52.0198 169.457V191.673" stroke="#1D1D1B" stroke-width="0.75" stroke-miterlimit="10"/>
<g id="Group_13">
<path id="Vector_155" d="M24.8314 188.964H48.9642" stroke="#1D1D1B" stroke-width="0.75" stroke-linecap="round" stroke-linejoin="round"/>
<path id="Vector_156" d="M25.4562 191.088L21.7758 188.964L25.4562 186.84V191.088Z" fill="#1D1D1B"/>
<path id="Vector_157" d="M48.3395 191.088L52.0199 188.964L48.3395 186.84V191.088Z" fill="#1D1D1B"/>
</g>
</g>
</svg>
